{
.appVersion = "3259";
.formatVersion = 3;
DisplayStrings = (
R,
"ÓÓÖÖ",
"á",
a
);
axes = (
{
name = Weight;
tag = wght;
},
{
name = Width;
tag = wdth;
},
{
name = "relative y advance";
tag = ryad;
}
);
classes = (
{
automatic = 1;
code = "A B C D E F G H I J K L M N O P Q R S T U V W X Y Z Aacute Eacute Iacute Ntilde Oacute Odieresis Uacute Udieresis";
name = Uppercase;
}
);
customParameters = (
{
name = glyphOrder;
value = (
.notdef,
space,
A,
B,
C,
D,
E,
F,
G,
H,
I,
J,
K,
L,
M,
N,
O,
P,
Q,
R,
S,
T,
U,
V,
W,
X,
Y,
Z,
Aacute,
Eacute,
Iacute,
Ntilde,
Oacute,
Odieresis,
Uacute,
Udieresis,
a,
b,
c,
d,
e,
f,
g,
h,
idotless,
jdotless,
k,
l,
m,
n,
o,
p,
q,
r,
s,
t,
u,
v,
w,
x,
y,
z,
aacute,
eacute,
i,
iacute,
j,
ntilde,
oacute,
odieresis,
uacute,
udieresis,
zero,
zero.alt,
one,
two,
three,
four,
five,
six,
seven,
eight,
nine,
at,
ampersand,
numbersign,
period,
comma,
colon,
semicolon,
hyphen,
underscore,
slash,
question,
questiondown,
exclam,
exclamdown,
parenleft,
parenright,
quoteleft,
quoteright,
quotedblleft,
quotedblright,
acute,
dieresis,
tilde,
dotaccent,
acutecomb,
dieresiscomb,
tildecomb,
dotaccentcomb,
acutecomb.case,
dieresiscomb.case,
tildecomb.case,
upArrow,
northEastArrow,
rightArrow,
southEastArrow,
downArrow,
southWestArrow,
leftArrow,
northWestArrow,
leftRightArrow,
upDownArrow,
faceWithMedicalMask,
putLitterInItsPlaceSymbol,
wheelchairSymbol,
mensSymbol,
womensSymbol,
restroom,
forkAndKnife,
microphone,
hospital,
dog,
heavyDollarSign,
noEntrySign,
noSmokingSymbol
);
},
{
name = "Virtual Master";
value = (
{
Axis = Weight;
Location = 0;
},
{
Axis = Width;
Location = 0;
},
{
Axis = "relative y advance";
Location = 500;
}
);
}
);
date = "2021-09-24 21:30:59 +0000";
familyName = Paradisio;
featurePrefixes = (
{
code = "languagesystem DFLT dflt;";
name = Languagesystems;
}
);
features = (
{
automatic = 1;
code = "feature case;
";
tag = aalt;
},
{
automatic = 1;
code = "lookup ccmp_Other_1 {

glyphs = (
{
glyphname = .notdef;
lastChange = "2023-12-02 23:46:24 +0000";
layers = (
{
layerId = master01;
shapes = (
{
closed = 1;
nodes = (
(490,-200,l),
(490,750,l),
(70,750,l),
(70,-200,l)
);
},
{
closed = 1;
nodes = (
(165,660,l),
(395,660,l),
(395,-110,l),
(165,-110,l)
);
}
);
width = 560;
},
{
layerId = m002;
shapes = (
{
closed = 1;
nodes = (
(490,-200,l),
(490,750,l),
(70,750,l),
(70,-200,l)
);
},
{
closed = 1;
nodes = (
(165,660,l),
(395,660,l),
(395,-110,l),
(165,-110,l)
);
}
);
width = 560;
},
{
layerId = m003;
shapes = (
{
closed = 1;
nodes = (
(490,-200,l),
(490,750,l),
(70,750,l),
(70,-200,l)
);
},
{
closed = 1;
nodes = (
(165,660,l),
(395,660,l),
(395,-110,l),
(165,-110,l)
);
}
);
width = 560;
},
{
layerId = m004;
shapes = (
{
closed = 1;
nodes = (
(490,-200,l),
(490,750,l),
(70,750,l),
(70,-200,l)
);
},
{
closed = 1;
nodes = (
(165,660,l),
(395,660,l),
(395,-110,l),
(165,-110,l)
);
}
);
width = 560;
}
);
metricLeft = H;
metricRight = H;
},
{
glyphname = A;
lastChange = "2023-12-02 23:46:24 +0000";
layers = (
{
anchors = (
{
name = top;
pos = (350,650);
}
);
layerId = master01;
shapes = (
{
closed = 1;
nodes = (
(123,0,l),
(366,615,l),
(334,615,l),
(577,0,l),
(690,0,l),
(420,650,l),
(280,650,l),
(10,0,l)
);
},
{
closed = 1;
nodes = (
(528,160,l),
(490,255,l),
(210,255,l),
(172,160,l)
);
}
);
width = 700;
},
{
anchors = (
{
name = top;
pos = (460,650);
}
);
layerId = m002;
shapes = (
{
closed = 1;
nodes = (
(333,0,l),
(576,615,l),
(344,615,l),
(587,0,l),
(900,0,l),
(630,650,l),
(290,650,l),
(20,0,l)
);
},
{
closed = 1;
nodes = (
(638,60,l),
(600,205,l),
(320,205,l),
(282,60,l)
);
}
);
width = 920;
},
{
anchors = (
{
name = top;
pos = (350,650);
}
);
layerId = m003;
shapes = (
{
closed = 1;
nodes = (
(123,0,l),
(366,615,l),
(334,615,l),
(577,0,l),
(690,0,l),
(420,650,l),
(280,650,l),
(10,0,l)
);
},
{
closed = 1;
nodes = (
(528,160,l),
(490,255,l),
(210,255,l),
(172,160,l)
);
}
);
width = 700;
},
{
anchors = (
{
name = top;
pos = (460,650);
}
);
layerId = m004;
shapes = (
{
closed = 1;
nodes = (
(333,0,l),
(576,615,l),
(344,615,l),
(587,0,l),
(900,0,l),
(630,650,l),
(290,650,l),
(20,0,l)
);
},
{
closed = 1;
nodes = (
(638,60,l),
(600,205,l),
(320,205,l),
(282,60,l)
);
}
);
width = 920;
}
);
unicode = 65;
},
{
glyphname = B;
lastChange = "2023-12-02 23:46:24 +0000";
layers = (
{
guides = (
{
angle = 90;
pos = (230,114);
}
);
layerId = master01;
shapes = (
{
closed = 1;
nodes = (
(412,0,ls),
(530,0,o),
(598,54,o),
(598,174,cs),
(598,296,o),
(554,351,o),
(453,351,c),
(453,327,l),
(523,327,o),
(569,385,o),
(569,483,cs),
(569,602,o),
(509,650,o),
(387,650,cs),
(70,650,l),
(70,0,l)
);
},
{
closed = 1;
nodes = (
(182,610,l),
(114,555,l),
(364,555,ls),
(434,555,o),
(469,535,o),
(469,463,cs),
(469,391,o),
(434,375,o),
(364,375,cs),
(164,375,l),
(164,270,l),
(394,270,ls),
(453,270,o),
(498,267,o),
(498,185,cs),
(498,107,o),
(453,95,o),
(394,95,cs),
(125,95,l),
(182,54,l)
);
}
);
width = 638;
},
{
guides = (
{
angle = 90;
pos = (335,114);
}
);
layerId = m002;
shapes = (
{
closed = 1;
nodes = (
(439,0,ls),
(635,0,o),
(823,54,o),
(823,213,cs),
(823,325,o),
(748,349,o),
(521,349,c),
(521,335,l),
(726,335,o),
(794,356,o),
(794,483,cs),
(794,602,o),
(734,650,o),
(391,650,cs),
(75,650,l),
(75,0,l)
);
},
{
closed = 1;
nodes = (
(335,541,l),
(219,455,l),
(394,455,ls),
(439,455,o),
(474,435,o),
(474,410,cs),
(474,370,o),
(439,354,o),
(394,354,cs),
(219,354,l),
(219,297,l),
(394,297,ls),
(474,297,o),
(483,284,o),
(483,239,cs),
(483,204,o),
(446,204,o),
(394,204,cs),
(230,204,l),
(335,96,l)
);
}
);
width = 873;
},
{
guides = (
{
angle = 90;
pos = (230,114);
}
);
layerId = m003;
shapes = (
{
closed = 1;
nodes = (
(412,0,ls),
(530,0,o),
(598,54,o),
(598,174,cs),
(598,296,o),
(554,351,o),
(453,351,c),
(453,327,l),
(523,327,o),
(569,385,o),
(569,483,cs),
(569,602,o),
(509,650,o),
(387,650,cs),
(70,650,l),
(70,0,l)
);
},
{
closed = 1;
nodes = (
(182,610,l),
(114,555,l),
(364,555,ls),
(434,555,o),
(469,535,o),
(469,463,cs),
(469,391,o),
(434,375,o),
(364,375,cs),
(164,375,l),
(164,270,l),
(394,270,ls),
(453,270,o),
(498,267,o),
(498,185,cs),
(498,107,o),
(453,95,o),
(394,95,cs),
(125,95,l),
(182,54,l)
);
}
);
width = 638;
},
{
guides = (
{
angle = 90;
pos = (335,114);
}
);
layerId = m004;
shapes = (
{
closed = 1;
nodes = (
(439,0,ls),
(635,0,o),
(823,54,o),
(823,213,cs),
(823,325,o),
(748,349,o),
(521,349,c),
(521,335,l),
(726,335,o),
(794,356,o),
(794,483,cs),
(794,602,o),
(734,650,o),
(391,650,cs),
(75,650,l),
(75,0,l)
);
},
{
closed = 1;
nodes = (
(335,541,l),
(219,455,l),
(394,455,ls),
(439,455,o),
(474,435,o),
(474,410,cs),
(474,370,o),
(439,354,o),
(394,354,cs),
(219,354,l),
(219,297,l),
(394,297,ls),
(474,297,o),
(483,284,o),
(483,239,cs),
(483,204,o),
(446,204,o),
(394,204,cs),
(230,204,l),
(335,96,l)
);
}
);
width = 873;
}
);
metricLeft = H;
unicode = 66;
},
{
glyphname = C;
lastChange = "2023-12-02 23:46:24 +0000";
layers = (
{
layerId = master01;
shapes = (
{
closed = 1;
nodes = (
(526,-15,o),
(608,39,o),
(642,173,c),
(532,173,l),
(502,107,o),
(450,80,o),
(346,80,cs),
(194,80,o),
(144,141,o),
(144,324,cs),
(144,510,o),
(194,570,o),
(346,570,cs),
(430,570,o),
(480,554,o),
(518,511,c),
(592,595,l),
(543,641,o),
(466,665,o),
(346,665,cs),
(126,665,o),
(45,573,o),
(45,324,cs),
(45,77,o),
(126,-15,o),
(346,-15,cs)
);
}
);
width = 677;
},
{
layerId = m002;
shapes = (
{
closed = 1;
nodes = (
(621,-18,o),
(716,19,o),
(828,104,c),
(707,275,l),
(623,216,o),
(584,213,o),
(515,213,cs),
(422,213,o),
(391,241,o),
(391,324,cs),
(391,386,o),
(420,407,o),
(506,407,cs),
(586,407,o),
(614,400,o),
(698,343,c),
(820,552,l),
(734,629,o),
(588,654,o),
(451,654,cs),
(169,654,o),
(45,544,o),
(45,324,cs),
(45,90,o),
(142,-18,o),
(415,-18,cs)
);
}
);
width = 889;
},
{
layerId = m003;
shapes = (
{
closed = 1;
nodes = (
(526,-15,o),
(608,39,o),
(642,173,c),
(532,173,l),
(502,107,o),
(450,80,o),
(346,80,cs),
(194,80,o),
(144,141,o),
(144,324,cs),
(144,510,o),
(194,570,o),
(346,570,cs),
(430,570,o),
(480,554,o),
(518,511,c),
(592,595,l),
(543,641,o),
(466,665,o),
(346,665,cs),
(126,665,o),
(45,573,o),
(45,324,cs),
(45,77,o),
(126,-15,o),
(346,-15,cs)
);
}
);
width = 677;
},
{
layerId = m004;
shapes = (
{
closed = 1;
nodes = (
(621,-18,o),
(716,19,o),
(828,104,c),
(707,275,l),
(623,216,o),
(584,213,o),
(515,213,cs),
(422,213,o),
(391,241,o),
(391,324,cs),
(391,386,o),
(420,407,o),
(506,407,cs),
(586,407,o),
(614,400,o),
(698,343,c),
(820,552,l),
(734,629,o),
(588,654,o),
(451,654,cs),
(169,654,o),
(45,544,o),
(45,324,cs),
(45,90,o),
(142,-18,o),
(415,-18,cs)
);
}
);
width = 889;
}
);
metricLeft = O;
unicode = 67;
},
{
glyphname = D;
lastChange = "2023-12-02 23:46:24 +0000";
layers = (
{
anchors = (
{
name = top;
pos = (121,650);
}
);
layerId = master01;
shapes = (
{
closed = 1;
nodes = (
(323,0,ls),
(553,0,o),
(638,88,o),
(638,325,cs),
(638,562,o),
(553,650,o),
(323,650,cs),
(70,650,l),
(70,0,l)
);
},
{
closed = 1;
nodes = (
(172,600,l),
(127,555,l),
(323,555,ls),
(479,555,o),
(538,492,o),
(538,325,cs),
(538,158,o),
(480,95,o),
(323,95,cs),
(139,95,l),
(172,80,l)
);
}
);
width = 683;
},
{
anchors = (
{
name = top;
pos = (226,650);
}
);
layerId = m002;
shapes = (
{
closed = 1;
nodes = (
(428,0,ls),
(658,0,o),
(843,88,o),
(843,325,cs),
(843,562,o),
(658,650,o),
(428,650,cs),
(75,650,l),
(75,0,l)
);
},
{
closed = 1;
nodes = (
(377,610,l),
(244,455,l),
(428,455,ls),
(485,455,o),
(543,441,o),
(543,325,cs),
(543,239,o),
(485,205,o),
(428,205,cs),
(244,205,l),
(377,80,l)
);
}
);
width = 888;
},
{
anchors = (
{
name = top;
pos = (121,650);
}
);
layerId = m003;
shapes = (
{
closed = 1;
nodes = (
(323,0,ls),
(553,0,o),
(638,88,o),
(638,325,cs),
(638,562,o),
(553,650,o),
(323,650,cs),
(70,650,l),
(70,0,l)
);
},
{
closed = 1;
nodes = (
(172,600,l),
(127,555,l),
(323,555,ls),
(479,555,o),
(538,492,o),
(538,325,cs),
(538,158,o),
(480,95,o),
(323,95,cs),
(139,95,l),
(172,80,l)
);
}
);
width = 683;
},
{
anchors = (
{
name = top;
pos = (226,650);
}
);
layerId = m004;
shapes = (
{
closed = 1;
nodes = (
(428,0,ls),
(658,0,o),
(843,88,o),
(843,325,cs),
(843,562,o),
(658,650,o),
(428,650,cs),
(75,650,l),
(75,0,l)
);
},
{
closed = 1;
nodes = (
(377,610,l),
(244,455,l),
(428,455,ls),
(485,455,o),
(543,441,o),
(543,325,cs),
(543,239,o),
(485,205,o),
(428,205,cs),
(244,205,l),
(377,80,l)
);
}
);
width = 888;
}
);
metricLeft = H;
metricRight = O;
unicode = 68;
},
{
glyphname = E;
lastChange = "2023-12-02 23:46:24 +0000";
layers = (
{
anchors = (
{
name = top;
pos = (288,650);
}
);
layerId = master01;
shapes = (
{
closed = 1;
nodes = (
(533,0,l),
(533,95,l),
(130,95,l),
(172,50,l),
(172,584,l),
(135,555,l),
(528,555,l),
(528,650,l),
(70,650,l),
(70,0,l)
);
},
{
ref = barra;
}
);
width = 583;
},
{
anchors = (
{
name = top;
pos = (393,650);
}
);
layerId = m002;
shapes = (
{
closed = 1;
nodes = (
(638,0,l),
(638,205,l),
(235,205,l),
(377,50,l),
(377,584,l),
(240,455,l),
(633,455,l),
(633,650,l),
(75,650,l),
(75,0,l)
);
},
{
pos = (107,50);
ref = barra;
}
);
width = 688;
},
{
anchors = (
{
name = top;
pos = (288,650);
}
);
layerId = m003;
shapes = (
{
closed = 1;
nodes = (
(533,0,l),
(533,95,l),
(130,95,l),
(172,50,l),
(172,584,l),
(135,555,l),
(528,555,l),
(528,650,l),
(70,650,l),
(70,0,l)
);
},
{
ref = barra;
}
);
width = 583;
},
{
anchors = (
{
name = top;
pos = (393,650);
}
);
layerId = m004;
shapes = (
{
closed = 1;
nodes = (
(638,0,l),
(638,205,l),
(235,205,l),
(377,50,l),
(377,584,l),
(240,455,l),
(633,455,l),
(633,650,l),
(75,650,l),
(75,0,l)
);
},
{
pos = (107,50);
ref = barra;
}
);
width = 688;
}
);
metricLeft = H;
unicode = 69;
},
{
glyphname = F;
lastChange = "2023-12-02 23:46:24 +0000";
layers = (
{
layerId = master01;
shapes = (
{
closed = 1;
nodes = (
(172,0,l),
(172,600,l),
(127,555,l),
(528,555,l),
(528,650,l),
(70,650,l),
(70,0,l)
);
},
{
ref = barra;
}
);
width = 553;
},
{
layerId = m002;
shapes = (
{
closed = 1;
nodes = (
(377,0,l),
(377,600,l),
(232,455,l),
(633,455,l),
(633,650,l),
(75,650,l),
(75,0,l)
);
},
{
pos = (105,-20);
ref = barra;
}
);
width = 658;
},
{
layerId = m003;
shapes = (
{
closed = 1;
nodes = (
(172,0,l),
(172,600,l),
(127,555,l),
(528,555,l),
(528,650,l),
(70,650,l),
(70,0,l)
);
},
{
ref = barra;
}
);
width = 553;
},
{
layerId = m004;
shapes = (
{
closed = 1;
nodes = (
(377,0,l),
(377,600,l),
(232,455,l),
(633,455,l),
(633,650,l),
(75,650,l),
(75,0,l)
);
},
{
pos = (105,-20);
ref = barra;
}
);
width = 658;
}
);
metricLeft = H;
unicode = 70;
},
{
glyphname = G;
lastChange = "2023-12-02 23:46:24 +0000";
layers = (
{
layerId = master01;
shapes = (
{
closed = 1;
nodes = (
(567,-15,o),
(647,71,o),
(647,274,cs),
(647,348,l),
(335,348,l),
(335,263,l),
(592,263,l),
(545,305,l),
(545,276,ls),
(545,135,o),
(499,80,o),
(351,80,cs),
(195,80,o),
(144,141,o),
(144,324,cs),
(144,510,o),
(194,570,o),
(346,570,cs),
(449,570,o),
(502,546,o),
(532,477,c),
(642,477,l),
(607,612,o),
(525,665,o),
(346,665,cs),
(126,665,o),
(45,573,o),
(45,324,cs),
(45,77,o),
(127,-15,o),
(351,-15,cs)
);
}
);
width = 687;
},
{
layerId = m002;
shapes = (
{
closed = 1;
nodes = (
(567,-15,o),
(647,71,o),
(647,274,cs),
(647,348,l),
(335,348,l),
(335,263,l),
(592,263,l),
(545,305,l),
(545,276,ls),
(545,135,o),
(499,80,o),
(351,80,cs),
(195,80,o),
(144,141,o),
(144,324,cs),
(144,510,o),
(194,570,o),
(346,570,cs),
(449,570,o),
(502,546,o),
(532,477,c),
(642,477,l),
(607,612,o),
(525,665,o),
(346,665,cs),
(126,665,o),
(45,573,o),
(45,324,cs),
(45,77,o),
(127,-15,o),
(351,-15,cs)
);
}
);
width = 687;
},
{
layerId = m003;
shapes = (
{
closed = 1;
nodes = (
(567,-15,o),
(647,71,o),
(647,274,cs),
(647,348,l),
(335,348,l),
(335,263,l),
(592,263,l),
(545,305,l),
(545,276,ls),
(545,135,o),
(499,80,o),
(351,80,cs),
(195,80,o),
(144,141,o),
(144,324,cs),
(144,510,o),
(194,570,o),
(346,570,cs),
(449,570,o),
(502,546,o),
(532,477,c),
(642,477,l),
(607,612,o),
(525,665,o),
(346,665,cs),
(126,665,o),
(45,573,o),
(45,324,cs),
(45,77,o),
(127,-15,o),
(351,-15,cs)
);
}
);
width = 687;
},
{
layerId = m004;
shapes = (
{
closed = 1;
nodes = (
(567,-15,o),
(647,71,o),
(647,274,cs),
(647,348,l),
(335,348,l),
(335,263,l),
(592,263,l),
(545,305,l),
(545,276,ls),
(545,135,o),
(499,80,o),
(351,80,cs),
(195,80,o),
(144,141,o),
(144,324,cs),
(144,510,o),
(194,570,o),
(346,570,cs),
(449,570,o),
(502,546,o),
(532,477,c),
(642,477,l),
(607,612,o),
(525,665,o),
(346,665,cs),
(126,665,o),
(45,573,o),
(45,324,cs),
(45,77,o),
(127,-15,o),
(351,-15,cs)
);
}
);
width = 687;
}
);
metricLeft = O;
unicode = 71;
},
{
glyphname = H;
lastChange = "2023-12-02 23:59:11 +0000";
layers = (
{
layerId = master01;
shapes = (
{
closed = 1;
nodes = (
(630,0,l),
(630,650,l),
(528,650,l),
(528,0,l)
);
},
{
closed = 1;
nodes = (
(172,0,l),
(172,650,l),
(70,650,l),
(70,0,l)
);
},
{
closed = 1;
nodes = (
(570,281,l),
(570,376,l),
(130,376,l),
(130,281,l)
);
}
);
width = 700;
},
{
layerId = m002;
shapes = (
{
closed = 1;
nodes = (
(835,0,l),
(835,650,l),
(533,650,l),
(533,0,l)
);
},
{
closed = 1;
nodes = (
(377,0,l),
(377,650,l),
(75,650,l),
(75,0,l)
);
},
{
closed = 1;
nodes = (
(675,171,l),
(675,376,l),
(235,376,l),
(235,171,l)
);
}
);
width = 910;
},
{
layerId = m003;
shapes = (
{
closed = 1;
nodes = (
(1130,0,l),
(1130,650,l),
(1028,650,l),
(1028,0,l)
);
},
{
closed = 1;
nodes = (
(172,0,l),
(172,650,l),
(70,650,l),
(70,0,l)
);
},
{
closed = 1;
nodes = (
(1070,281,l),
(1070,376,l),
(130,376,l),
(130,281,l)
);
}
);
width = 1200;
},
{
layerId = m004;
shapes = (
{
closed = 1;
nodes = (
(1335,0,l),
(1335,650,l),
(1033,650,l),
(1033,0,l)
);
},
{
closed = 1;
nodes = (
(377,0,l),
(377,650,l),
(75,650,l),
(75,0,l)
);
},
{
closed = 1;
nodes = (
(1175,171,l),
(1175,376,l),
(235,376,l),
(235,171,l)
);
}
);
width = 1410;
},
{
associatedMasterId = master01;
attr = {
coordinates = (
200,
500,
500
);
};
layerId = "A27EE161-B7FF-473F-8DA2-B5ABA253F7D9";
name = "2 de dic de 23 17:55";
shapes = (
{
closed = 1;
nodes = (
(630,0,l),
(630,650,l),
(528,650,l),
(528,0,l)
);
},
{
closed = 1;
nodes = (
(172,0,l),
(172,650,l),
(70,650,l),
(70,0,l)
);
},
{
closed = 1;
nodes = (
(570,461,l),
(570,556,l),
(130,556,l),
(130,461,l)
);
}
);
width = 700;
},
{
associatedMasterId = m002;
attr = {
coordinates = (
1200,
500,
500
);
};
layerId = "B0336968-EF57-4896-9DC1-034CAB1C5479";
name = "2 de dic de 23 17:56";
shapes = (
{
closed = 1;
nodes = (
(835,0,l),
(835,650,l),
(533,650,l),
(533,0,l)
);
},
{
closed = 1;
nodes = (
(377,0,l),
(377,650,l),
(75,650,l),
(75,0,l)
);
},
{
closed = 1;
nodes = (
(675,388,l),
(675,593,l),
(235,593,l),
(235,388,l)
);
}
);
width = 910;
},
{
associatedMasterId = m003;
attr = {
coordinates = (
200,
1000,
500
);
};
layerId = "EF480A62-0C3A-4DF7-8E1D-4992E8C7AD03";
name = "2 de dic de 23 17:56";
shapes = (
{
closed = 1;
nodes = (
(1130,0,l),
(1130,650,l),
(1028,650,l),
(1028,0,l)
);
},
{
closed = 1;
nodes = (
(172,0,l),
(172,650,l),
(70,650,l),
(70,0,l)
);
},
{
closed = 1;
nodes = (
(1070,481,l),
(1070,576,l),
(130,576,l),
(130,481,l)
);
}
);
width = 1200;
},
{
associatedMasterId = m004;
attr = {
coordinates = (
1200,
1000,
500
);
};
layerId = "92BA81C1-7499-4516-BF00-0E3BDED42EF5";
name = "2 de dic de 23 17:57";
shapes = (
{
closed = 1;
nodes = (
(1335,0,l),
(1335,650,l),
(1033,650,l),
(1033,0,l)
);
},
{
closed = 1;
nodes = (
(377,0,l),
(377,650,l),
(75,650,l),
(75,0,l)
);
},
{
closed = 1;
nodes = (
(1175,431,l),
(1175,636,l),
(235,636,l),
(235,431,l)
);
}
);
width = 1410;
}
);
unicode = 72;
},
{
glyphname = I;
lastChange = "2023-12-02 23:46:24 +0000";
layers = (
{
anchors = (
{
name = top;
pos = (121,650);
}
);
layerId = master01;
shapes = (
{
closed = 1;
nodes = (
(172,0,l),
(172,650,l),
(70,650,l),
(70,0,l)
);
}
);
width = 242;
},
{
anchors = (
{
name = top;
pos = (126,650);
}
);
layerId = m002;
shapes = (
{
closed = 1;
nodes = (
(377,0,l),
(377,650,l),
(75,650,l),
(75,0,l)
);
}
);
width = 452;
},
{
anchors = (
{
name = top;
pos = (121,650);
}
);
layerId = m003;
shapes = (
{
closed = 1;
nodes = (
(172,0,l),
(172,650,l),
(70,650,l),
(70,0,l)
);
}
);
width = 242;
},
{
anchors = (
{
name = top;
pos = (126,650);
}
);
layerId = m004;
shapes = (
{
closed = 1;
nodes = (
(377,0,l),
(377,650,l),
(75,650,l),
(75,0,l)
);
}
);
width = 452;
}
);
metricLeft = H;
metricRight = H;
unicode = 73;
},
{
glyphname = J;
lastChange = "2023-12-02 23:46:24 +0000";
layers = (
{
layerId = master01;
shapes = (
{
closed = 1;
nodes = (
(448,-15,o),
(520,53,o),
(520,224,cs),
(520,650,l),
(418,650,l),
(418,224,ls),
(418,117,o),
(379,80,o),
(285,80,cs),
(191,80,o),
(152,119,o),
(152,214,cs),
(152,226,l),
(50,226,l),
(50,214,ls),
(50,55,o),
(122,-15,o),
(285,-15,cs)
);
}
);
width = 585;
},
{
layerId = m002;
shapes = (
{
closed = 1;
nodes = (
(448,-15,o),
(520,53,o),
(520,224,cs),
(520,650,l),
(418,650,l),
(418,224,ls),
(418,117,o),
(379,80,o),
(285,80,cs),
(191,80,o),
(152,119,o),
(152,214,cs),
(152,226,l),
(50,226,l),
(50,214,ls),
(50,55,o),
(122,-15,o),
(285,-15,cs)
);
}
);
width = 585;
},
{
layerId = m003;
shapes = (
{
closed = 1;
nodes = (
(448,-15,o),
(520,53,o),
(520,224,cs),
(520,650,l),
(418,650,l),
(418,224,ls),
(418,117,o),
(379,80,o),
(285,80,cs),
(191,80,o),
(152,119,o),
(152,214,cs),
(152,226,l),
(50,226,l),
(50,214,ls),
(50,55,o),
(122,-15,o),
(285,-15,cs)
);
}
);
width = 585;
},
{
layerId = m004;
shapes = (
{
closed = 1;
nodes = (
(448,-15,o),
(520,53,o),
(520,224,cs),
(520,650,l),
(418,650,l),
(418,224,ls),
(418,117,o),
(379,80,o),
(285,80,cs),
(191,80,o),
(152,119,o),
(152,214,cs),
(152,226,l),
(50,226,l),
(50,214,ls),
(50,55,o),
(122,-15,o),
(285,-15,cs)
);
}
);
width = 585;
}
);
metricRight = "=H-5";
unicode = 74;
},
{
glyphname = K;
lastChange = "2023-12-02 23:46:24 +0000";
layers = (
{
layerId = master01;
shapes = (
{
closed = 1;
nodes = (
(609,650,l),
(484,650,l),
(125,280,l),
(142,174,l)
);
},
{
closed = 1;
nodes = (
(172,0,l),
(172,650,l),
(70,650,l),
(70,0,l)
);
},
{
closed = 1;
nodes = (
(638,0,l),
(327,363,l),
(238,335,l),
(523,0,l)
);
}
);
width = 643;
},
{
layerId = m002;
shapes = (
{
closed = 1;
nodes = (
(894,650,l),
(589,650,l),
(230,280,l),
(320,65,l)
);
},
{
closed = 1;
nodes = (
(377,0,l),
(377,650,l),
(75,650,l),
(75,0,l)
);
},
{
closed = 1;
nodes = (
(933,0,l),
(575,418,l),
(273,335,l),
(558,0,l)
);
}
);
width = 863;
},
{
layerId = m003;
shapes = (
{
closed = 1;
nodes = (
(609,650,l),
(484,650,l),
(125,280,l),
(142,174,l)
);
},
{
closed = 1;
nodes = (
(172,0,l),
(172,650,l),
(70,650,l),
(70,0,l)
);
},
{
closed = 1;
nodes = (
(638,0,l),
(327,363,l),
(238,335,l),
(523,0,l)
);
}
);
width = 643;
},
{
layerId = m004;
shapes = (
{
closed = 1;
nodes = (
(894,650,l),
(589,650,l),
(230,280,l),
(320,65,l)
);
},
{
closed = 1;
nodes = (
(377,0,l),
(377,650,l),
(75,650,l),
(75,0,l)
);
},
{
closed = 1;
nodes = (
(933,0,l),
(575,418,l),
(273,335,l),
(558,0,l)
);
}
);
width = 863;
}
);
metricLeft = H;
unicode = 75;
},
{
glyphname = L;
lastChange = "2023-12-02 23:46:24 +0000";
layers = (
{
layerId = master01;
shapes = (
{
closed = 1;
nodes = (
(520,0,l),
(520,97,l),
(127,97,l),
(172,52,l),
(172,650,l),
(70,650,l),
(70,0,l)
);
}
);
width = 545;
},
{
layerId = m002;
shapes = (
{
closed = 1;
nodes = (
(625,0,l),
(625,157,l),
(232,157,l),
(377,52,l),
(377,650,l),
(75,650,l),
(75,0,l)
);
}
);
width = 650;
},
{
layerId = m003;
shapes = (
{
closed = 1;
nodes = (
(520,0,l),
(520,97,l),
(127,97,l),
(172,52,l),
(172,650,l),
(70,650,l),
(70,0,l)
);
}
);
width = 545;
},
{
layerId = m004;
shapes = (
{
closed = 1;
nodes = (
(625,0,l),
(625,157,l),
(232,157,l),
(377,52,l),
(377,650,l),
(75,650,l),
(75,0,l)
);
}
);
width = 650;
}
);
metricLeft = H;
unicode = 76;
},
{
glyphname = M;
lastChange = "2023-12-02 23:46:24 +0000";
layers = (
{
layerId = master01;
shapes = (
{
closed = 1;
nodes = (
(507,0,l),
(714,616,l),
(700,618,l),
(700,0,l),
(802,0,l),
(802,650,l),
(625,650,l),
(422,34,l),
(450,34,l),
(247,650,l),
(70,650,l),
(70,1,l),
(172,1,l),
(172,618,l),
(158,616,l),
(365,0,l)
);
}
);
width = 872;
},
{
layerId = m002;
shapes = (
{
closed = 1;
nodes = (
(507,0,l),
(714,616,l),
(700,618,l),
(700,0,l),
(802,0,l),
(802,650,l),
(625,650,l),
(422,34,l),
(450,34,l),
(247,650,l),
(70,650,l),
(70,1,l),
(172,1,l),
(172,618,l),
(158,616,l),
(365,0,l)
);
}
);
width = 872;
},
{
layerId = m003;
shapes = (
{
closed = 1;
nodes = (
(507,0,l),
(714,616,l),
(700,618,l),
(700,0,l),
(802,0,l),
(802,650,l),
(625,650,l),
(422,34,l),
(450,34,l),
(247,650,l),
(70,650,l),
(70,1,l),
(172,1,l),
(172,618,l),
(158,616,l),
(365,0,l)
);
}
);
width = 872;
},
{
layerId = m004;
shapes = (
{
closed = 1;
nodes = (
(507,0,l),
(714,616,l),
(700,618,l),
(700,0,l),
(802,0,l),
(802,650,l),
(625,650,l),
(422,34,l),
(450,34,l),
(247,650,l),
(70,650,l),
(70,1,l),
(172,1,l),
(172,618,l),
(158,616,l),
(365,0,l)
);
}
);
width = 872;
}
);
metricLeft = H;
metricRight = H;
unicode = 77;
},
{
glyphname = N;
lastChange = "2023-12-02 23:46:24 +0000";
layers = (
{
anchors = (
{
name = top;
pos = (350,650);
}
);
layerId = master01;
shapes = (
{
closed = 1;
nodes = (
(167,0,l),
(167,618,l),
(146,613,l),
(473,0,l),
(630,0,l),
(630,650,l),
(533,650,l),
(533,32,l),
(554,37,l),
(227,650,l),
(70,650,l),
(70,0,l)
);
}
);
width = 700;
},
{
anchors = (
{
name = top;
pos = (350,650);
}
);
layerId = m002;
shapes = (
{
closed = 1;
nodes = (
(167,0,l),
(167,618,l),
(146,613,l),
(473,0,l),
(630,0,l),
(630,650,l),
(533,650,l),
(533,32,l),
(554,37,l),
(227,650,l),
(70,650,l),
(70,0,l)
);
}
);
width = 700;
},
{
anchors = (
{
name = top;
pos = (350,650);
}
);
layerId = m003;
shapes = (
{
closed = 1;
nodes = (
(167,0,l),
(167,618,l),
(146,613,l),
(473,0,l),
(630,0,l),
(630,650,l),
(533,650,l),
(533,32,l),
(554,37,l),
(227,650,l),
(70,650,l),
(70,0,l)
);
}
);
width = 700;
},
{
anchors = (
{
name = top;
pos = (350,650);
}
);
layerId = m004;
shapes = (
{
closed = 1;
nodes = (
(167,0,l),
(167,618,l),
(146,613,l),
(473,0,l),
(630,0,l),
(630,650,l),
(533,650,l),
(533,32,l),
(554,37,l),
(227,650,l),
(70,650,l),
(70,0,l)
);
}
);
width = 700;
}
);
metricLeft = H;
metricRight = H;
unicode = 78;
},
{
glyphname = O;
lastChange = "2023-12-02 23:48:22 +0000";
layers = (
{
anchors = (
{
name = top;
pos = (355,650);
}
);
layerId = master01;
shapes = (
{
closed = 1;
nodes = (
(581,-15,o),
(665,77,o),
(665,325,cs),
(665,573,o),
(581,665,o),
(355,665,cs),
(129,665,o),
(45,573,o),
(45,325,cs),
(45,77,o),
(129,-15,o),
(355,-15,cs)
);
},
{
closed = 1;
nodes = (
(202,80,o),
(145,147,o),
(145,325,cs),
(145,503,o),
(202,570,o),
(355,570,cs),
(508,570,o),
(565,503,o),
(565,325,cs),
(565,147,o),
(508,80,o),
(355,80,cs)
);
}
);
width = 710;
},
{
anchors = (
{
name = top;
pos = (410,650);
}
);
layerId = m002;
shapes = (
{
closed = 1;
nodes = (
(716,-19,o),
(800,73,o),
(800,325,cs),
(800,573,o),
(716,665,o),
(410,665,cs),
(124,665,o),
(40,573,o),
(40,325,cs),
(40,73,o),
(124,-19,o),
(410,-19,cs)
);
},
{
closed = 1;
nodes = (
(367,203,o),
(349,233,o),
(349,325,cs),
(349,414,o),
(367,443,o),
(420,443,cs),
(473,443,o),
(491,414,o),
(491,325,cs),
(491,233,o),
(473,203,o),
(420,203,cs)
);
}
);
width = 840;
},
{
anchors = (
{
name = top;
pos = (560,650);
}
);
layerId = m003;
shapes = (
{
closed = 1;
nodes = (
(986,-15,o),
(1070,77,o),
(1070,325,cs),
(1070,573,o),
(986,665,o),
(560,665,cs),
(134,665,o),
(50,573,o),
(50,325,cs),
(50,77,o),
(134,-15,o),
(560,-15,cs)
);
},
{
closed = 1;
nodes = (
(207,80,o),
(150,147,o),
(150,325,cs),
(150,503,o),
(207,570,o),
(560,570,cs),
(913,570,o),
(970,503,o),
(970,325,cs),
(970,147,o),
(913,80,o),
(560,80,cs)
);
}
);
width = 1120;
},
{
anchors = (
{
name = top;
pos = (620,650);
}
);
layerId = m004;
shapes = (
{
closed = 1;
nodes = (
(1126,-19,o),
(1210,73,o),
(1210,325,cs),
(1210,573,o),
(1126,665,o),
(620,665,cs),
(134,665,o),
(50,573,o),
(50,325,cs),
(50,73,o),
(134,-19,o),
(620,-19,cs)
);
},
{
closed = 1;
nodes = (
(377,203,o),
(359,233,o),
(359,325,cs),
(359,414,o),
(377,443,o),
(630,443,cs),
(883,443,o),
(901,414,o),
(901,325,cs),
(901,233,o),
(883,203,o),
(630,203,cs)
);
}
);
width = 1260;
}
);
unicode = 79;
},
{
glyphname = P;
lastChange = "2023-12-02 23:46:24 +0000";
layers = (
{
layerId = master01;
shapes = (
{
closed = 1;
nodes = (
(163,0,l),
(163,590,l),
(152,565,l),
(329,565,ls),
(445,565,o),
(488,519,o),
(488,425,cs),
(488,331,o),
(445,295,o),
(329,295,cs),
(140,295,l),
(140,200,l),
(329,200,ls),
(510,200,o),
(588,271,o),
(588,425,cs),
(588,579,o),
(510,650,o),
(329,650,cs),
(70,650,l),
(70,0,l)
);
}
);
width = 623;
},
{
layerId = m002;
shapes = (
{
closed = 1;
nodes = (
(163,0,l),
(163,590,l),
(152,565,l),
(329,565,ls),
(445,565,o),
(488,519,o),
(488,425,cs),
(488,331,o),
(445,295,o),
(329,295,cs),
(140,295,l),
(140,200,l),
(329,200,ls),
(510,200,o),
(588,271,o),
(588,425,cs),
(588,579,o),
(510,650,o),
(329,650,cs),
(70,650,l),
(70,0,l)
);
}
);
width = 623;
},
{
layerId = m003;
shapes = (
{
closed = 1;
nodes = (
(163,0,l),
(163,590,l),
(152,565,l),
(329,565,ls),
(445,565,o),
(488,519,o),
(488,425,cs),
(488,331,o),
(445,295,o),
(329,295,cs),
(140,295,l),
(140,200,l),
(329,200,ls),
(510,200,o),
(588,271,o),
(588,425,cs),
(588,579,o),
(510,650,o),
(329,650,cs),
(70,650,l),
(70,0,l)
);
}
);
width = 623;
},
{
layerId = m004;
shapes = (
{
closed = 1;
nodes = (
(163,0,l),
(163,590,l),
(152,565,l),
(329,565,ls),
(445,565,o),
(488,519,o),
(488,425,cs),
(488,331,o),
(445,295,o),
(329,295,cs),
(140,295,l),
(140,200,l),
(329,200,ls),
(510,200,o),
(588,271,o),
(588,425,cs),
(588,579,o),
(510,650,o),
(329,650,cs),
(70,650,l),
(70,0,l)
);
}
);
width = 623;
}
);
metricLeft = H;
unicode = 80;
},
{
glyphname = Q;
lastChange = "2023-12-02 23:46:24 +0000";
layers = (
{
layerId = master01;
shapes = (
{
closed = 1;
nodes = (
(571,-170,l),
(428,12,l),
(330,12,l),
(457,-170,l)
);
},
{
ref = O;
}
);
width = 710;
},
{
layerId = m002;
shapes = (
{
closed = 1;
nodes = (
(571,-170,l),
(428,12,l),
(330,12,l),
(457,-170,l)
);
},
{
ref = O;
}
);
width = 710;
},
{
layerId = m003;
shapes = (
{
closed = 1;
nodes = (
(571,-170,l),
(428,12,l),
(330,12,l),
(457,-170,l)
);
},
{
ref = O;
}
);
width = 710;
},
{
layerId = m004;
shapes = (
{
closed = 1;
nodes = (
(571,-170,l),
(428,12,l),
(330,12,l),
(457,-170,l)
);
},
{
ref = O;
}
);
width = 710;
}
);
metricLeft = O;
metricRight = O;
unicode = 81;
},
{
glyphname = R;
lastChange = "2023-12-03 00:21:32 +0000";
layers = (
{
background = {
shapes = (
{
closed = 1;
nodes = (
(147,277,l),
(147,180,l),
(299,180,ls),
(502,180,o),
(578,244,o),
(578,415,cs),
(578,586,o),
(502,650,o),
(299,650,cs),
(70,650,l),
(70,0,l),
(173,0,l),
(173,590,l),
(152,553,l),
(299,553,ls),
(429,553,o),
(478,515,o),
(478,415,cs),
(478,315,o),
(429,277,o),
(299,277,cs)
);
}
);
};
layerId = master01;
shapes = (
{
closed = 1;
nodes = (
(173,0,l),
(173,590,l),
(152,555,l),
(339,555,ls),
(455,555,o),
(498,523,o),
(498,440,cs),
(498,357,o),
(455,325,o),
(339,325,cs),
(147,325,l),
(147,230,l),
(364,230,l),
(364,240,l),
(528,240,o),
(598,304,o),
(598,442,cs),
(598,584,o),
(520,650,o),
(339,650,cs),
(70,650,l),
(70,0,l)
);
},
{
closed = 1;
nodes = (
(622,0,l),
(441,275,l),
(318,275,l),
(495,0,l)
);
}
);
width = 652;
},
{
background = {
shapes = (
{
closed = 1;
nodes = (
(147,277,l),
(147,180,l),
(299,180,ls),
(502,180,o),
(578,244,o),
(578,415,cs),
(578,586,o),
(502,650,o),
(299,650,cs),
(70,650,l),
(70,0,l),
(173,0,l),
(173,590,l),
(152,553,l),
(299,553,ls),
(429,553,o),
(478,515,o),
(478,415,cs),
(478,315,o),
(429,277,o),
(299,277,cs)
);
}
);
};
layerId = m002;
shapes = (
{
closed = 1;
nodes = (
(273,0,l),
(273,590,l),
(152,505,l),
(339,505,ls),
(383,505,o),
(398,456,o),
(398,420,cs),
(398,334,o),
(383,325,o),
(339,325,cs),
(147,325,l),
(147,180,l),
(364,180,l),
(364,190,l),
(602,190,o),
(698,254,o),
(698,422,cs),
(698,584,o),
(585,650,o),
(339,650,cs),
(-30,650,l),
(-30,0,l)
);
},
{
closed = 1;
nodes = (
(762,0,l),
(581,235,l),
(318,235,l),
(495,0,l)
);
}
);
width = 652;
},
{
layerId = m003;
shapes = (
{
closed = 1;
nodes = (
(173,0,l),
(173,590,l),
(152,555,l),
(839,555,ls),
(955,555,o),
(998,523,o),
(998,440,cs),
(998,357,o),
(955,325,o),
(839,325,cs),
(147,325,l),
(147,230,l),
(864,230,l),
(864,240,l),
(1028,240,o),
(1098,304,o),
(1098,442,cs),
(1098,584,o),
(1020,650,o),
(839,650,cs),
(70,650,l),
(70,0,l)
);
},
{
closed = 1;
nodes = (
(1122,0,l),
(941,275,l),
(818,275,l),
(995,0,l)
);
}
);
width = 1142;
},
{
background = {
shapes = (
{
closed = 1;
nodes = (
(752,277,l),
(752,180,l),
(904,180,ls),
(1107,180,o),
(1183,244,o),
(1183,415,cs),
(1183,586,o),
(1107,650,o),
(904,650,cs),
(675,650,l),
(675,0,l),
(778,0,l),
(778,590,l),
(757,553,l),
(904,553,ls),
(1034,553,o),
(1083,515,o),
(1083,415,cs),
(1083,315,o),
(1034,277,o),
(904,277,cs)
);
}
);
};
layerId = m004;
shapes = (
{
closed = 1;
nodes = (
(378,0,l),
(378,590,l),
(257,505,l),
(944,505,ls),
(988,505,o),
(1003,456,o),
(1003,420,cs),
(1003,334,o),
(988,325,o),
(944,325,cs),
(252,325,l),
(252,180,l),
(969,180,l),
(969,190,l),
(1207,190,o),
(1303,254,o),
(1303,422,cs),
(1303,584,o),
(1190,650,o),
(944,650,cs),
(75,650,l),
(75,0,l)
);
},
{
closed = 1;
nodes = (
(1367,0,l),
(1186,235,l),
(923,235,l),
(1100,0,l)
);
}
);
width = 1397;
},
{
associatedMasterId = master01;
attr = {
coordinates = (
200,
500,
500
);
};
background = {
shapes = (
{
closed = 1;
nodes = (
(147,277,l),
(147,180,l),
(299,180,ls),
(502,180,o),
(578,244,o),
(578,415,cs),
(578,586,o),
(502,650,o),
(299,650,cs),
(70,650,l),
(70,0,l),
(173,0,l),
(173,590,l),
(152,553,l),
(299,553,ls),
(429,553,o),
(478,515,o),
(478,415,cs),
(478,315,o),
(429,277,o),
(299,277,cs)
);
}
);
};
layerId = "2F2996DF-76CC-498A-8341-C3457A7691CC";
name = "2 de dic de 23 18:15";
shapes = (
{
closed = 1;
nodes = (
(173,0,l),
(173,590,l),
(152,555,l),
(339,555,ls),
(450,555,o),
(498,499,o),
(498,370,cs),
(498,227,o),
(450,165,o),
(339,165,cs),
(147,165,l),
(147,70,l),
(364,70,l),
(364,80,l),
(527,80,o),
(598,169,o),
(598,372,cs),
(598,565,o),
(519,650,o),
(339,650,cs),
(70,650,l),
(70,0,l)
);
},
{
closed = 1;
nodes = (
(558,0,l),
(402,165,l),
(286,149,l),
(424,0,l)
);
}
);
visible = 1;
width = 652;
},
{
associatedMasterId = m002;
attr = {
coordinates = (
1200,
500,
500
);
};
background = {
shapes = (
{
closed = 1;
nodes = (
(147,277,l),
(147,180,l),
(299,180,ls),
(502,180,o),
(578,244,o),
(578,415,cs),
(578,586,o),
(502,650,o),
(299,650,cs),
(70,650,l),
(70,0,l),
(173,0,l),
(173,590,l),
(152,553,l),
(299,553,ls),
(429,553,o),
(478,515,o),
(478,415,cs),
(478,315,o),
(429,277,o),
(299,277,cs)
);
}
);
};
layerId = "A4E6117B-7502-4712-88BE-4BBC2FD53FF2";
name = "2 de dic de 23 18:16";
shapes = (
{
closed = 1;
nodes = (
(273,0,l),
(273,590,l),
(152,505,l),
(339,505,ls),
(383,505,o),
(398,462,o),
(398,334,cs),
(398,230,o),
(383,195,o),
(339,195,cs),
(147,195,l),
(147,50,l),
(464,50,l),
(464,134,l),
(615,134,o),
(698,152,o),
(698,366,cs),
(698,579,o),
(608,650,o),
(339,650,cs),
(-30,650,l),
(-30,0,l)
);
},
{
closed = 1;
nodes = (
(762,0,l),
(608,173,l),
(361,155,l),
(495,0,l)
);
}
);
width = 652;
},
{
associatedMasterId = m004;
attr = {
coordinates = (
1200,
1000,
500
);
};
background = {
shapes = (
{
closed = 1;
nodes = (
(252,277,l),
(252,180,l),
(404,180,ls),
(607,180,o),
(683,244,o),
(683,415,cs),
(683,586,o),
(607,650,o),
(404,650,cs),
(175,650,l),
(175,0,l),
(278,0,l),
(278,590,l),
(257,553,l),
(404,553,ls),
(534,553,o),
(583,515,o),
(583,415,cs),
(583,315,o),
(534,277,o),
(404,277,cs)
);
}
);
};
layerId = "F50D2F7A-2A11-420C-BA68-FDE5A04AC182";
name = "2 de dic de 23 18:19";
shapes = (
{
closed = 1;
nodes = (
(378,0,l),
(378,590,l),
(257,505,l),
(444,505,ls),
(488,505,o),
(503,462,o),
(503,334,cs),
(503,230,o),
(488,195,o),
(444,195,cs),
(252,195,l),
(252,50,l),
(569,50,l),
(569,134,l),
(720,134,o),
(803,152,o),
(803,366,cs),
(803,579,o),
(713,650,o),
(444,650,cs),
(75,650,l),
(75,0,l)
);
},
{
closed = 1;
nodes = (
(867,0,l),
(713,173,l),
(466,155,l),
(600,0,l)
);
}
);
width = 897;
},
{
associatedMasterId = m003;
attr = {
coordinates = (
200,
1000,
500
);
};
layerId = "E1D93B56-98DE-407A-9A4C-D6A9BDB3204A";
name = "2 de dic de 23 18:20";
shapes = (
{
closed = 1;
nodes = (
(173,0,l),
(173,590,l),
(152,555,l),
(839,555,ls),
(955,555,o),
(998,523,o),
(998,345,cs),
(998,199,o),
(955,167,o),
(839,167,cs),
(147,167,l),
(147,72,l),
(864,72,l),
(864,82,l),
(1028,82,o),
(1098,146,o),
(1098,347,cs),
(1098,584,o),
(1020,650,o),
(839,650,cs),
(70,650,l),
(70,0,l)
);
},
{
closed = 1;
nodes = (
(1122,0,l),
(941,117,l),
(778,117,l),
(955,0,l)
);
}
);
width = 1142;
}
);
metricLeft = H;
unicode = 82;
},
{
glyphname = S;
lastChange = "2023-12-02 23:46:24 +0000";
layers = (
{
guides = (
{
pos = (554,570);
},
{
pos = (282,80);
}
);
layerId = master01;
shapes = (
{
closed = 1;
nodes = (
(521,-15,o),
(600,47,o),
(600,185,cs),
(600,335,o),
(506,361,o),
(325,388,cs),
(202,406,o),
(161,438,o),
(161,493,cs),
(161,549,o),
(208,580,o),
(317,580,cs),
(431,580,o),
(480,552,o),
(480,477,c),
(580,477,l),
(580,621,o),
(506,675,o),
(323,675,cs),
(137,675,o),
(61,606,o),
(61,485,cs),
(61,383,o),
(116,317,o),
(323,285,cs),
(460,264,o),
(500,247,o),
(500,183,cs),
(500,115,o),
(449,80,o),
(327,80,cs),
(202,80,o),
(150,117,o),
(150,215,c),
(50,215,l),
(50,47,o),
(129,-15,o),
(327,-15,cs)
);
}
);
width = 650;
},
{
guides = (
{
pos = (925,570);
},
{
pos = (653,80);
}
);
layerId = m002;
shapes = (
{
closed = 1;
nodes = (
(892,-15,o),
(1242,47,o),
(1242,185,cs),
(1242,388,o),
(877,361,o),
(696,388,cs),
(573,406,o),
(532,370,o),
(532,425,cs),
(532,447,o),
(579,445,o),
(633,445,cs),
(717,445,o),
(758,434,o),
(758,403,c),
(1312,434,l),
(1312,578,o),
(877,675,o),
(694,675,cs),
(253,675,o),
(153,621,o),
(153,448,cs),
(153,324,o),
(318,353,o),
(514,266,cs),
(651,205,o),
(691,258,o),
(691,235,cs),
(691,167,o),
(640,186,o),
(518,186,cs),
(393,186,o),
(393,154,o),
(393,252,c),
(30,271,l),
(30,103,o),
(500,-15,o),
(698,-15,cs)
);
}
);
width = 1021;
},
{
guides = (
{
pos = (554,570);
},
{
pos = (282,80);
}
);
layerId = m003;
shapes = (
{
closed = 1;
nodes = (
(521,-15,o),
(600,47,o),
(600,185,cs),
(600,335,o),
(506,361,o),
(325,388,cs),
(202,406,o),
(161,438,o),
(161,493,cs),
(161,549,o),
(208,580,o),
(317,580,cs),
(431,580,o),
(480,552,o),
(480,477,c),
(580,477,l),
(580,621,o),
(506,675,o),
(323,675,cs),
(137,675,o),
(61,606,o),
(61,485,cs),
(61,383,o),
(116,317,o),
(323,285,cs),
(460,264,o),
(500,247,o),
(500,183,cs),
(500,115,o),
(449,80,o),
(327,80,cs),
(202,80,o),
(150,117,o),
(150,215,c),
(50,215,l),
(50,47,o),
(129,-15,o),
(327,-15,cs)
);
}
);
width = 650;
},
{
guides = (
{
pos = (925,570);
},
{
pos = (653,80);
}
);
layerId = m004;
shapes = (
{
closed = 1;
nodes = (
(892,-15,o),
(1242,47,o),
(1242,185,cs),
(1242,388,o),
(877,361,o),
(696,388,cs),
(573,406,o),
(532,370,o),
(532,425,cs),
(532,447,o),
(579,445,o),
(633,445,cs),
(717,445,o),
(758,434,o),
(758,403,c),
(1312,434,l),
(1312,578,o),
(877,675,o),
(694,675,cs),
(253,675,o),
(153,621,o),
(153,448,cs),
(153,324,o),
(318,353,o),
(514,266,cs),
(651,205,o),
(691,258,o),
(691,235,cs),
(691,167,o),
(640,186,o),
(518,186,cs),
(393,186,o),
(393,154,o),
(393,252,c),
(30,271,l),
(30,103,o),
(500,-15,o),
(698,-15,cs)
);
}
);
width = 1021;
}
);
unicode = 83;
},
{
glyphname = T;
lastChange = "2023-12-02 23:46:24 +0000";
layers = (
{
layerId = master01;
shapes = (
{
closed = 1;
nodes = (
(339,0,l),
(339,610,l),
(235,610,l),
(235,0,l)
);
},
{
closed = 1;
nodes = (
(564,555,l),
(564,650,l),
(10,650,l),
(10,555,l)
);
}
);
width = 574;
},
{
layerId = m002;
shapes = (
{
closed = 1;
nodes = (
(439,0,l),
(439,610,l),
(135,610,l),
(135,0,l)
);
},
{
closed = 1;
nodes = (
(564,475,l),
(564,650,l),
(10,650,l),
(10,475,l)
);
}
);
width = 574;
},
{
layerId = m003;
shapes = (
{
closed = 1;
nodes = (
(339,0,l),
(339,610,l),
(235,610,l),
(235,0,l)
);
},
{
closed = 1;
nodes = (
(564,555,l),
(564,650,l),
(10,650,l),
(10,555,l)
);
}
);
width = 574;
},
{
layerId = m004;
shapes = (
{
closed = 1;
nodes = (
(439,0,l),
(439,610,l),
(135,610,l),
(135,0,l)
);
},
{
closed = 1;
nodes = (
(564,475,l),
(564,650,l),
(10,650,l),
(10,475,l)
);
}
);
width = 574;
}
);
unicode = 84;
},
{
glyphname = U;
lastChange = "2023-12-02 23:46:24 +0000";
layers = (
{
anchors = (
{
name = top;
pos = (345,650);
}
);
layerId = master01;
shapes = (
{
closed = 1;
nodes = (
(580,-15,o),
(625,115,o),
(625,264,cs),
(625,650,l),
(523,650,l),
(523,274,ls),
(523,133,o),
(477,80,o),
(345,80,cs),
(213,80,o),
(167,133,o),
(167,274,cs),
(167,650,l),
(65,650,l),
(65,264,ls),
(65,115,o),
(110,-15,o),
(345,-15,cs)
);
}
);
width = 690;
},
{
anchors = (
{
name = top;
pos = (345,650);
}
);
layerId = m002;
shapes = (
{
closed = 1;
nodes = (
(580,-15,o),
(625,115,o),
(625,264,cs),
(625,650,l),
(523,650,l),
(523,274,ls),
(523,133,o),
(477,80,o),
(345,80,cs),
(213,80,o),
(167,133,o),
(167,274,cs),
(167,650,l),
(65,650,l),
(65,264,ls),
(65,115,o),
(110,-15,o),
(345,-15,cs)
);
}
);
width = 690;
},
{
anchors = (
{
name = top;
pos = (345,650);
}
);
layerId = m003;
shapes = (
{
closed = 1;
nodes = (
(580,-15,o),
(625,115,o),
(625,264,cs),
(625,650,l),
(523,650,l),
(523,274,ls),
(523,133,o),
(477,80,o),
(345,80,cs),
(213,80,o),
(167,133,o),
(167,274,cs),
(167,650,l),
(65,650,l),
(65,264,ls),
(65,115,o),
(110,-15,o),
(345,-15,cs)
);
}
);
width = 690;
},
{
anchors = (
{
name = top;
pos = (345,650);
}
);
layerId = m004;
shapes = (
{
closed = 1;
nodes = (
(580,-15,o),
(625,115,o),
(625,264,cs),
(625,650,l),
(523,650,l),
(523,274,ls),
(523,133,o),
(477,80,o),
(345,80,cs),
(213,80,o),
(167,133,o),
(167,274,cs),
(167,650,l),
(65,650,l),
(65,264,ls),
(65,115,o),
(110,-15,o),
(345,-15,cs)
);
}
);
width = 690;
}
);
metricLeft = "=H-5";
metricRight = "=H-5";
unicode = 85;
},
{
glyphname = V;
lastChange = "2023-12-02 23:46:24 +0000";
layers = (
{
layerId = master01;
shapes = (
{
closed = 1;
nodes = (
(400,0,l),
(640,650,l),
(522,650,l),
(310,34,l),
(340,34,l),
(128,650,l),
(10,650,l),
(250,0,l)
);
}
);
width = 650;
},
{
layerId = m002;
shapes = (
{
closed = 1;
nodes = (
(400,0,l),
(640,650,l),
(522,650,l),
(310,34,l),
(340,34,l),
(128,650,l),
(10,650,l),
(250,0,l)
);
}
);
width = 650;
},
{
layerId = m003;
shapes = (
{
closed = 1;
nodes = (
(400,0,l),
(640,650,l),
(522,650,l),
(310,34,l),
(340,34,l),
(128,650,l),
(10,650,l),
(250,0,l)
);
}
);
width = 650;
},
{
layerId = m004;
shapes = (
{
closed = 1;
nodes = (
(400,0,l),
(640,650,l),
(522,650,l),
(310,34,l),
(340,34,l),
(128,650,l),
(10,650,l),
(250,0,l)
);
}
);
width = 650;
}
);
unicode = 86;
},
{
glyphname = W;
lastChange = "2023-12-02 23:46:24 +0000";
layers = (
{
guides = (
{
pos = (-278,90);
}
);
layerId = master01;
shapes = (
{
closed = 1;
nodes = (
(347,0,l),
(498,617,l),
(476,617,l),
(627,0,l),
(779,0,l),
(964,650,l),
(853,650,l),
(693,33,l),
(714,33,l),
(570,650,l),
(404,650,l),
(260,33,l),
(281,33,l),
(121,650,l),
(10,650,l),
(190,0,l)
);
}
);
width = 974;
},
{
guides = (
{
pos = (-278,90);
}
);
layerId = m002;
shapes = (
{
closed = 1;
nodes = (
(347,0,l),
(498,617,l),
(476,617,l),
(627,0,l),
(779,0,l),
(964,650,l),
(853,650,l),
(693,33,l),
(714,33,l),
(570,650,l),
(404,650,l),
(260,33,l),
(281,33,l),
(121,650,l),
(10,650,l),
(190,0,l)
);
}
);
width = 974;
},
{
guides = (
{
pos = (-278,90);
}
);
layerId = m003;
shapes = (
{
closed = 1;
nodes = (
(347,0,l),
(498,617,l),
(476,617,l),
(627,0,l),
(779,0,l),
(964,650,l),
(853,650,l),
(693,33,l),
(714,33,l),
(570,650,l),
(404,650,l),
(260,33,l),
(281,33,l),
(121,650,l),
(10,650,l),
(190,0,l)
);
}
);
width = 974;
},
{
guides = (
{
pos = (-278,90);
}
);
layerId = m004;
shapes = (
{
closed = 1;
nodes = (
(347,0,l),
(498,617,l),
(476,617,l),
(627,0,l),
(779,0,l),
(964,650,l),
(853,650,l),
(693,33,l),
(714,33,l),
(570,650,l),
(404,650,l),
(260,33,l),
(281,33,l),
(121,650,l),
(10,650,l),
(190,0,l)
);
}
);
width = 974;
}
);
metricLeft = V;
metricRight = V;
unicode = 87;
},
{
glyphname = X;
lastChange = "2023-12-02 23:46:24 +0000";
layers = (
{
guides = (
{
pos = (473,344);
}
);
layerId = master01;
shapes = (
{
closed = 1;
nodes = (
(629,0,l),
(154,650,l),
(30,650,l),
(505,0,l)
);
},
{
closed = 1;
nodes = (
(133,0,l),
(326,283,l),
(263,356,l),
(10,0,l)
);
},
{
closed = 1;
nodes = (
(604,650,l),
(479,650,l),
(310,400,l),
(372,328,l)
);
}
);
width = 634;
},
{
guides = (
{
pos = (473,344);
}
);
layerId = m002;
shapes = (
{
closed = 1;
nodes = (
(629,0,l),
(154,650,l),
(30,650,l),
(505,0,l)
);
},
{
closed = 1;
nodes = (
(133,0,l),
(326,283,l),
(263,356,l),
(10,0,l)
);
},
{
closed = 1;
nodes = (
(604,650,l),
(479,650,l),
(310,400,l),
(372,328,l)
);
}
);
width = 634;
},
{
guides = (
{
pos = (473,344);
}
);
layerId = m003;
shapes = (
{
closed = 1;
nodes = (
(629,0,l),
(154,650,l),
(30,650,l),
(505,0,l)
);
},
{
closed = 1;
nodes = (
(133,0,l),
(326,283,l),
(263,356,l),
(10,0,l)
);
},
{
closed = 1;
nodes = (
(604,650,l),
(479,650,l),
(310,400,l),
(372,328,l)
);
}
);
width = 634;
},
{
guides = (
{
pos = (473,344);
}
);
layerId = m004;
shapes = (
{
closed = 1;
nodes = (
(629,0,l),
(154,650,l),
(30,650,l),
(505,0,l)
);
},
{
closed = 1;
nodes = (
(133,0,l),
(326,283,l),
(263,356,l),
(10,0,l)
);
},
{
closed = 1;
nodes = (
(604,650,l),
(479,650,l),
(310,400,l),
(372,328,l)
);
}
);
width = 634;
}
);
unicode = 88;
},
{
glyphname = Y;
lastChange = "2023-12-02 23:46:24 +0000";
layers = (
{
layerId = master01;
shapes = (
{
closed = 1;
nodes = (
(352,0,l),
(352,269,l),
(329,185,l),
(599,650,l),
(480,650,l),
(270,263,l),
(334,263,l),
(124,650,l),
(5,650,l),
(275,185,l),
(252,269,l),
(250,0,l)
);
}
);
width = 604;
},
{
layerId = m002;
shapes = (
{
closed = 1;
nodes = (
(352,0,l),
(352,269,l),
(329,185,l),
(599,650,l),
(480,650,l),
(270,263,l),
(334,263,l),
(124,650,l),
(5,650,l),
(275,185,l),
(252,269,l),
(250,0,l)
);
}
);
width = 604;
},
{
layerId = m003;
shapes = (
{
closed = 1;
nodes = (
(352,0,l),
(352,269,l),
(329,185,l),
(599,650,l),
(480,650,l),
(270,263,l),
(334,263,l),
(124,650,l),
(5,650,l),
(275,185,l),
(252,269,l),
(250,0,l)
);
}
);
width = 604;
},
{
layerId = m004;
shapes = (
{
closed = 1;
nodes = (
(352,0,l),
(352,269,l),
(329,185,l),
(599,650,l),
(480,650,l),
(270,263,l),
(334,263,l),
(124,650,l),
(5,650,l),
(275,185,l),
(252,269,l),
(250,0,l)
);
}
);
width = 604;
}
);
unicode = 89;
},
{
glyphname = Z;
lastChange = "2023-12-02 23:46:24 +0000";
layers = (
{
layerId = master01;
shapes = (
{
closed = 1;
nodes = (
(555,0,l),
(555,95,l),
(113,95,l),
(129,61,l),
(540,555,l),
(540,650,l),
(35,650,l),
(35,555,l),
(407,555,l),
(30,95,l),
(30,0,l)
);
}
);
width = 580;
},
{
layerId = m002;
shapes = (
{
closed = 1;
nodes = (
(555,0,l),
(555,95,l),
(113,95,l),
(129,61,l),
(540,555,l),
(540,650,l),
(35,650,l),
(35,555,l),
(407,555,l),
(30,95,l),
(30,0,l)
);
}
);
width = 580;
},
{
layerId = m003;
shapes = (
{
closed = 1;
nodes = (
(555,0,l),
(555,95,l),
(113,95,l),
(129,61,l),
(540,555,l),
(540,650,l),
(35,650,l),
(35,555,l),
(407,555,l),
(30,95,l),
(30,0,l)
);
}
);
width = 580;
},
{
layerId = m004;
shapes = (
{
closed = 1;
nodes = (
(555,0,l),
(555,95,l),
(113,95,l),
(129,61,l),
(540,555,l),
(540,650,l),
(35,650,l),
(35,555,l),
(407,555,l),
(30,95,l),
(30,0,l)
);
}
);
width = 580;
}
);
unicode = 90;
},
{
glyphname = a;
lastChange = "2023-12-02 23:46:24 +0000";
layers = (
{
anchors = (
{
name = top;
pos = (298,500);
}
);
background = {
shapes = (
{
closed = 0;
nodes = (
(473,303,l),
(473,303,o),
(473,217,o),
(473,217,c)
);
}
);
};
layerId = master01;
shapes = (
{
closed = 1;
nodes = (
(408,-15,o),
(462,45,o),
(462,173,c),
(448,143,l),
(448,0,l),
(528,0,l),
(528,287,ls),
(528,453,o),
(466,515,o),
(298,515,cs),
(164,515,o),
(96,471,o),
(78,368,c),
(178,368,l),
(191,411,o),
(231,427,o),
(296,427,cs),
(395,427,o),
(433,393,o),
(433,303,cs),
(433,210,ls),
(433,109,o),
(394,73,o),
(293,73,cs),
(183,73,o),
(155,93,o),
(155,143,cs),
(155,193,o),
(183,210,o),
(294,210,cs),
(457,210,l),
(457,292,l),
(275,292,ls),
(128,292,o),
(60,264,o),
(60,143,cs),
(60,22,o),
(128,-15,o),
(275,-15,cs)
);
}
);
width = 593;
},
{
anchors = (
{
name = top;
pos = (368,500);
}
);
background = {
shapes = (
{
closed = 0;
nodes = (
(543,303,l),
(543,303,o),
(543,217,o),
(543,217,c)
);
}
);
};
layerId = m002;
shapes = (
{
closed = 1;
nodes = (
(424,-15,o),
(532,45,o),
(532,173,c),
(518,143,l),
(518,0,l),
(748,0,l),
(748,287,ls),
(748,453,o),
(536,515,o),
(368,515,cs),
(234,515,o),
(95,455,o),
(56,416,c),
(184,292,l),
(200,313,o),
(274,336,o),
(341,336,cs),
(400,336,o),
(453,318,o),
(453,264,cs),
(453,230,ls),
(453,165,o),
(446,143,o),
(430,143,cs),
(390,143,o),
(386,139,o),
(386,172,cs),
(386,204,o),
(386,207,o),
(439,206,cs),
(527,205,l),
(527,331,l),
(345,331,ls),
(98,331,o),
(30,266,o),
(30,153,cs),
(30,7,o),
(144,-15,o),
(268,-15,cs)
);
}
);
width = 813;
},
{
anchors = (
{
name = top;
pos = (298,500);
}
);
associatedMasterId = master01;
attr = {
axisRules = (
{
max = 1200;
min = 900;
},
{
},
{
}
);
};
background = {
shapes = (
{
closed = 0;
nodes = (
(473,303,l),
(473,303,o),
(473,217,o),
(473,217,c)
);
}
);
};
layerId = "6DD1CB10-0095-400B-9DD1-8707208D55FF";
name = "2 de dic de 23 17:37";
shapes = (
{
closed = 1;
nodes = (
(408,-15,o),
(528,45,o),
(528,173,c),
(528,287,l),
(528,453,o),
(466,515,o),
(298,515,cs),
(164,515,o),
(96,471,o),
(78,368,c),
(178,368,l),
(191,411,o),
(231,427,o),
(296,427,cs),
(395,427,o),
(433,393,o),
(433,303,cs),
(433,210,ls),
(433,109,o),
(394,73,o),
(293,73,cs),
(183,73,o),
(155,93,o),
(155,143,cs),
(155,193,o),
(183,210,o),
(294,210,cs),
(457,210,l),
(457,292,l),
(275,292,ls),
(128,292,o),
(60,264,o),
(60,143,cs),
(60,22,o),
(128,-15,o),
(275,-15,cs)
);
}
);
width = 593;
},
{
anchors = (
{
name = top;
pos = (368,500);
}
);
associatedMasterId = m002;
attr = {
axisRules = (
{
max = 1200;
min = 900;
},
{
},
{
}
);
};
background = {
shapes = (
{
closed = 0;
nodes = (
(543,303,l),
(543,303,o),
(543,217,o),
(543,217,c)
);
}
);
};
layerId = "6944F716-0250-401F-AFB3-2A8321279ECC";
name = "2 de dic de 23 17:38";
shapes = (
{
closed = 1;
nodes = (
(661,-15,o),
(748,45,o),
(748,224,cs),
(748,287,ls),
(748,453,o),
(536,515,o),
(368,515,cs),
(234,515,o),
(95,455,o),
(56,416,c),
(184,292,l),
(200,313,o),
(274,336,o),
(341,336,cs),
(400,336,o),
(453,318,o),
(453,264,cs),
(453,230,ls),
(453,165,o),
(446,143,o),
(424,143,cs),
(390,143,o),
(386,139,o),
(386,172,cs),
(386,204,o),
(386,206,o),
(424,206,cs),
(527,205,l),
(527,270,l),
(345,270,ls),
(98,270,o),
(30,233,o),
(30,143,cs),
(30,7,o),
(144,-15,o),
(398,-15,cs)
);
}
);
width = 813;
},
{
anchors = (
{
name = top;
pos = (298,500);
}
);
background = {
shapes = (
{
closed = 0;
nodes = (
(473,303,l),
(473,303,o),
(473,217,o),
(473,217,c)
);
}
);
};
layerId = m003;
shapes = (
{
closed = 1;
nodes = (
(408,-15,o),
(462,45,o),
(462,173,c),
(448,143,l),
(448,0,l),
(528,0,l),
(528,287,ls),
(528,453,o),
(466,515,o),
(298,515,cs),
(164,515,o),
(96,471,o),
(78,368,c),
(178,368,l),
(191,411,o),
(231,427,o),
(296,427,cs),
(395,427,o),
(433,393,o),
(433,303,cs),
(433,210,ls),
(433,109,o),
(394,73,o),
(293,73,cs),
(183,73,o),
(155,93,o),
(155,143,cs),
(155,193,o),
(183,210,o),
(294,210,cs),
(457,210,l),
(457,292,l),
(275,292,ls),
(128,292,o),
(60,264,o),
(60,143,cs),
(60,22,o),
(128,-15,o),
(275,-15,cs)
);
}
);
width = 593;
},
{
anchors = (
{
name = top;
pos = (298,500);
}
);
associatedMasterId = m003;
attr = {
axisRules = (
{
max = 1200;
min = 900;
},
{
},
{
}
);
};
background = {
shapes = (
{
closed = 0;
nodes = (
(473,303,l),
(473,303,o),
(473,217,o),
(473,217,c)
);
}
);
};
layerId = "09E06211-AEA4-440E-8E9E-7CFA4F57DC62";
name = "2 de dic de 23 17:37";
shapes = (
{
closed = 1;
nodes = (
(408,-15,o),
(528,45,o),
(528,173,c),
(528,287,l),
(528,453,o),
(466,515,o),
(298,515,cs),
(164,515,o),
(96,471,o),
(78,368,c),
(178,368,l),
(191,411,o),
(231,427,o),
(296,427,cs),
(395,427,o),
(433,393,o),
(433,303,cs),
(433,210,ls),
(433,109,o),
(394,73,o),
(293,73,cs),
(183,73,o),
(155,93,o),
(155,143,cs),
(155,193,o),
(183,210,o),
(294,210,cs),
(457,210,l),
(457,292,l),
(275,292,ls),
(128,292,o),
(60,264,o),
(60,143,cs),
(60,22,o),
(128,-15,o),
(275,-15,cs)
);
}
);
width = 593;
},
{
anchors = (
{
name = top;
pos = (368,500);
}
);
background = {
shapes = (
{
closed = 0;
nodes = (
(543,303,l),
(543,303,o),
(543,217,o),
(543,217,c)
);
}
);
};
layerId = m004;
shapes = (
{
closed = 1;
nodes = (
(424,-15,o),
(532,45,o),
(532,173,c),
(518,143,l),
(518,0,l),
(748,0,l),
(748,287,ls),
(748,453,o),
(536,515,o),
(368,515,cs),
(234,515,o),
(95,455,o),
(56,416,c),
(184,292,l),
(200,313,o),
(274,336,o),
(341,336,cs),
(400,336,o),
(453,318,o),
(453,264,cs),
(453,230,ls),
(453,165,o),
(446,143,o),
(430,143,cs),
(390,143,o),
(386,139,o),
(386,172,cs),
(386,204,o),
(386,207,o),
(439,206,cs),
(527,205,l),
(527,331,l),
(345,331,ls),
(98,331,o),
(30,266,o),
(30,153,cs),
(30,7,o),
(144,-15,o),
(268,-15,cs)
);
}
);
width = 813;
},
{
anchors = (
{
name = top;
pos = (368,500);
}
);
associatedMasterId = m004;
attr = {
axisRules = (
{
max = 1200;
min = 900;
},
{
},
{
}
);
};
background = {
shapes = (
{
closed = 0;
nodes = (
(543,303,l),
(543,303,o),
(543,217,o),
(543,217,c)
);
}
);
};
layerId = "3736BCE5-C65D-4C5B-AABF-305294B6CB83";
name = "2 de dic de 23 17:38";
shapes = (
{
closed = 1;
nodes = (
(661,-15,o),
(748,45,o),
(748,224,cs),
(748,287,ls),
(748,453,o),
(536,515,o),
(368,515,cs),
(234,515,o),
(95,455,o),
(56,416,c),
(184,292,l),
(200,313,o),
(274,336,o),
(341,336,cs),
(400,336,o),
(453,318,o),
(453,264,cs),
(453,230,ls),
(453,165,o),
(446,143,o),
(424,143,cs),
(390,143,o),
(386,139,o),
(386,172,cs),
(386,204,o),
(386,206,o),
(424,206,cs),
(527,205,l),
(527,270,l),
(345,270,ls),
(98,270,o),
(30,233,o),
(30,143,cs),
(30,7,o),
(144,-15,o),
(398,-15,cs)
);
}
);
width = 813;
}
);
metricRight = n;
unicode = 97;
},
{
glyphname = c;
lastChange = "2023-12-02 23:46:24 +0000";
layers = (
{
layerId = master01;
shapes = (
{
closed = 1;
nodes = (
(423,-15,o),
(493,27,o),
(510,132,c),
(412,132,l),
(399,89,o),
(358,73,o),
(288,73,cs),
(179,73,o),
(143,116,o),
(143,250,cs),
(143,384,o),
(179,427,o),
(288,427,cs),
(357,427,o),
(399,411,o),
(412,369,c),
(510,369,l),
(492,473,o),
(422,515,o),
(288,515,cs),
(114,515,o),
(50,443,o),
(50,250,cs),
(50,57,o),
(114,-15,o),
(288,-15,cs)
);
}
);
width = 545;
},
{
layerId = m002;
shapes = (
{
closed = 1;
nodes = (
(423,-15,o),
(493,27,o),
(510,132,c),
(412,132,l),
(399,89,o),
(358,73,o),
(288,73,cs),
(179,73,o),
(143,116,o),
(143,250,cs),
(143,384,o),
(179,427,o),
(288,427,cs),
(357,427,o),
(399,411,o),
(412,369,c),
(510,369,l),
(492,473,o),
(422,515,o),
(288,515,cs),
(114,515,o),
(50,443,o),
(50,250,cs),
(50,57,o),
(114,-15,o),
(288,-15,cs)
);
}
);
width = 545;
},
{
layerId = m003;
shapes = (
{
closed = 1;
nodes = (
(423,-15,o),
(493,27,o),
(510,132,c),
(412,132,l),
(399,89,o),
(358,73,o),
(288,73,cs),
(179,73,o),
(143,116,o),
(143,250,cs),
(143,384,o),
(179,427,o),
(288,427,cs),
(357,427,o),
(399,411,o),
(412,369,c),
(510,369,l),
(492,473,o),
(422,515,o),
(288,515,cs),
(114,515,o),
(50,443,o),
(50,250,cs),
(50,57,o),
(114,-15,o),
(288,-15,cs)
);
}
);
width = 545;
},
{
layerId = m004;
shapes = (
{
closed = 1;
nodes = (
(423,-15,o),
(493,27,o),
(510,132,c),
(412,132,l),
(399,89,o),
(358,73,o),
(288,73,cs),
(179,73,o),
(143,116,o),
(143,250,cs),
(143,384,o),
(179,427,o),
(288,427,cs),
(357,427,o),
(399,411,o),
(412,369,c),
(510,369,l),
(492,473,o),
(422,515,o),
(288,515,cs),
(114,515,o),
(50,443,o),
(50,250,cs),
(50,57,o),
(114,-15,o),
(288,-15,cs)
);
}
);
width = 545;
}
);
metricLeft = o;
unicode = 99;
},
{
glyphname = d;
lastChange = "2023-12-02 23:46:24 +0000";
layers = (
{
layerId = master01;
shapes = (
{
closed = 1;
nodes = (
(532,0,l),
(532,700,l),
(437,700,l),
(437,496,ls),
(437,461,o),
(443,428,o),
(457,393,c),
(452,103,l),
(452,0,l)
);
},
{
closed = 1;
nodes = (
(422,-15,o),
(473,57,o),
(473,250,cs),
(473,443,o),
(422,515,o),
(285,515,cs),
(114,515,o),
(50,443,o),
(50,250,cs),
(50,57,o),
(114,-15,o),
(285,-15,cs)
);
},
{
closed = 1;
nodes = (
(179,73,o),
(143,116,o),
(143,250,cs),
(143,384,o),
(179,427,o),
(290,427,cs),
(401,427,o),
(437,384,o),
(437,250,cs),
(437,116,o),
(401,73,o),
(290,73,cs)
);
}
);
width = 602;
},
{
layerId = m002;
shapes = (
{
closed = 1;
nodes = (
(532,0,l),
(532,700,l),
(437,700,l),
(437,496,ls),
(437,461,o),
(443,428,o),
(457,393,c),
(452,103,l),
(452,0,l)
);
},
{
closed = 1;
nodes = (
(422,-15,o),
(473,57,o),
(473,250,cs),
(473,443,o),
(422,515,o),
(285,515,cs),
(114,515,o),
(50,443,o),
(50,250,cs),
(50,57,o),
(114,-15,o),
(285,-15,cs)
);
},
{
closed = 1;
nodes = (
(179,73,o),
(143,116,o),
(143,250,cs),
(143,384,o),
(179,427,o),
(290,427,cs),
(401,427,o),
(437,384,o),
(437,250,cs),
(437,116,o),
(401,73,o),
(290,73,cs)
);
}
);
width = 602;
},
{
layerId = m003;
shapes = (
{
closed = 1;
nodes = (
(532,0,l),
(532,700,l),
(437,700,l),
(437,496,ls),
(437,461,o),
(443,428,o),
(457,393,c),
(452,103,l),
(452,0,l)
);
},
{
closed = 1;
nodes = (
(422,-15,o),
(473,57,o),
(473,250,cs),
(473,443,o),
(422,515,o),
(285,515,cs),
(114,515,o),
(50,443,o),
(50,250,cs),
(50,57,o),
(114,-15,o),
(285,-15,cs)
);
},
{
closed = 1;
nodes = (
(179,73,o),
(143,116,o),
(143,250,cs),
(143,384,o),
(179,427,o),
(290,427,cs),
(401,427,o),
(437,384,o),
(437,250,cs),
(437,116,o),
(401,73,o),
(290,73,cs)
);
}
);
width = 602;
},
{
layerId = m004;
shapes = (
{
closed = 1;
nodes = (
(532,0,l),
(532,700,l),
(437,700,l),
(437,496,ls),
(437,461,o),
(443,428,o),
(457,393,c),
(452,103,l),
(452,0,l)
);
},
{
closed = 1;
nodes = (
(422,-15,o),
(473,57,o),
(473,250,cs),
(473,443,o),
(422,515,o),
(285,515,cs),
(114,515,o),
(50,443,o),
(50,250,cs),
(50,57,o),
(114,-15,o),
(285,-15,cs)
);
},
{
closed = 1;
nodes = (
(179,73,o),
(143,116,o),
(143,250,cs),
(143,384,o),
(179,427,o),
(290,427,cs),
(401,427,o),
(437,384,o),
(437,250,cs),
(437,116,o),
(401,73,o),
(290,73,cs)
);
}
);
width = 602;
}
);
metricLeft = o;
metricRight = H;
unicode = 100;
},
{
glyphname = e;
lastChange = "2023-12-02 23:46:24 +0000";
layers = (
{
anchors = (
{
name = top;
pos = (284,500);
}
);
layerId = master01;
shapes = (
{
closed = 1;
nodes = (
(428,-15,o),
(497,27,o),
(516,132,c),
(416,132,l),
(403,89,o),
(362,73,o),
(291,73,cs),
(180,73,o),
(143,113,o),
(143,234,cs),
(143,256,ls),
(143,385,o),
(180,427,o),
(284,427,cs),
(388,427,o),
(416,383,o),
(416,245,cs),
(416,228,l),
(447,290,l),
(123,290,l),
(123,208,l),
(516,208,l),
(516,250,ls),
(516,441,o),
(451,515,o),
(284,515,cs),
(117,515,o),
(50,439,o),
(50,250,cs),
(50,61,o),
(117,-15,o),
(291,-15,cs)
);
}
);
width = 571;
},
{
anchors = (
{
name = top;
pos = (284,500);
}
);
layerId = m002;
shapes = (
{
closed = 1;
nodes = (
(428,-15,o),
(497,27,o),
(516,132,c),
(416,132,l),
(403,89,o),
(362,73,o),
(291,73,cs),
(180,73,o),
(143,113,o),
(143,234,cs),
(143,256,ls),
(143,385,o),
(180,427,o),
(284,427,cs),
(388,427,o),
(416,383,o),
(416,245,cs),
(416,228,l),
(447,290,l),
(123,290,l),
(123,208,l),
(516,208,l),
(516,250,ls),
(516,441,o),
(451,515,o),
(284,515,cs),
(117,515,o),
(50,439,o),
(50,250,cs),
(50,61,o),
(117,-15,o),
(291,-15,cs)
);
}
);
width = 571;
},
{
anchors = (
{
name = top;
pos = (284,500);
}
);
layerId = m003;
shapes = (
{
closed = 1;
nodes = (
(428,-15,o),
(497,27,o),
(516,132,c),
(416,132,l),
(403,89,o),
(362,73,o),
(291,73,cs),
(180,73,o),
(143,113,o),
(143,234,cs),
(143,256,ls),
(143,385,o),
(180,427,o),
(284,427,cs),
(388,427,o),
(416,383,o),
(416,245,cs),
(416,228,l),
(447,290,l),
(123,290,l),
(123,208,l),
(516,208,l),
(516,250,ls),
(516,441,o),
(451,515,o),
(284,515,cs),
(117,515,o),
(50,439,o),
(50,250,cs),
(50,61,o),
(117,-15,o),
(291,-15,cs)
);
}
);
width = 571;
},
{
anchors = (
{
name = top;
pos = (284,500);
}
);
layerId = m004;
shapes = (
{
closed = 1;
nodes = (
(428,-15,o),
(497,27,o),
(516,132,c),
(416,132,l),
(403,89,o),
(362,73,o),
(291,73,cs),
(180,73,o),
(143,113,o),
(143,234,cs),
(143,256,ls),
(143,385,o),
(180,427,o),
(284,427,cs),
(388,427,o),
(416,383,o),
(416,245,cs),
(416,228,l),
(447,290,l),
(123,290,l),
(123,208,l),
(516,208,l),
(516,250,ls),
(516,441,o),
(451,515,o),
(284,515,cs),
(117,515,o),
(50,439,o),
(50,250,cs),
(50,61,o),
(117,-15,o),
(291,-15,cs)
);
}
);
width = 571;
}
);
metricLeft = o;
unicode = 101;
},
{
glyphname = f;
lastChange = "2023-12-02 23:46:24 +0000";
layers = (
{
layerId = master01;
shapes = (
{
closed = 1;
nodes = (
(373,416,l),
(373,500,l),
(30,500,l),
(30,416,l)
);
},
{
closed = 1;
nodes = (
(174,703,o),
(130,661,o),
(130,518,cs),
(130,0,l),
(226,0,l),
(226,520,ls),
(226,591,o),
(244,618,o),
(307,618,cs),
(333,618,o),
(365,616,o),
(388,613,c),
(388,696,l),
(363,699,o),
(331,703,o),
(297,703,cs)
);
}
);
width = 403;
},
{
layerId = m002;
shapes = (
{
closed = 1;
nodes = (
(373,416,l),
(373,500,l),
(30,500,l),
(30,416,l)
);
},
{
closed = 1;
nodes = (
(174,703,o),
(130,661,o),
(130,518,cs),
(130,0,l),
(226,0,l),
(226,520,ls),
(226,591,o),
(244,618,o),
(307,618,cs),
(333,618,o),
(365,616,o),
(388,613,c),
(388,696,l),
(363,699,o),
(331,703,o),
(297,703,cs)
);
}
);
width = 403;
},
{
layerId = m003;
shapes = (
{
closed = 1;
nodes = (
(373,416,l),
(373,500,l),
(30,500,l),
(30,416,l)
);
},
{
closed = 1;
nodes = (
(174,703,o),
(130,661,o),
(130,518,cs),
(130,0,l),
(226,0,l),
(226,520,ls),
(226,591,o),
(244,618,o),
(307,618,cs),
(333,618,o),
(365,616,o),
(388,613,c),
(388,696,l),
(363,699,o),
(331,703,o),
(297,703,cs)
);
}
);
width = 403;
},
{
layerId = m004;
shapes = (
{
closed = 1;
nodes = (
(373,416,l),
(373,500,l),
(30,500,l),
(30,416,l)
);
},
{
closed = 1;
nodes = (
(174,703,o),
(130,661,o),
(130,518,cs),
(130,0,l),
(226,0,l),
(226,520,ls),
(226,591,o),
(244,618,o),
(307,618,cs),
(333,618,o),
(365,616,o),
(388,613,c),
(388,696,l),
(363,699,o),
(331,703,o),
(297,703,cs)
);
}
);
width = 403;
}
);
unicode = 102;
},
{
glyphname = g;
lastChange = "2023-12-02 23:46:24 +0000";
layers = (
{
layerId = master01;
shapes = (
{
closed = 1;
nodes = (
(532,500,l),
(452,500,l),
(452,397,l),
(457,107,l),
(443,72,o),
(437,39,o),
(437,4,cs),
(437,-3,ls),
(437,-93,o),
(401,-127,o),
(299,-127,cs),
(224,-127,o),
(180,-111,o),
(165,-68,c),
(67,-68,l),
(84,-173,o),
(158,-215,o),
(299,-215,cs),
(469,-215,o),
(532,-154,o),
(532,13,cs)
);
},
{
closed = 1;
nodes = (
(422,-15,o),
(473,57,o),
(473,250,cs),
(473,443,o),
(422,515,o),
(285,515,cs),
(114,515,o),
(50,443,o),
(50,250,cs),
(50,57,o),
(114,-15,o),
(285,-15,cs)
);
},
{
closed = 1;
nodes = (
(401,427,o),
(437,384,o),
(437,250,cs),
(437,116,o),
(401,73,o),
(290,73,cs),
(179,73,o),
(143,116,o),
(143,250,cs),
(143,384,o),
(179,427,o),
(290,427,cs)
);
}
);
width = 602;
},
{
layerId = m002;
shapes = (
{
closed = 1;
nodes = (
(532,500,l),
(452,500,l),
(452,397,l),
(457,107,l),
(443,72,o),
(437,39,o),
(437,4,cs),
(437,-3,ls),
(437,-93,o),
(401,-127,o),
(299,-127,cs),
(224,-127,o),
(180,-111,o),
(165,-68,c),
(67,-68,l),
(84,-173,o),
(158,-215,o),
(299,-215,cs),
(469,-215,o),
(532,-154,o),
(532,13,cs)
);
},
{
closed = 1;
nodes = (
(422,-15,o),
(473,57,o),
(473,250,cs),
(473,443,o),
(422,515,o),
(285,515,cs),
(114,515,o),
(50,443,o),
(50,250,cs),
(50,57,o),
(114,-15,o),
(285,-15,cs)
);
},
{
closed = 1;
nodes = (
(401,427,o),
(437,384,o),
(437,250,cs),
(437,116,o),
(401,73,o),
(290,73,cs),
(179,73,o),
(143,116,o),
(143,250,cs),
(143,384,o),
(179,427,o),
(290,427,cs)
);
}
);
width = 602;
},
{
layerId = m003;
shapes = (
{
closed = 1;
nodes = (
(532,500,l),
(452,500,l),
(452,397,l),
(457,107,l),
(443,72,o),
(437,39,o),
(437,4,cs),
(437,-3,ls),
(437,-93,o),
(401,-127,o),
(299,-127,cs),
(224,-127,o),
(180,-111,o),
(165,-68,c),
(67,-68,l),
(84,-173,o),
(158,-215,o),
(299,-215,cs),
(469,-215,o),
(532,-154,o),
(532,13,cs)
);
},
{
closed = 1;
nodes = (
(422,-15,o),
(473,57,o),
(473,250,cs),
(473,443,o),
(422,515,o),
(285,515,cs),
(114,515,o),
(50,443,o),
(50,250,cs),
(50,57,o),
(114,-15,o),
(285,-15,cs)
);
},
{
closed = 1;
nodes = (
(401,427,o),
(437,384,o),
(437,250,cs),
(437,116,o),
(401,73,o),
(290,73,cs),
(179,73,o),
(143,116,o),
(143,250,cs),
(143,384,o),
(179,427,o),
(290,427,cs)
);
}
);
width = 602;
},
{
layerId = m004;
shapes = (
{
closed = 1;
nodes = (
(532,500,l),
(452,500,l),
(452,397,l),
(457,107,l),
(443,72,o),
(437,39,o),
(437,4,cs),
(437,-3,ls),
(437,-93,o),
(401,-127,o),
(299,-127,cs),
(224,-127,o),
(180,-111,o),
(165,-68,c),
(67,-68,l),
(84,-173,o),
(158,-215,o),
(299,-215,cs),
(469,-215,o),
(532,-154,o),
(532,13,cs)
);
},
{
closed = 1;
nodes = (
(422,-15,o),
(473,57,o),
(473,250,cs),
(473,443,o),
(422,515,o),
(285,515,cs),
(114,515,o),
(50,443,o),
(50,250,cs),
(50,57,o),
(114,-15,o),
(285,-15,cs)
);
},
{
closed = 1;
nodes = (
(401,427,o),
(437,384,o),
(437,250,cs),
(437,116,o),
(401,73,o),
(290,73,cs),
(179,73,o),
(143,116,o),
(143,250,cs),
(143,384,o),
(179,427,o),
(290,427,cs)
);
}
);
width = 602;
}
);
metricLeft = o;
metricRight = H;
unicode = 103;
},
{
glyphname = h;
lastChange = "2023-12-02 23:46:24 +0000";
layers = (
{
layerId = master01;
shapes = (
{
closed = 1;
nodes = (
(70,0,l),
(165,0,l),
(165,362,l),
(145,393,l),
(159,428,o),
(165,461,o),
(165,496,cs),
(165,700,l),
(70,700,l)
);
},
{
closed = 1;
nodes = (
(165,292,l),
(165,392,o),
(202,427,o),
(297,427,cs),
(392,427,o),
(429,386,o),
(429,292,cs),
(429,0,l),
(524,0,l),
(524,292,ls),
(524,462,o),
(456,515,o),
(315,515,cs),
(183,515,o),
(129,444,o),
(129,292,c)
);
}
);
width = 589;
},
{
layerId = m002;
shapes = (
{
closed = 1;
nodes = (
(70,0,l),
(165,0,l),
(165,362,l),
(145,393,l),
(159,428,o),
(165,461,o),
(165,496,cs),
(165,700,l),
(70,700,l)
);
},
{
closed = 1;
nodes = (
(165,292,l),
(165,392,o),
(202,427,o),
(297,427,cs),
(392,427,o),
(429,386,o),
(429,292,cs),
(429,0,l),
(524,0,l),
(524,292,ls),
(524,462,o),
(456,515,o),
(315,515,cs),
(183,515,o),
(129,444,o),
(129,292,c)
);
}
);
width = 589;
},
{
layerId = m003;
shapes = (
{
closed = 1;
nodes = (
(70,0,l),
(165,0,l),
(165,362,l),
(145,393,l),
(159,428,o),
(165,461,o),
(165,496,cs),
(165,700,l),
(70,700,l)
);
},
{
closed = 1;
nodes = (
(165,292,l),
(165,392,o),
(202,427,o),
(297,427,cs),
(392,427,o),
(429,386,o),
(429,292,cs),
(429,0,l),
(524,0,l),
(524,292,ls),
(524,462,o),
(456,515,o),
(315,515,cs),
(183,515,o),
(129,444,o),
(129,292,c)
);
}
);
width = 589;
},
{
layerId = m004;
shapes = (
{
closed = 1;
nodes = (
(70,0,l),
(165,0,l),
(165,362,l),
(145,393,l),
(159,428,o),
(165,461,o),
(165,496,cs),
(165,700,l),
(70,700,l)
);
},
{
closed = 1;
nodes = (
(165,292,l),
(165,392,o),
(202,427,o),
(297,427,cs),
(392,427,o),
(429,386,o),
(429,292,cs),
(429,0,l),
(524,0,l),
(524,292,ls),
(524,462,o),
(456,515,o),
(315,515,cs),
(183,515,o),
(129,444,o),
(129,292,c)
);
}
);
width = 589;
}
);
metricLeft = H;
metricRight = n;
unicode = 104;
},
{
glyphname = idotless;
lastChange = "2023-12-02 23:46:24 +0000";
layers = (
{
anchors = (
{
name = top;
pos = (118,500);
}
);
layerId = master01;
shapes = (
{
closed = 1;
nodes = (
(70,0,l),
(166,0,l),
(166,500,l),
(70,500,l)
);
}
);
width = 236;
},
{
anchors = (
{
name = top;
pos = (118,500);
}
);
layerId = m002;
shapes = (
{
closed = 1;
nodes = (
(70,0,l),
(166,0,l),
(166,500,l),
(70,500,l)
);
}
);
width = 236;
},
{
anchors = (
{
name = top;
pos = (118,500);
}
);
layerId = m003;
shapes = (
{
closed = 1;
nodes = (
(70,0,l),
(166,0,l),
(166,500,l),
(70,500,l)
);
}
);
width = 236;
},
{
anchors = (
{
name = top;
pos = (118,500);
}
);
layerId = m004;
shapes = (
{
closed = 1;
nodes = (
(70,0,l),
(166,0,l),
(166,500,l),
(70,500,l)
);
}
);
width = 236;
}
);
metricLeft = H;
metricRight = H;
unicode = 305;
},
{
glyphname = jdotless;
lastChange = "2023-12-02 23:46:24 +0000";
layers = (
{
anchors = (
{
name = top;
pos = (155,500);
}
);
layerId = master01;
shapes = (
{
closed = 1;
nodes = (
(107,500,l),
(107,-15,ls),
(107,-101,o),
(67,-110,o),
(0,-110,c),
(0,-200,l),
(7,-200,ls),
(137,-200,o),
(203,-165,o),
(203,-13,cs),
(203,500,l)
);
}
);
width = 273;
},
{
anchors = (
{
name = top;
pos = (155,500);
}
);
layerId = m002;
shapes = (
{
closed = 1;
nodes = (
(107,500,l),
(107,-15,ls),
(107,-101,o),
(67,-110,o),
(0,-110,c),
(0,-200,l),
(7,-200,ls),
(137,-200,o),
(203,-165,o),
(203,-13,cs),
(203,500,l)
);
}
);
width = 273;
},
{
anchors = (
{
name = top;
pos = (155,500);
}
);
layerId = m003;
shapes = (
{
closed = 1;
nodes = (
(107,500,l),
(107,-15,ls),
(107,-101,o),
(67,-110,o),
(0,-110,c),
(0,-200,l),
(7,-200,ls),
(137,-200,o),
(203,-165,o),
(203,-13,cs),
(203,500,l)
);
}
);
width = 273;
},
{
anchors = (
{
name = top;
pos = (155,500);
}
);
layerId = m004;
shapes = (
{
closed = 1;
nodes = (
(107,500,l),
(107,-15,ls),
(107,-101,o),
(67,-110,o),
(0,-110,c),
(0,-200,l),
(7,-200,ls),
(137,-200,o),
(203,-165,o),
(203,-13,cs),
(203,500,l)
);
}
);
width = 273;
}
);
metricRight = H;
unicode = 567;
},
{
glyphname = k;
lastChange = "2023-12-02 23:46:24 +0000";
layers = (
{
layerId = master01;
shapes = (
{
closed = 1;
nodes = (
(70,0,l),
(165,0,l),
(165,700,l),
(70,700,l)
);
},
{
closed = 1;
nodes = (
(133,133,l),
(530,500,l),
(392,500,l),
(133,262,l)
);
},
{
closed = 1;
nodes = (
(202,270,l),
(423,0,l),
(552,0,l),
(279,329,l)
);
}
);
width = 557;
},
{
layerId = m002;
shapes = (
{
closed = 1;
nodes = (
(70,0,l),
(165,0,l),
(165,700,l),
(70,700,l)
);
},
{
closed = 1;
nodes = (
(133,133,l),
(530,500,l),
(392,500,l),
(133,262,l)
);
},
{
closed = 1;
nodes = (
(202,270,l),
(423,0,l),
(552,0,l),
(279,329,l)
);
}
);
width = 600;
},
{
layerId = m003;
shapes = (
{
closed = 1;
nodes = (
(70,0,l),
(165,0,l),
(165,700,l),
(70,700,l)
);
},
{
closed = 1;
nodes = (
(133,133,l),
(530,500,l),
(392,500,l),
(133,262,l)
);
},
{
closed = 1;
nodes = (
(202,270,l),
(423,0,l),
(552,0,l),
(279,329,l)
);
}
);
width = 557;
},
{
layerId = m004;
shapes = (
{
closed = 1;
nodes = (
(70,0,l),
(165,0,l),
(165,700,l),
(70,700,l)
);
},
{
closed = 1;
nodes = (
(133,133,l),
(530,500,l),
(392,500,l),
(133,262,l)
);
},
{
closed = 1;
nodes = (
(202,270,l),
(423,0,l),
(552,0,l),
(279,329,l)
);
}
);
width = 600;
}
);
metricLeft = h;
unicode = 107;
},
{
glyphname = l;
lastChange = "2023-12-02 23:46:24 +0000";
layers = (
{
layerId = master01;
shapes = (
{
closed = 1;
nodes = (
(238,-5,o),
(261,-3,o),
(283,0,c),
(283,92,l),
(264,91,o),
(241,90,o),
(216,90,cs),
(182,90,o),
(166,106,o),
(166,138,cs),
(166,700,l),
(70,700,l),
(70,140,ls),
(70,38,o),
(113,-5,o),
(216,-5,cs)
);
}
);
width = 308;
},
{
layerId = m002;
shapes = (
{
closed = 1;
nodes = (
(238,-5,o),
(261,-3,o),
(283,0,c),
(283,92,l),
(264,91,o),
(241,90,o),
(216,90,cs),
(182,90,o),
(166,106,o),
(166,138,cs),
(166,700,l),
(70,700,l),
(70,140,ls),
(70,38,o),
(113,-5,o),
(216,-5,cs)
);
}
);
width = 308;
},
{
layerId = m003;
shapes = (
{
closed = 1;
nodes = (
(238,-5,o),
(261,-3,o),
(283,0,c),
(283,92,l),
(264,91,o),
(241,90,o),
(216,90,cs),
(182,90,o),
(166,106,o),
(166,138,cs),
(166,700,l),
(70,700,l),
(70,140,ls),
(70,38,o),
(113,-5,o),
(216,-5,cs)
);
}
);
width = 308;
},
{
layerId = m004;
shapes = (
{
closed = 1;
nodes = (
(238,-5,o),
(261,-3,o),
(283,0,c),
(283,92,l),
(264,91,o),
(241,90,o),
(216,90,cs),
(182,90,o),
(166,106,o),
(166,138,cs),
(166,700,l),
(70,700,l),
(70,140,ls),
(70,38,o),
(113,-5,o),
(216,-5,cs)
);
}
);
width = 308;
}
);
metricLeft = H;
metricRight = "=H-45";
unicode = 108;
},
{
glyphname = m;
lastChange = "2023-12-02 23:46:24 +0000";
layers = (
{
guides = (
{
pos = (471,427);
}
);
layerId = master01;
shapes = (
{
closed = 1;
nodes = (
(70,0,l),
(165,0,l),
(165,362,l),
(150,362,l),
(150,500,l),
(70,500,l)
);
},
{
closed = 1;
nodes = (
(165,292,l),
(165,392,o),
(201,427,o),
(292,427,cs),
(383,427,o),
(419,386,o),
(419,292,cs),
(419,0,l),
(514,0,l),
(514,292,ls),
(514,462,o),
(448,515,o),
(310,515,cs),
(182,515,o),
(129,444,o),
(129,292,c)
);
},
{
closed = 1;
nodes = (
(514,292,l),
(514,392,o),
(550,427,o),
(641,427,cs),
(732,427,o),
(768,386,o),
(768,292,cs),
(768,0,l),
(863,0,l),
(863,292,ls),
(863,462,o),
(795,515,o),
(654,515,cs),
(522,515,o),
(468,444,o),
(468,292,c)
);
}
);
width = 928;
},
{
guides = (
{
pos = (471,427);
}
);
layerId = m002;
shapes = (
{
closed = 1;
nodes = (
(70,0,l),
(165,0,l),
(165,362,l),
(150,362,l),
(150,500,l),
(70,500,l)
);
},
{
closed = 1;
nodes = (
(165,292,l),
(165,392,o),
(201,427,o),
(292,427,cs),
(383,427,o),
(419,386,o),
(419,292,cs),
(419,0,l),
(514,0,l),
(514,292,ls),
(514,462,o),
(448,515,o),
(310,515,cs),
(182,515,o),
(129,444,o),
(129,292,c)
);
},
{
closed = 1;
nodes = (
(514,292,l),
(514,392,o),
(550,427,o),
(641,427,cs),
(732,427,o),
(768,386,o),
(768,292,cs),
(768,0,l),
(863,0,l),
(863,292,ls),
(863,462,o),
(795,515,o),
(654,515,cs),
(522,515,o),
(468,444,o),
(468,292,c)
);
}
);
width = 928;
},
{
guides = (
{
pos = (471,427);
}
);
layerId = m003;
shapes = (
{
closed = 1;
nodes = (
(70,0,l),
(165,0,l),
(165,362,l),
(150,362,l),
(150,500,l),
(70,500,l)
);
},
{
closed = 1;
nodes = (
(165,292,l),
(165,392,o),
(201,427,o),
(292,427,cs),
(383,427,o),
(419,386,o),
(419,292,cs),
(419,0,l),
(514,0,l),
(514,292,ls),
(514,462,o),
(448,515,o),
(310,515,cs),
(182,515,o),
(129,444,o),
(129,292,c)
);
},
{
closed = 1;
nodes = (
(514,292,l),
(514,392,o),
(550,427,o),
(641,427,cs),
(732,427,o),
(768,386,o),
(768,292,cs),
(768,0,l),
(863,0,l),
(863,292,ls),
(863,462,o),
(795,515,o),
(654,515,cs),
(522,515,o),
(468,444,o),
(468,292,c)
);
}
);
width = 928;
},
{
guides = (
{
pos = (471,427);
}
);
layerId = m004;
shapes = (
{
closed = 1;
nodes = (
(70,0,l),
(165,0,l),
(165,362,l),
(150,362,l),
(150,500,l),
(70,500,l)
);
},
{
closed = 1;
nodes = (
(165,292,l),
(165,392,o),
(201,427,o),
(292,427,cs),
(383,427,o),
(419,386,o),
(419,292,cs),
(419,0,l),
(514,0,l),
(514,292,ls),
(514,462,o),
(448,515,o),
(310,515,cs),
(182,515,o),
(129,444,o),
(129,292,c)
);
},
{
closed = 1;
nodes = (
(514,292,l),
(514,392,o),
(550,427,o),
(641,427,cs),
(732,427,o),
(768,386,o),
(768,292,cs),
(768,0,l),
(863,0,l),
(863,292,ls),
(863,462,o),
(795,515,o),
(654,515,cs),
(522,515,o),
(468,444,o),
(468,292,c)
);
}
);
width = 928;
}
);
metricLeft = n;
metricRight = n;
unicode = 109;
},
{
glyphname = n;
lastChange = "2023-12-02 23:46:24 +0000";
layers = (
{
anchors = (
{
name = top;
pos = (312,500);
}
);
guides = (
{
pos = (157,452);
}
);
layerId = master01;
shapes = (
{
closed = 1;
nodes = (
(70,0,l),
(165,0,l),
(165,362,l),
(150,362,l),
(150,500,l),
(70,500,l)
);
},
{
closed = 1;
nodes = (
(165,292,l),
(165,392,o),
(202,427,o),
(297,427,cs),
(392,427,o),
(429,386,o),
(429,292,cs),
(429,0,l),
(524,0,l),
(524,292,ls),
(524,462,o),
(456,515,o),
(315,515,cs),
(183,515,o),
(129,444,o),
(129,292,c)
);
}
);
width = 589;
},
{
anchors = (
{
name = top;
pos = (312,500);
}
);
guides = (
{
pos = (157,452);
}
);
layerId = m002;
shapes = (
{
closed = 1;
nodes = (
(70,0,l),
(165,0,l),
(165,362,l),
(150,362,l),
(150,500,l),
(70,500,l)
);
},
{
closed = 1;
nodes = (
(165,292,l),
(165,392,o),
(202,427,o),
(297,427,cs),
(392,427,o),
(429,386,o),
(429,292,cs),
(429,0,l),
(524,0,l),
(524,292,ls),
(524,462,o),
(456,515,o),
(315,515,cs),
(183,515,o),
(129,444,o),
(129,292,c)
);
}
);
width = 589;
},
{
anchors = (
{
name = top;
pos = (312,500);
}
);
guides = (
{
pos = (157,452);
}
);
layerId = m003;
shapes = (
{
closed = 1;
nodes = (
(70,0,l),
(165,0,l),
(165,362,l),
(150,362,l),
(150,500,l),
(70,500,l)
);
},
{
closed = 1;
nodes = (
(165,292,l),
(165,392,o),
(202,427,o),
(297,427,cs),
(392,427,o),
(429,386,o),
(429,292,cs),
(429,0,l),
(524,0,l),
(524,292,ls),
(524,462,o),
(456,515,o),
(315,515,cs),
(183,515,o),
(129,444,o),
(129,292,c)
);
}
);
width = 589;
},
{
anchors = (
{
name = top;
pos = (312,500);
}
);
guides = (
{
pos = (157,452);
}
);
layerId = m004;
shapes = (
{
closed = 1;
nodes = (
(70,0,l),
(165,0,l),
(165,362,l),
(150,362,l),
(150,500,l),
(70,500,l)
);
},
{
closed = 1;
nodes = (
(165,292,l),
(165,392,o),
(202,427,o),
(297,427,cs),
(392,427,o),
(429,386,o),
(429,292,cs),
(429,0,l),
(524,0,l),
(524,292,ls),
(524,462,o),
(456,515,o),
(315,515,cs),
(183,515,o),
(129,444,o),
(129,292,c)
);
}
);
width = 589;
}
);
metricLeft = H;
metricRight = "=H-5";
unicode = 110;
},
{
glyphname = o;
lastChange = "2023-12-02 23:46:24 +0000";
layers = (
{
anchors = (
{
name = top;
pos = (290,500);
}
);
layerId = master01;
shapes = (
{
closed = 1;
nodes = (
(465,-15,o),
(530,57,o),
(530,250,cs),
(530,443,o),
(465,515,o),
(290,515,cs),
(115,515,o),
(50,443,o),
(50,250,cs),
(50,57,o),
(115,-15,o),
(290,-15,cs)
);
},
{
closed = 1;
nodes = (
(179,73,o),
(143,116,o),
(143,250,cs),
(143,384,o),
(179,427,o),
(290,427,cs),
(401,427,o),
(437,384,o),
(437,250,cs),
(437,116,o),
(401,73,o),
(290,73,cs)
);
}
);
width = 580;
},
{
anchors = (
{
name = top;
pos = (290,500);
}
);
layerId = m002;
shapes = (
{
closed = 1;
nodes = (
(465,-15,o),
(530,57,o),
(530,250,cs),
(530,443,o),
(465,515,o),
(290,515,cs),
(115,515,o),
(50,443,o),
(50,250,cs),
(50,57,o),
(115,-15,o),
(290,-15,cs)
);
},
{
closed = 1;
nodes = (
(179,73,o),
(143,116,o),
(143,250,cs),
(143,384,o),
(179,427,o),
(290,427,cs),
(401,427,o),
(437,384,o),
(437,250,cs),
(437,116,o),
(401,73,o),
(290,73,cs)
);
}
);
width = 580;
},
{
anchors = (
{
name = top;
pos = (290,500);
}
);
layerId = m003;
shapes = (
{
closed = 1;
nodes = (
(465,-15,o),
(530,57,o),
(530,250,cs),
(530,443,o),
(465,515,o),
(290,515,cs),
(115,515,o),
(50,443,o),
(50,250,cs),
(50,57,o),
(115,-15,o),
(290,-15,cs)
);
},
{
closed = 1;
nodes = (
(179,73,o),
(143,116,o),
(143,250,cs),
(143,384,o),
(179,427,o),
(290,427,cs),
(401,427,o),
(437,384,o),
(437,250,cs),
(437,116,o),
(401,73,o),
(290,73,cs)
);
}
);
width = 580;
},
{
anchors = (
{
name = top;
pos = (290,500);
}
);
layerId = m004;
shapes = (
{
closed = 1;
nodes = (
(465,-15,o),
(530,57,o),
(530,250,cs),
(530,443,o),
(465,515,o),
(290,515,cs),
(115,515,o),
(50,443,o),
(50,250,cs),
(50,57,o),
(115,-15,o),
(290,-15,cs)
);
},
{
closed = 1;
nodes = (
(179,73,o),
(143,116,o),
(143,250,cs),
(143,384,o),
(179,427,o),
(290,427,cs),
(401,427,o),
(437,384,o),
(437,250,cs),
(437,116,o),
(401,73,o),
(290,73,cs)
);
}
);
width = 580;
}
);
unicode = 111;
},
{
glyphname = r;
lastChange = "2023-12-02 23:46:24 +0000";
layers = (
{
layerId = master01;
shapes = (
{
closed = 1;
nodes = (
(70,0,l),
(165,0,l),
(165,367,l),
(150,362,l),
(150,500,l),
(70,500,l)
);
},
{
closed = 1;
nodes = (
(165,289,l),
(165,378,o),
(207,409,o),
(315,409,cs),
(365,409,l),
(365,500,l),
(315,500,ls),
(183,500,o),
(129,431,o),
(129,289,c)
);
}
);
width = 385;
},
{
layerId = m002;
shapes = (
{
closed = 1;
nodes = (
(70,0,l),
(165,0,l),
(165,367,l),
(150,362,l),
(150,500,l),
(70,500,l)
);
},
{
closed = 1;
nodes = (
(165,289,l),
(165,378,o),
(207,409,o),
(315,409,cs),
(365,409,l),
(365,500,l),
(315,500,ls),
(183,500,o),
(129,431,o),
(129,289,c)
);
}
);
width = 385;
},
{
layerId = m003;
shapes = (
{
closed = 1;
nodes = (
(70,0,l),
(165,0,l),
(165,367,l),
(150,362,l),
(150,500,l),
(70,500,l)
);
},
{
closed = 1;
nodes = (
(165,289,l),
(165,378,o),
(207,409,o),
(315,409,cs),
(365,409,l),
(365,500,l),
(315,500,ls),
(183,500,o),
(129,431,o),
(129,289,c)
);
}
);
width = 385;
},
{
layerId = m004;
shapes = (
{
closed = 1;
nodes = (
(70,0,l),
(165,0,l),
(165,367,l),
(150,362,l),
(150,500,l),
(70,500,l)
);
},
{
closed = 1;
nodes = (
(165,289,l),
(165,378,o),
(207,409,o),
(315,409,cs),
(365,409,l),
(365,500,l),
(315,500,ls),
(183,500,o),
(129,431,o),
(129,289,c)
);
}
);
width = 385;
}
);
metricLeft = n;
unicode = 114;
},
{
glyphname = s;
lastChange = "2023-12-02 23:46:24 +0000";
layers = (
{
background = {
shapes = (
{
closed = 1;
nodes = (
(403,515,o),
(468,462,o),
(483,369,c),
(383,369,l),
(372,409,o),
(329,427,o),
(273,427,cs),
(166,427,o),
(144,404,o),
(144,361,cs),
(144,252,o),
(501,326,o),
(501,131,cs),
(501,27,o),
(431,-15,o),
(265,-15,cs),
(115,-15,o),
(48,30,o),
(32,132,c),
(132,132,l),
(144,97,o),
(164,73,o),
(264,73,cs),
(373,73,o),
(404,91,o),
(404,135,cs),
(404,248,o),
(46,158,o),
(46,358,cs),
(46,470,o),
(110,515,o),
(271,515,cs)
);
}
);
};
layerId = master01;
shapes = (
{
closed = 1;
nodes = (
(415,515,o),
(474,461,o),
(474,369,c),
(379,369,l),
(375,408,o),
(338,427,o),
(261,427,cs),
(169,427,o),
(146,404,o),
(146,368,cs),
(146,334,o),
(175,315,o),
(285,296,cs),
(419,273,o),
(491,253,o),
(491,141,cs),
(491,32,o),
(422,-15,o),
(268,-15,cs),
(123,-15,o),
(47,32,o),
(40,138,c),
(135,138,l),
(140,99,o),
(168,73,o),
(267,73,cs),
(365,73,o),
(396,92,o),
(396,137,cs),
(396,177,o),
(371,194,o),
(255,209,cs),
(106,228,o),
(51,269,o),
(51,361,cs),
(51,465,o),
(120,515,o),
(257,515,cs)
);
}
);
width = 531;
},
{
background = {
shapes = (
{
closed = 1;
nodes = (
(403,515,o),
(468,462,o),
(483,369,c),
(383,369,l),
(372,409,o),
(329,427,o),
(273,427,cs),
(166,427,o),
(144,404,o),
(144,361,cs),
(144,252,o),
(501,326,o),
(501,131,cs),
(501,27,o),
(431,-15,o),
(265,-15,cs),
(115,-15,o),
(48,30,o),
(32,132,c),
(132,132,l),
(144,97,o),
(164,73,o),
(264,73,cs),
(373,73,o),
(404,91,o),
(404,135,cs),
(404,248,o),
(46,158,o),
(46,358,cs),
(46,470,o),
(110,515,o),
(271,515,cs)
);
}
);
};
layerId = m002;
shapes = (
{
closed = 1;
nodes = (
(415,515,o),
(474,461,o),
(474,369,c),
(379,369,l),
(375,408,o),
(338,427,o),
(261,427,cs),
(169,427,o),
(146,404,o),
(146,368,cs),
(146,334,o),
(175,315,o),
(285,296,cs),
(419,273,o),
(491,253,o),
(491,141,cs),
(491,32,o),
(422,-15,o),
(268,-15,cs),
(123,-15,o),
(47,32,o),
(40,138,c),
(135,138,l),
(140,99,o),
(168,73,o),
(267,73,cs),
(365,73,o),
(396,92,o),
(396,137,cs),
(396,177,o),
(371,194,o),
(255,209,cs),
(106,228,o),
(51,269,o),
(51,361,cs),
(51,465,o),
(120,515,o),
(257,515,cs)
);
}
);
width = 531;
},
{
background = {
shapes = (
{
closed = 1;
nodes = (
(403,515,o),
(468,462,o),
(483,369,c),
(383,369,l),
(372,409,o),
(329,427,o),
(273,427,cs),
(166,427,o),
(144,404,o),
(144,361,cs),
(144,252,o),
(501,326,o),
(501,131,cs),
(501,27,o),
(431,-15,o),
(265,-15,cs),
(115,-15,o),
(48,30,o),
(32,132,c),
(132,132,l),
(144,97,o),
(164,73,o),
(264,73,cs),
(373,73,o),
(404,91,o),
(404,135,cs),
(404,248,o),
(46,158,o),
(46,358,cs),
(46,470,o),
(110,515,o),
(271,515,cs)
);
}
);
};
layerId = m003;
shapes = (
{
closed = 1;
nodes = (
(415,515,o),
(474,461,o),
(474,369,c),
(379,369,l),
(375,408,o),
(338,427,o),
(261,427,cs),
(169,427,o),
(146,404,o),
(146,368,cs),
(146,334,o),
(175,315,o),
(285,296,cs),
(419,273,o),
(491,253,o),
(491,141,cs),
(491,32,o),
(422,-15,o),
(268,-15,cs),
(123,-15,o),
(47,32,o),
(40,138,c),
(135,138,l),
(140,99,o),
(168,73,o),
(267,73,cs),
(365,73,o),
(396,92,o),
(396,137,cs),
(396,177,o),
(371,194,o),
(255,209,cs),
(106,228,o),
(51,269,o),
(51,361,cs),
(51,465,o),
(120,515,o),
(257,515,cs)
);
}
);
width = 531;
},
{
background = {
shapes = (
{
closed = 1;
nodes = (
(403,515,o),
(468,462,o),
(483,369,c),
(383,369,l),
(372,409,o),
(329,427,o),
(273,427,cs),
(166,427,o),
(144,404,o),
(144,361,cs),
(144,252,o),
(501,326,o),
(501,131,cs),
(501,27,o),
(431,-15,o),
(265,-15,cs),
(115,-15,o),
(48,30,o),
(32,132,c),
(132,132,l),
(144,97,o),
(164,73,o),
(264,73,cs),
(373,73,o),
(404,91,o),
(404,135,cs),
(404,248,o),
(46,158,o),
(46,358,cs),
(46,470,o),
(110,515,o),
(271,515,cs)
);
}
);
};
layerId = m004;
shapes = (
{
closed = 1;
nodes = (
(415,515,o),
(474,461,o),
(474,369,c),
(379,369,l),
(375,408,o),
(338,427,o),
(261,427,cs),
(169,427,o),
(146,404,o),
(146,368,cs),
(146,334,o),
(175,315,o),
(285,296,cs),
(419,273,o),
(491,253,o),
(491,141,cs),
(491,32,o),
(422,-15,o),
(268,-15,cs),
(123,-15,o),
(47,32,o),
(40,138,c),
(135,138,l),
(140,99,o),
(168,73,o),
(267,73,cs),
(365,73,o),
(396,92,o),
(396,137,cs),
(396,177,o),
(371,194,o),
(255,209,cs),
(106,228,o),
(51,269,o),
(51,361,cs),
(51,465,o),
(120,515,o),
(257,515,cs)
);
}
);
width = 531;
}
);
unicode = 115;
},
{
glyphname = t;
lastChange = "2023-12-02 23:46:24 +0000";
layers = (
{
layerId = master01;
shapes = (
{
closed = 1;
nodes = (
(15,416,l),
(368,416,l),
(368,500,l),
(15,500,l)
);
},
{
closed = 1;
nodes = (
(316,-5,o),
(348,-1,o),
(373,2,c),
(373,85,l),
(350,82,o),
(318,80,o),
(292,80,cs),
(229,80,o),
(211,107,o),
(211,178,cs),
(211,600,l),
(115,600,l),
(115,180,ls),
(115,37,o),
(159,-5,o),
(282,-5,cs)
);
}
);
width = 393;
},
{
layerId = m002;
shapes = (
{
closed = 1;
nodes = (
(15,416,l),
(368,416,l),
(368,500,l),
(15,500,l)
);
},
{
closed = 1;
nodes = (
(316,-5,o),
(348,-1,o),
(373,2,c),
(373,85,l),
(350,82,o),
(318,80,o),
(292,80,cs),
(229,80,o),
(211,107,o),
(211,178,cs),
(211,600,l),
(115,600,l),
(115,180,ls),
(115,37,o),
(159,-5,o),
(282,-5,cs)
);
}
);
width = 393;
},
{
layerId = m003;
shapes = (
{
closed = 1;
nodes = (
(15,416,l),
(368,416,l),
(368,500,l),
(15,500,l)
);
},
{
closed = 1;
nodes = (
(316,-5,o),
(348,-1,o),
(373,2,c),
(373,85,l),
(350,82,o),
(318,80,o),
(292,80,cs),
(229,80,o),
(211,107,o),
(211,178,cs),
(211,600,l),
(115,600,l),
(115,180,ls),
(115,37,o),
(159,-5,o),
(282,-5,cs)
);
}
);
width = 393;
},
{
layerId = m004;
shapes = (
{
closed = 1;
nodes = (
(15,416,l),
(368,416,l),
(368,500,l),
(15,500,l)
);
},
{
closed = 1;
nodes = (
(316,-5,o),
(348,-1,o),
(373,2,c),
(373,85,l),
(350,82,o),
(318,80,o),
(292,80,cs),
(229,80,o),
(211,107,o),
(211,178,cs),
(211,600,l),
(115,600,l),
(115,180,ls),
(115,37,o),
(159,-5,o),
(282,-5,cs)
);
}
);
width = 393;
}
);
unicode = 116;
},
{
glyphname = u;
lastChange = "2023-12-02 23:46:24 +0000";
layers = (
{
anchors = (
{
name = bottom;
pos = (271,0);
},
{
name = top;
pos = (289,500);
}
);
layerId = master01;
shapes = (
{
closed = 1;
nodes = (
(513,500,l),
(418,500,l),
(418,138,l),
(433,138,l),
(433,0,l),
(513,0,l)
);
},
{
closed = 1;
nodes = (
(418,208,l),
(418,108,o),
(382,73,o),
(288,73,cs),
(196,73,o),
(160,114,o),
(160,208,cs),
(160,500,l),
(65,500,l),
(65,208,ls),
(65,38,o),
(132,-15,o),
(270,-15,cs),
(401,-15,o),
(454,56,o),
(454,208,c)
);
}
);
width = 583;
},
{
anchors = (
{
name = bottom;
pos = (271,0);
},
{
name = top;
pos = (289,500);
}
);
layerId = m002;
shapes = (
{
closed = 1;
nodes = (
(513,500,l),
(418,500,l),
(418,138,l),
(433,138,l),
(433,0,l),
(513,0,l)
);
},
{
closed = 1;
nodes = (
(418,208,l),
(418,108,o),
(382,73,o),
(288,73,cs),
(196,73,o),
(160,114,o),
(160,208,cs),
(160,500,l),
(65,500,l),
(65,208,ls),
(65,38,o),
(132,-15,o),
(270,-15,cs),
(401,-15,o),
(454,56,o),
(454,208,c)
);
}
);
width = 583;
},
{
anchors = (
{
name = bottom;
pos = (271,0);
},
{
name = top;
pos = (289,500);
}
);
layerId = m003;
shapes = (
{
closed = 1;
nodes = (
(513,500,l),
(418,500,l),
(418,138,l),
(433,138,l),
(433,0,l),
(513,0,l)
);
},
{
closed = 1;
nodes = (
(418,208,l),
(418,108,o),
(382,73,o),
(288,73,cs),
(196,73,o),
(160,114,o),
(160,208,cs),
(160,500,l),
(65,500,l),
(65,208,ls),
(65,38,o),
(132,-15,o),
(270,-15,cs),
(401,-15,o),
(454,56,o),
(454,208,c)
);
}
);
width = 583;
},
{
anchors = (
{
name = bottom;
pos = (271,0);
},
{
name = top;
pos = (289,500);
}
);
layerId = m004;
shapes = (
{
closed = 1;
nodes = (
(513,500,l),
(418,500,l),
(418,138,l),
(433,138,l),
(433,0,l),
(513,0,l)
);
},
{
closed = 1;
nodes = (
(418,208,l),
(418,108,o),
(382,73,o),
(288,73,cs),
(196,73,o),
(160,114,o),
(160,208,cs),
(160,500,l),
(65,500,l),
(65,208,ls),
(65,38,o),
(132,-15,o),
(270,-15,cs),
(401,-15,o),
(454,56,o),
(454,208,c)
);
}
);
width = 583;
}
);
metricRight = H;
unicode = 117;
},
{
glyphname = v;
lastChange = "2023-12-02 23:46:24 +0000";
layers = (
{
layerId = master01;
shapes = (
{
closed = 1;
nodes = (
(199,0,l),
(331,0,l),
(520,500,l),
(412,500,l),
(265,70,l),
(118,500,l),
(10,500,l)
);
}
);
width = 530;
},
{
layerId = m002;
shapes = (
{
closed = 1;
nodes = (
(199,0,l),
(331,0,l),
(520,500,l),
(412,500,l),
(265,70,l),
(118,500,l),
(10,500,l)
);
}
);
width = 530;
},
{
layerId = m003;
shapes = (
{
closed = 1;
nodes = (
(199,0,l),
(331,0,l),
(520,500,l),
(412,500,l),
(265,70,l),
(118,500,l),
(10,500,l)
);
}
);
width = 530;
},
{
layerId = m004;
shapes = (
{
closed = 1;
nodes = (
(199,0,l),
(331,0,l),
(520,500,l),
(412,500,l),
(265,70,l),
(118,500,l),
(10,500,l)
);
}
);
width = 530;
}
);
unicode = 118;
},
{
glyphname = w;
lastChange = "2023-12-02 23:46:24 +0000";
layers = (
{
layerId = master01;
shapes = (
{
closed = 1;
nodes = (
(160,0,l),
(301,0,l),
(408,430,l),
(515,0,l),
(656,0,l),
(806,500,l),
(701,500,l),
(586,70,l),
(479,500,l),
(337,500,l),
(230,70,l),
(115,500,l),
(10,500,l)
);
}
);
width = 816;
},
{
layerId = m002;
shapes = (
{
closed = 1;
nodes = (
(160,0,l),
(301,0,l),
(408,430,l),
(515,0,l),
(656,0,l),
(806,500,l),
(701,500,l),
(586,70,l),
(479,500,l),
(337,500,l),
(230,70,l),
(115,500,l),
(10,500,l)
);
}
);
width = 816;
},
{
layerId = m003;
shapes = (
{
closed = 1;
nodes = (
(160,0,l),
(301,0,l),
(408,430,l),
(515,0,l),
(656,0,l),
(806,500,l),
(701,500,l),
(586,70,l),
(479,500,l),
(337,500,l),
(230,70,l),
(115,500,l),
(10,500,l)
);
}
);
width = 816;
},
{
layerId = m004;
shapes = (
{
closed = 1;
nodes = (
(160,0,l),
(301,0,l),
(408,430,l),
(515,0,l),
(656,0,l),
(806,500,l),
(701,500,l),
(586,70,l),
(479,500,l),
(337,500,l),
(230,70,l),
(115,500,l),
(10,500,l)
);
}
);
width = 816;
}
);
metricLeft = v;
metricRight = v;
unicode = 119;
},
{
glyphname = x;
lastChange = "2023-12-02 23:46:24 +0000";
layers = (
{
layerId = master01;
shapes = (
{
closed = 1;
nodes = (
(515,-1,l),
(146,499,l),
(26,500,l),
(395,-1,l)
);
},
{
closed = 1;
nodes = (
(505,499,l),
(385,499,l),
(250,308,l),
(310,236,l)
);
},
{
closed = 1;
nodes = (
(283,208,l),
(220,276,l),
(10,0,l),
(129,0,l)
);
}
);
width = 520;
},
{
layerId = m002;
shapes = (
{
closed = 1;
nodes = (
(515,-1,l),
(146,499,l),
(26,500,l),
(395,-1,l)
);
},
{
closed = 1;
nodes = (
(505,499,l),
(385,499,l),
(250,308,l),
(310,236,l)
);
},
{
closed = 1;
nodes = (
(283,208,l),
(220,276,l),
(10,0,l),
(129,0,l)
);
}
);
width = 520;
},
{
layerId = m003;
shapes = (
{
closed = 1;
nodes = (
(515,-1,l),
(146,499,l),
(26,500,l),
(395,-1,l)
);
},
{
closed = 1;
nodes = (
(505,499,l),
(385,499,l),
(250,308,l),
(310,236,l)
);
},
{
closed = 1;
nodes = (
(283,208,l),
(220,276,l),
(10,0,l),
(129,0,l)
);
}
);
width = 520;
},
{
layerId = m004;
shapes = (
{
closed = 1;
nodes = (
(515,-1,l),
(146,499,l),
(26,500,l),
(395,-1,l)
);
},
{
closed = 1;
nodes = (
(505,499,l),
(385,499,l),
(250,308,l),
(310,236,l)
);
},
{
closed = 1;
nodes = (
(283,208,l),
(220,276,l),
(10,0,l),
(129,0,l)
);
}
);
width = 520;
}
);
unicode = 120;
},
{
glyphname = y;
lastChange = "2023-12-02 23:46:24 +0000";
layers = (
{
layerId = master01;
shapes = (
{
closed = 1;
nodes = (
(245,-200,l),
(520,500,l),
(412,500,l),
(246,51,l),
(135,-200,l)
);
},
{
closed = 1;
nodes = (
(275,84,l),
(118,500,l),
(10,500,l),
(225,-24,l)
);
}
);
width = 530;
},
{
layerId = m002;
shapes = (
{
closed = 1;
nodes = (
(245,-200,l),
(520,500,l),
(412,500,l),
(246,51,l),
(135,-200,l)
);
},
{
closed = 1;
nodes = (
(275,84,l),
(118,500,l),
(10,500,l),
(225,-24,l)
);
}
);
width = 530;
},
{
layerId = m003;
shapes = (
{
closed = 1;
nodes = (
(245,-200,l),
(520,500,l),
(412,500,l),
(246,51,l),
(135,-200,l)
);
},
{
closed = 1;
nodes = (
(275,84,l),
(118,500,l),
(10,500,l),
(225,-24,l)
);
}
);
width = 530;
},
{
layerId = m004;
shapes = (
{
closed = 1;
nodes = (
(245,-200,l),
(520,500,l),
(412,500,l),
(246,51,l),
(135,-200,l)
);
},
{
closed = 1;
nodes = (
(275,84,l),
(118,500,l),
(10,500,l),
(225,-24,l)
);
}
);
width = 530;
}
);
metricLeft = v;
metricRight = v;
unicode = 121;
},
{
glyphname = z;
lastChange = "2023-12-02 23:46:24 +0000";
layers = (
{
layerId = master01;
shapes = (
{
closed = 1;
nodes = (
(45,0,l),
(481,0,l),
(481,90,l),
(162,90,l),
(210,135,o),
(261,182,o),
(307,231,cs),
(476,410,l),
(476,500,l),
(50,500,l),
(50,410,l),
(361,410,l),
(314,367,o),
(263,319,o),
(218,271,cs),
(45,90,l)
);
}
);
width = 516;
},
{
layerId = m002;
shapes = (
{
closed = 1;
nodes = (
(45,0,l),
(481,0,l),
(481,90,l),
(162,90,l),
(210,135,o),
(261,182,o),
(307,231,cs),
(476,410,l),
(476,500,l),
(50,500,l),
(50,410,l),
(361,410,l),
(314,367,o),
(263,319,o),
(218,271,cs),
(45,90,l)
);
}
);
width = 516;
},
{
layerId = m003;
shapes = (
{
closed = 1;
nodes = (
(45,0,l),
(481,0,l),
(481,90,l),
(162,90,l),
(210,135,o),
(261,182,o),
(307,231,cs),
(476,410,l),
(476,500,l),
(50,500,l),
(50,410,l),
(361,410,l),
(314,367,o),
(263,319,o),
(218,271,cs),
(45,90,l)
);
}
);
width = 516;
},
{
layerId = m004;
shapes = (
{
closed = 1;
nodes = (
(45,0,l),
(481,0,l),
(481,90,l),
(162,90,l),
(210,135,o),
(261,182,o),
(307,231,cs),
(476,410,l),
(476,500,l),
(50,500,l),
(50,410,l),
(361,410,l),
(314,367,o),
(263,319,o),
(218,271,cs),
(45,90,l)
);
}
);
width = 516;
}
);
unicode = 122;
},
{
glyphname = zero;
lastChange = "2023-12-02 23:46:24 +0000";
layers = (
{
layerId = master01;
shapes = (
{
closed = 1;
nodes = (
(538,-15,o),
(610,76,o),
(610,325,cs),
(610,574,o),
(538,665,o),
(330,665,cs),
(122,665,o),
(50,574,o),
(50,325,cs),
(50,76,o),
(122,-15,o),
(330,-15,cs)
);
},
{
closed = 1;
nodes = (
(198,78,o),
(148,146,o),
(148,325,cs),
(148,504,o),
(198,572,o),
(330,572,cs),
(462,572,o),
(512,504,o),
(512,325,cs),
(512,146,o),
(462,78,o),
(330,78,cs)
);
}
);
width = 660;
},
{
layerId = m002;
shapes = (
{
closed = 1;
nodes = (
(538,-15,o),
(610,76,o),
(610,325,cs),
(610,574,o),
(538,665,o),
(330,665,cs),
(122,665,o),
(50,574,o),
(50,325,cs),
(50,76,o),
(122,-15,o),
(330,-15,cs)
);
},
{
closed = 1;
nodes = (
(198,78,o),
(148,146,o),
(148,325,cs),
(148,504,o),
(198,572,o),
(330,572,cs),
(462,572,o),
(512,504,o),
(512,325,cs),
(512,146,o),
(462,78,o),
(330,78,cs)
);
}
);
width = 660;
},
{
layerId = m003;
shapes = (
{
closed = 1;
nodes = (
(538,-15,o),
(610,76,o),
(610,325,cs),
(610,574,o),
(538,665,o),
(330,665,cs),
(122,665,o),
(50,574,o),
(50,325,cs),
(50,76,o),
(122,-15,o),
(330,-15,cs)
);
},
{
closed = 1;
nodes = (
(198,78,o),
(148,146,o),
(148,325,cs),
(148,504,o),
(198,572,o),
(330,572,cs),
(462,572,o),
(512,504,o),
(512,325,cs),
(512,146,o),
(462,78,o),
(330,78,cs)
);
}
);
width = 660;
},
{
layerId = m004;
shapes = (
{
closed = 1;
nodes = (
(538,-15,o),
(610,76,o),
(610,325,cs),
(610,574,o),
(538,665,o),
(330,665,cs),
(122,665,o),
(50,574,o),
(50,325,cs),
(50,76,o),
(122,-15,o),
(330,-15,cs)
);
},
{
closed = 1;
nodes = (
(198,78,o),
(148,146,o),
(148,325,cs),
(148,504,o),
(198,572,o),
(330,572,cs),
(462,572,o),
(512,504,o),
(512,325,cs),
(512,146,o),
(462,78,o),
(330,78,cs)
);
}
);
width = 660;
}
);
unicode = 48;
},
{
glyphname = zero.alt;
lastChange = "2023-12-02 23:46:24 +0000";
layers = (
{
layerId = master01;
shapes = (
{
ref = zero;
},
{
closed = 1;
nodes = (
(377,261,o),
(394,278,o),
(394,325,cs),
(394,372,o),
(377,389,o),
(330,389,cs),
(283,389,o),
(266,372,o),
(266,325,cs),
(266,278,o),
(283,261,o),
(330,261,cs)
);
}
);
width = 660;
},
{
layerId = m002;
shapes = (
{
ref = zero;
},
{
closed = 1;
nodes = (
(377,261,o),
(394,278,o),
(394,325,cs),
(394,372,o),
(377,389,o),
(330,389,cs),
(283,389,o),
(266,372,o),
(266,325,cs),
(266,278,o),
(283,261,o),
(330,261,cs)
);
}
);
width = 660;
},
{
layerId = m003;
shapes = (
{
ref = zero;
},
{
closed = 1;
nodes = (
(377,261,o),
(394,278,o),
(394,325,cs),
(394,372,o),
(377,389,o),
(330,389,cs),
(283,389,o),
(266,372,o),
(266,325,cs),
(266,278,o),
(283,261,o),
(330,261,cs)
);
}
);
width = 660;
},
{
layerId = m004;
shapes = (
{
ref = zero;
},
{
closed = 1;
nodes = (
(377,261,o),
(394,278,o),
(394,325,cs),
(394,372,o),
(377,389,o),
(330,389,cs),
(283,389,o),
(266,372,o),
(266,325,cs),
(266,278,o),
(283,261,o),
(330,261,cs)
);
}
);
width = 660;
}
);
},
{
glyphname = one;
lastChange = "2023-12-02 23:46:24 +0000";
layers = (
{
background = {
shapes = (
{
closed = 1;
nodes = (
(122,458,l),
(345,559,l),
(309,587,l),
(309,40,l),
(409,40,l),
(409,650,l),
(309,650,l),
(85,547,l)
);
},
{
closed = 1;
nodes = (
(85,0,l),
(635,0,l),
(635,95,l),
(85,95,l)
);
}
);
};
layerId = master01;
shapes = (
{
closed = 1;
nodes = (
(122,458,l),
(345,559,l),
(309,587,l),
(309,40,l),
(414,40,l),
(414,650,l),
(309,650,l),
(85,547,l)
);
},
{
closed = 1;
nodes = (
(85,0,l),
(640,0,l),
(640,95,l),
(85,95,l)
);
}
);
width = 660;
},
{
background = {
shapes = (
{
closed = 1;
nodes = (
(122,458,l),
(345,559,l),
(309,587,l),
(309,40,l),
(409,40,l),
(409,650,l),
(309,650,l),
(85,547,l)
);
},
{
closed = 1;
nodes = (
(85,0,l),
(635,0,l),
(635,95,l),
(85,95,l)
);
}
);
};
layerId = m002;
shapes = (
{
closed = 1;
nodes = (
(122,458,l),
(345,559,l),
(309,587,l),
(309,40,l),
(414,40,l),
(414,650,l),
(309,650,l),
(85,547,l)
);
},
{
closed = 1;
nodes = (
(85,0,l),
(640,0,l),
(640,95,l),
(85,95,l)
);
}
);
width = 660;
},
{
background = {
shapes = (
{
closed = 1;
nodes = (
(122,458,l),
(345,559,l),
(309,587,l),
(309,40,l),
(409,40,l),
(409,650,l),
(309,650,l),
(85,547,l)
);
},
{
closed = 1;
nodes = (
(85,0,l),
(635,0,l),
(635,95,l),
(85,95,l)
);
}
);
};
layerId = m003;
shapes = (
{
closed = 1;
nodes = (
(122,458,l),
(345,559,l),
(309,587,l),
(309,40,l),
(414,40,l),
(414,650,l),
(309,650,l),
(85,547,l)
);
},
{
closed = 1;
nodes = (
(85,0,l),
(640,0,l),
(640,95,l),
(85,95,l)
);
}
);
width = 660;
},
{
background = {
shapes = (
{
closed = 1;
nodes = (
(122,458,l),
(345,559,l),
(309,587,l),
(309,40,l),
(409,40,l),
(409,650,l),
(309,650,l),
(85,547,l)
);
},
{
closed = 1;
nodes = (
(85,0,l),
(635,0,l),
(635,95,l),
(85,95,l)
);
}
);
};
layerId = m004;
shapes = (
{
closed = 1;
nodes = (
(122,458,l),
(345,559,l),
(309,587,l),
(309,40,l),
(414,40,l),
(414,650,l),
(309,650,l),
(85,547,l)
);
},
{
closed = 1;
nodes = (
(85,0,l),
(640,0,l),
(640,95,l),
(85,95,l)
);
}
);
width = 660;
}
);
unicode = 49;
},
{
glyphname = two;
lastChange = "2023-12-02 23:46:24 +0000";
layers = (
{
background = {
shapes = (
{
closed = 1;
nodes = (
(172,467,l),
(172,542,o),
(220,570,o),
(333,570,cs),
(439,570,o),
(485,531,o),
(485,457,cs),
(485,341,o),
(396,346,o),
(264,324,cs),
(133,302,o),
(72,255,o),
(72,119,cs),
(72,0,l),
(587,0,l),
(587,95,l),
(192,95,l),
(192,178,o),
(209,215,o),
(271,223,cs),
(506,255,o),
(587,328,o),
(587,462,cs),
(587,599,o),
(512,665,o),
(327,665,cs),
(145,665,o),
(72,611,o),
(72,467,c)
);
}
);
};
layerId = master01;
shapes = (
{
closed = 1;
nodes = (
(172,467,l),
(172,543,o),
(216,572,o),
(335,572,cs),
(458,572,o),
(495,543,o),
(495,467,cs),
(495,394,o),
(464,374,o),
(294,334,cs),
(126,295,o),
(65,236,o),
(65,62,cs),
(65,0,l),
(595,0,l),
(595,95,l),
(173,95,l),
(173,178,o),
(189,209,o),
(349,248,cs),
(539,294,o),
(593,345,o),
(593,467,cs),
(593,611,o),
(522,665,o),
(335,665,cs),
(151,665,o),
(74,611,o),
(74,467,c)
);
}
);
width = 660;
},
{
background = {
shapes = (
{
closed = 1;
nodes = (
(172,467,l),
(172,542,o),
(220,570,o),
(333,570,cs),
(439,570,o),
(485,531,o),
(485,457,cs),
(485,341,o),
(396,346,o),
(264,324,cs),
(133,302,o),
(72,255,o),
(72,119,cs),
(72,0,l),
(587,0,l),
(587,95,l),
(192,95,l),
(192,178,o),
(209,215,o),
(271,223,cs),
(506,255,o),
(587,328,o),
(587,462,cs),
(587,599,o),
(512,665,o),
(327,665,cs),
(145,665,o),
(72,611,o),
(72,467,c)
);
}
);
};
layerId = m002;
shapes = (
{
closed = 1;
nodes = (
(172,467,l),
(172,543,o),
(216,572,o),
(335,572,cs),
(458,572,o),
(495,543,o),
(495,467,cs),
(495,394,o),
(464,374,o),
(294,334,cs),
(126,295,o),
(65,236,o),
(65,62,cs),
(65,0,l),
(595,0,l),
(595,95,l),
(173,95,l),
(173,178,o),
(189,209,o),
(349,248,cs),
(539,294,o),
(593,345,o),
(593,467,cs),
(593,611,o),
(522,665,o),
(335,665,cs),
(151,665,o),
(74,611,o),
(74,467,c)
);
}
);
width = 660;
},
{
background = {
shapes = (
{
closed = 1;
nodes = (
(172,467,l),
(172,542,o),
(220,570,o),
(333,570,cs),
(439,570,o),
(485,531,o),
(485,457,cs),
(485,341,o),
(396,346,o),
(264,324,cs),
(133,302,o),
(72,255,o),
(72,119,cs),
(72,0,l),
(587,0,l),
(587,95,l),
(192,95,l),
(192,178,o),
(209,215,o),
(271,223,cs),
(506,255,o),
(587,328,o),
(587,462,cs),
(587,599,o),
(512,665,o),
(327,665,cs),
(145,665,o),
(72,611,o),
(72,467,c)
);
}
);
};
layerId = m003;
shapes = (
{
closed = 1;
nodes = (
(172,467,l),
(172,543,o),
(216,572,o),
(335,572,cs),
(458,572,o),
(495,543,o),
(495,467,cs),
(495,394,o),
(464,374,o),
(294,334,cs),
(126,295,o),
(65,236,o),
(65,62,cs),
(65,0,l),
(595,0,l),
(595,95,l),
(173,95,l),
(173,178,o),
(189,209,o),
(349,248,cs),
(539,294,o),
(593,345,o),
(593,467,cs),
(593,611,o),
(522,665,o),
(335,665,cs),
(151,665,o),
(74,611,o),
(74,467,c)
);
}
);
width = 660;
},
{
background = {
shapes = (
{
closed = 1;
nodes = (
(172,467,l),
(172,542,o),
(220,570,o),
(333,570,cs),
(439,570,o),
(485,531,o),
(485,457,cs),
(485,341,o),
(396,346,o),
(264,324,cs),
(133,302,o),
(72,255,o),
(72,119,cs),
(72,0,l),
(587,0,l),
(587,95,l),
(192,95,l),
(192,178,o),
(209,215,o),
(271,223,cs),
(506,255,o),
(587,328,o),
(587,462,cs),
(587,599,o),
(512,665,o),
(327,665,cs),
(145,665,o),
(72,611,o),
(72,467,c)
);
}
);
};
layerId = m004;
shapes = (
{
closed = 1;
nodes = (
(172,467,l),
(172,543,o),
(216,572,o),
(335,572,cs),
(458,572,o),
(495,543,o),
(495,467,cs),
(495,394,o),
(464,374,o),
(294,334,cs),
(126,295,o),
(65,236,o),
(65,62,cs),
(65,0,l),
(595,0,l),
(595,95,l),
(173,95,l),
(173,178,o),
(189,209,o),
(349,248,cs),
(539,294,o),
(593,345,o),
(593,467,cs),
(593,611,o),
(522,665,o),
(335,665,cs),
(151,665,o),
(74,611,o),
(74,467,c)
);
}
);
width = 660;
}
);
unicode = 50;
},
{
glyphname = three;
lastChange = "2023-12-02 23:46:24 +0000";
layers = (
{
layerId = master01;
shapes = (
{
closed = 1;
nodes = (
(573,650,l),
(573,527,l),
(337,352,l),
(332,378,l),
(354,382,o),
(375,385,o),
(395,385,cs),
(543,385,o),
(600,320,o),
(600,193,cs),
(600,81,o),
(537,-15,o),
(331,-15,cs),
(148,-15,o),
(65,44,o),
(65,191,c),
(163,191,l),
(163,108,o),
(219,78,o),
(331,78,cs),
(458,78,o),
(502,116,o),
(502,188,cs),
(502,271,o),
(461,297,o),
(367,297,cs),
(336,297,o),
(309,293,o),
(288,289,c),
(244,385,l),
(456,555,l),
(80,555,l),
(80,650,l)
);
}
);
width = 660;
},
{
layerId = m002;
shapes = (
{
closed = 1;
nodes = (
(573,650,l),
(573,527,l),
(337,352,l),
(332,378,l),
(354,382,o),
(375,385,o),
(395,385,cs),
(543,385,o),
(600,320,o),
(600,193,cs),
(600,81,o),
(537,-15,o),
(331,-15,cs),
(148,-15,o),
(65,44,o),
(65,191,c),
(163,191,l),
(163,108,o),
(219,78,o),
(331,78,cs),
(458,78,o),
(502,116,o),
(502,188,cs),
(502,271,o),
(461,297,o),
(367,297,cs),
(336,297,o),
(309,293,o),
(288,289,c),
(244,385,l),
(456,555,l),
(80,555,l),
(80,650,l)
);
}
);
width = 660;
},
{
layerId = m003;
shapes = (
{
closed = 1;
nodes = (
(573,650,l),
(573,527,l),
(337,352,l),
(332,378,l),
(354,382,o),
(375,385,o),
(395,385,cs),
(543,385,o),
(600,320,o),
(600,193,cs),
(600,81,o),
(537,-15,o),
(331,-15,cs),
(148,-15,o),
(65,44,o),
(65,191,c),
(163,191,l),
(163,108,o),
(219,78,o),
(331,78,cs),
(458,78,o),
(502,116,o),
(502,188,cs),
(502,271,o),
(461,297,o),
(367,297,cs),
(336,297,o),
(309,293,o),
(288,289,c),
(244,385,l),
(456,555,l),
(80,555,l),
(80,650,l)
);
}
);
width = 660;
},
{
layerId = m004;
shapes = (
{
closed = 1;
nodes = (
(573,650,l),
(573,527,l),
(337,352,l),
(332,378,l),
(354,382,o),
(375,385,o),
(395,385,cs),
(543,385,o),
(600,320,o),
(600,193,cs),
(600,81,o),
(537,-15,o),
(331,-15,cs),
(148,-15,o),
(65,44,o),
(65,191,c),
(163,191,l),
(163,108,o),
(219,78,o),
(331,78,cs),
(458,78,o),
(502,116,o),
(502,188,cs),
(502,271,o),
(461,297,o),
(367,297,cs),
(336,297,o),
(309,293,o),
(288,289,c),
(244,385,l),
(456,555,l),
(80,555,l),
(80,650,l)
);
}
);
width = 660;
}
);
unicode = 51;
},
{
glyphname = four;
lastChange = "2023-12-02 23:46:24 +0000";
layers = (
{
layerId = master01;
shapes = (
{
closed = 1;
nodes = (
(417,614,l),
(417,0,l),
(517,0,l),
(517,650,l),
(417,650,l),
(50,268,l),
(50,164,l),
(625,163,l),
(625,258,l),
(108,259,l),
(142,245,l),
(463,577,l)
);
}
);
width = 660;
},
{
layerId = m002;
shapes = (
{
closed = 1;
nodes = (
(417,614,l),
(417,0,l),
(517,0,l),
(517,650,l),
(417,650,l),
(50,268,l),
(50,164,l),
(625,163,l),
(625,258,l),
(108,259,l),
(142,245,l),
(463,577,l)
);
}
);
width = 660;
},
{
layerId = m003;
shapes = (
{
closed = 1;
nodes = (
(417,614,l),
(417,0,l),
(517,0,l),
(517,650,l),
(417,650,l),
(50,268,l),
(50,164,l),
(625,163,l),
(625,258,l),
(108,259,l),
(142,245,l),
(463,577,l)
);
}
);
width = 660;
},
{
layerId = m004;
shapes = (
{
closed = 1;
nodes = (
(417,614,l),
(417,0,l),
(517,0,l),
(517,650,l),
(417,650,l),
(50,268,l),
(50,164,l),
(625,163,l),
(625,258,l),
(108,259,l),
(142,245,l),
(463,577,l)
);
}
);
width = 660;
}
);
unicode = 52;
},
{
glyphname = five;
lastChange = "2023-12-02 23:46:24 +0000";
layers = (
{
background = {
shapes = (
{
closed = 1;
nodes = (
(88,338,l),
(95,650,l),
(563,650,l),
(563,555,l),
(186,555,l),
(182,349,l),
(146,380,l),
(188,392,o),
(249,410,o),
(333,410,cs),
(543,410,o),
(600,322,o),
(600,200,cs),
(600,83,o),
(541,-15,o),
(346,-15,cs),
(150,-15,o),
(60,44,o),
(60,191,c),
(158,191,l),
(158,108,o),
(221,78,o),
(346,78,cs),
(462,78,o),
(502,119,o),
(502,197,cs),
(502,281,o),
(459,318,o),
(333,318,cs),
(259,318,o),
(194,303,o),
(159,289,c)
);
}
);
};
layerId = master01;
shapes = (
{
closed = 1;
nodes = (
(88,338,l),
(95,650,l),
(563,650,l),
(563,555,l),
(186,555,l),
(182,349,l),
(146,380,l),
(199,400,o),
(249,410,o),
(333,410,cs),
(543,410,o),
(600,322,o),
(600,200,cs),
(600,83,o),
(541,-15,o),
(346,-15,cs),
(150,-15,o),
(60,44,o),
(60,191,c),
(158,191,l),
(158,108,o),
(221,78,o),
(346,78,cs),
(462,78,o),
(502,119,o),
(502,197,cs),
(502,281,o),
(459,318,o),
(333,318,cs),
(259,318,o),
(218,312,o),
(159,289,c)
);
}
);
width = 660;
},
{
background = {
shapes = (
{
closed = 1;
nodes = (
(88,338,l),
(95,650,l),
(563,650,l),
(563,555,l),
(186,555,l),
(182,349,l),
(146,380,l),
(188,392,o),
(249,410,o),
(333,410,cs),
(543,410,o),
(600,322,o),
(600,200,cs),
(600,83,o),
(541,-15,o),
(346,-15,cs),
(150,-15,o),
(60,44,o),
(60,191,c),
(158,191,l),
(158,108,o),
(221,78,o),
(346,78,cs),
(462,78,o),
(502,119,o),
(502,197,cs),
(502,281,o),
(459,318,o),
(333,318,cs),
(259,318,o),
(194,303,o),
(159,289,c)
);
}
);
};
layerId = m002;
shapes = (
{
closed = 1;
nodes = (
(88,338,l),
(95,650,l),
(563,650,l),
(563,555,l),
(186,555,l),
(182,349,l),
(146,380,l),
(199,400,o),
(249,410,o),
(333,410,cs),
(543,410,o),
(600,322,o),
(600,200,cs),
(600,83,o),
(541,-15,o),
(346,-15,cs),
(150,-15,o),
(60,44,o),
(60,191,c),
(158,191,l),
(158,108,o),
(221,78,o),
(346,78,cs),
(462,78,o),
(502,119,o),
(502,197,cs),
(502,281,o),
(459,318,o),
(333,318,cs),
(259,318,o),
(218,312,o),
(159,289,c)
);
}
);
width = 660;
},
{
background = {
shapes = (
{
closed = 1;
nodes = (
(88,338,l),
(95,650,l),
(563,650,l),
(563,555,l),
(186,555,l),
(182,349,l),
(146,380,l),
(188,392,o),
(249,410,o),
(333,410,cs),
(543,410,o),
(600,322,o),
(600,200,cs),
(600,83,o),
(541,-15,o),
(346,-15,cs),
(150,-15,o),
(60,44,o),
(60,191,c),
(158,191,l),
(158,108,o),
(221,78,o),
(346,78,cs),
(462,78,o),
(502,119,o),
(502,197,cs),
(502,281,o),
(459,318,o),
(333,318,cs),
(259,318,o),
(194,303,o),
(159,289,c)
);
}
);
};
layerId = m003;
shapes = (
{
closed = 1;
nodes = (
(88,338,l),
(95,650,l),
(563,650,l),
(563,555,l),
(186,555,l),
(182,349,l),
(146,380,l),
(199,400,o),
(249,410,o),
(333,410,cs),
(543,410,o),
(600,322,o),
(600,200,cs),
(600,83,o),
(541,-15,o),
(346,-15,cs),
(150,-15,o),
(60,44,o),
(60,191,c),
(158,191,l),
(158,108,o),
(221,78,o),
(346,78,cs),
(462,78,o),
(502,119,o),
(502,197,cs),
(502,281,o),
(459,318,o),
(333,318,cs),
(259,318,o),
(218,312,o),
(159,289,c)
);
}
);
width = 660;
},
{
background = {
shapes = (
{
closed = 1;
nodes = (
(88,338,l),
(95,650,l),
(563,650,l),
(563,555,l),
(186,555,l),
(182,349,l),
(146,380,l),
(188,392,o),
(249,410,o),
(333,410,cs),
(543,410,o),
(600,322,o),
(600,200,cs),
(600,83,o),
(541,-15,o),
(346,-15,cs),
(150,-15,o),
(60,44,o),
(60,191,c),
(158,191,l),
(158,108,o),
(221,78,o),
(346,78,cs),
(462,78,o),
(502,119,o),
(502,197,cs),
(502,281,o),
(459,318,o),
(333,318,cs),
(259,318,o),
(194,303,o),
(159,289,c)
);
}
);
};
layerId = m004;
shapes = (
{
closed = 1;
nodes = (
(88,338,l),
(95,650,l),
(563,650,l),
(563,555,l),
(186,555,l),
(182,349,l),
(146,380,l),
(199,400,o),
(249,410,o),
(333,410,cs),
(543,410,o),
(600,322,o),
(600,200,cs),
(600,83,o),
(541,-15,o),
(346,-15,cs),
(150,-15,o),
(60,44,o),
(60,191,c),
(158,191,l),
(158,108,o),
(221,78,o),
(346,78,cs),
(462,78,o),
(502,119,o),
(502,197,cs),
(502,281,o),
(459,318,o),
(333,318,cs),
(259,318,o),
(218,312,o),
(159,289,c)
);
}
);
width = 660;
}
);
unicode = 53;
},
{
glyphname = six;
lastChange = "2023-12-02 23:46:24 +0000";
layers = (
{
layerId = master01;
shapes = (
{
closed = 1;
nodes = (
(161,203,l),
(161,293,o),
(214,327,o),
(334,327,cs),
(454,327,o),
(507,293,o),
(507,203,cs),
(507,113,o),
(454,79,o),
(334,79,cs),
(214,79,o),
(161,113,o),
(161,203,c),
(148,332,l),
(148,527,o),
(217,572,o),
(336,572,cs),
(432,572,o),
(477,541,o),
(490,485,c),
(588,485,l),
(576,604,o),
(496,665,o),
(330,665,cs),
(136,665,o),
(50,570,o),
(50,329,cs),
(50,87,o),
(109,-14,o),
(334,-14,cs),
(509,-14,o),
(605,49,o),
(605,203,cs),
(605,362,o),
(515,420,o),
(338,420,cs),
(190,420,o),
(123,337,o),
(116,284,c)
);
}
);
width = 660;
},
{
layerId = m002;
shapes = (
{
closed = 1;
nodes = (
(161,203,l),
(161,293,o),
(214,327,o),
(334,327,cs),
(454,327,o),
(507,293,o),
(507,203,cs),
(507,113,o),
(454,79,o),
(334,79,cs),
(214,79,o),
(161,113,o),
(161,203,c),
(148,332,l),
(148,527,o),
(217,572,o),
(336,572,cs),
(432,572,o),
(477,541,o),
(490,485,c),
(588,485,l),
(576,604,o),
(496,665,o),
(330,665,cs),
(136,665,o),
(50,570,o),
(50,329,cs),
(50,87,o),
(109,-14,o),
(334,-14,cs),
(509,-14,o),
(605,49,o),
(605,203,cs),
(605,362,o),
(515,420,o),
(338,420,cs),
(190,420,o),
(123,337,o),
(116,284,c)
);
}
);
width = 660;
},
{
layerId = m003;
shapes = (
{
closed = 1;
nodes = (
(161,203,l),
(161,293,o),
(214,327,o),
(334,327,cs),
(454,327,o),
(507,293,o),
(507,203,cs),
(507,113,o),
(454,79,o),
(334,79,cs),
(214,79,o),
(161,113,o),
(161,203,c),
(148,332,l),
(148,527,o),
(217,572,o),
(336,572,cs),
(432,572,o),
(477,541,o),
(490,485,c),
(588,485,l),
(576,604,o),
(496,665,o),
(330,665,cs),
(136,665,o),
(50,570,o),
(50,329,cs),
(50,87,o),
(109,-14,o),
(334,-14,cs),
(509,-14,o),
(605,49,o),
(605,203,cs),
(605,362,o),
(515,420,o),
(338,420,cs),
(190,420,o),
(123,337,o),
(116,284,c)
);
}
);
width = 660;
},
{
layerId = m004;
shapes = (
{
closed = 1;
nodes = (
(161,203,l),
(161,293,o),
(214,327,o),
(334,327,cs),
(454,327,o),
(507,293,o),
(507,203,cs),
(507,113,o),
(454,79,o),
(334,79,cs),
(214,79,o),
(161,113,o),
(161,203,c),
(148,332,l),
(148,527,o),
(217,572,o),
(336,572,cs),
(432,572,o),
(477,541,o),
(490,485,c),
(588,485,l),
(576,604,o),
(496,665,o),
(330,665,cs),
(136,665,o),
(50,570,o),
(50,329,cs),
(50,87,o),
(109,-14,o),
(334,-14,cs),
(509,-14,o),
(605,49,o),
(605,203,cs),
(605,362,o),
(515,420,o),
(338,420,cs),
(190,420,o),
(123,337,o),
(116,284,c)
);
}
);
width = 660;
}
);
unicode = 54;
},
{
glyphname = seven;
lastChange = "2023-12-02 23:46:24 +0000";
layers = (
{
layerId = master01;
shapes = (
{
closed = 1;
nodes = (
(55,647,l),
(55,545,l),
(620,545,l),
(620,647,l)
);
},
{
closed = 1;
nodes = (
(135,1,l),
(271,1,l),
(620,545,l),
(524,595,l)
);
}
);
width = 660;
},
{
layerId = m002;
shapes = (
{
closed = 1;
nodes = (
(55,647,l),
(55,545,l),
(620,545,l),
(620,647,l)
);
},
{
closed = 1;
nodes = (
(135,1,l),
(271,1,l),
(620,545,l),
(524,595,l)
);
}
);
width = 660;
},
{
layerId = m003;
shapes = (
{
closed = 1;
nodes = (
(55,647,l),
(55,545,l),
(620,545,l),
(620,647,l)
);
},
{
closed = 1;
nodes = (
(135,1,l),
(271,1,l),
(620,545,l),
(524,595,l)
);
}
);
width = 660;
},
{
layerId = m004;
shapes = (
{
closed = 1;
nodes = (
(55,647,l),
(55,545,l),
(620,545,l),
(620,647,l)
);
},
{
closed = 1;
nodes = (
(135,1,l),
(271,1,l),
(620,545,l),
(524,595,l)
);
}
);
width = 660;
}
);
unicode = 55;
},
{
glyphname = eight;
lastChange = "2023-12-02 23:46:24 +0000";
layers = (
{
background = {
shapes = (
{
closed = 1;
nodes = (
(519,317,o),
(580,365,o),
(580,495,cs),
(580,625,o),
(516,665,o),
(330,665,cs),
(144,665,o),
(80,625,o),
(80,495,cs),
(80,365,o),
(141,317,o),
(330,317,cs)
);
},
{
closed = 1;
nodes = (
(204,381,o),
(177,407,o),
(177,477,cs),
(177,547,o),
(204,572,o),
(330,572,cs),
(456,572,o),
(483,547,o),
(483,477,cs),
(483,407,o),
(456,381,o),
(330,381,cs)
);
},
{
closed = 1;
nodes = (
(534,-15,o),
(605,34,o),
(605,168,cs),
(605,302,o),
(537,352,o),
(330,352,cs),
(123,352,o),
(55,302,o),
(55,168,cs),
(55,34,o),
(126,-15,o),
(330,-15,cs)
);
},
{
closed = 1;
nodes = (
(186,78,o),
(153,100,o),
(153,184,cs),
(153,268,o),
(186,288,o),
(330,288,cs),
(474,288,o),
(507,268,o),
(507,184,cs),
(507,100,o),
(474,78,o),
(330,78,cs)
);
}
);
};
layerId = master01;
shapes = (
{
closed = 1;
nodes = (
(519,317,o),
(580,365,o),
(580,495,cs),
(580,625,o),
(516,665,o),
(330,665,cs),
(144,665,o),
(80,625,o),
(80,495,cs),
(80,365,o),
(141,317,o),
(330,317,cs)
);
},
{
closed = 1;
nodes = (
(204,381,o),
(177,407,o),
(177,477,cs),
(177,547,o),
(204,572,o),
(330,572,cs),
(456,572,o),
(483,547,o),
(483,477,cs),
(483,407,o),
(456,381,o),
(330,381,cs)
);
},
{
closed = 1;
nodes = (
(534,-15,o),
(605,34,o),
(605,168,cs),
(605,302,o),
(537,352,o),
(330,352,cs),
(123,352,o),
(55,302,o),
(55,168,cs),
(55,34,o),
(126,-15,o),
(330,-15,cs)
);
},
{
closed = 1;
nodes = (
(186,78,o),
(153,100,o),
(153,184,cs),
(153,268,o),
(186,288,o),
(330,288,cs),
(474,288,o),
(507,268,o),
(507,184,cs),
(507,100,o),
(474,78,o),
(330,78,cs)
);
}
);
width = 660;
},
{
background = {
shapes = (
{
closed = 1;
nodes = (
(519,317,o),
(580,365,o),
(580,495,cs),
(580,625,o),
(516,665,o),
(330,665,cs),
(144,665,o),
(80,625,o),
(80,495,cs),
(80,365,o),
(141,317,o),
(330,317,cs)
);
},
{
closed = 1;
nodes = (
(204,381,o),
(177,407,o),
(177,477,cs),
(177,547,o),
(204,572,o),
(330,572,cs),
(456,572,o),
(483,547,o),
(483,477,cs),
(483,407,o),
(456,381,o),
(330,381,cs)
);
},
{
closed = 1;
nodes = (
(534,-15,o),
(605,34,o),
(605,168,cs),
(605,302,o),
(537,352,o),
(330,352,cs),
(123,352,o),
(55,302,o),
(55,168,cs),
(55,34,o),
(126,-15,o),
(330,-15,cs)
);
},
{
closed = 1;
nodes = (
(186,78,o),
(153,100,o),
(153,184,cs),
(153,268,o),
(186,288,o),
(330,288,cs),
(474,288,o),
(507,268,o),
(507,184,cs),
(507,100,o),
(474,78,o),
(330,78,cs)
);
}
);
};
layerId = m002;
shapes = (
{
closed = 1;
nodes = (
(519,317,o),
(580,365,o),
(580,495,cs),
(580,625,o),
(516,665,o),
(330,665,cs),
(144,665,o),
(80,625,o),
(80,495,cs),
(80,365,o),
(141,317,o),
(330,317,cs)
);
},
{
closed = 1;
nodes = (
(204,381,o),
(177,407,o),
(177,477,cs),
(177,547,o),
(204,572,o),
(330,572,cs),
(456,572,o),
(483,547,o),
(483,477,cs),
(483,407,o),
(456,381,o),
(330,381,cs)
);
},
{
closed = 1;
nodes = (
(534,-15,o),
(605,34,o),
(605,168,cs),
(605,302,o),
(537,352,o),
(330,352,cs),
(123,352,o),
(55,302,o),
(55,168,cs),
(55,34,o),
(126,-15,o),
(330,-15,cs)
);
},
{
closed = 1;
nodes = (
(186,78,o),
(153,100,o),
(153,184,cs),
(153,268,o),
(186,288,o),
(330,288,cs),
(474,288,o),
(507,268,o),
(507,184,cs),
(507,100,o),
(474,78,o),
(330,78,cs)
);
}
);
width = 660;
},
{
background = {
shapes = (
{
closed = 1;
nodes = (
(519,317,o),
(580,365,o),
(580,495,cs),
(580,625,o),
(516,665,o),
(330,665,cs),
(144,665,o),
(80,625,o),
(80,495,cs),
(80,365,o),
(141,317,o),
(330,317,cs)
);
},
{
closed = 1;
nodes = (
(204,381,o),
(177,407,o),
(177,477,cs),
(177,547,o),
(204,572,o),
(330,572,cs),
(456,572,o),
(483,547,o),
(483,477,cs),
(483,407,o),
(456,381,o),
(330,381,cs)
);
},
{
closed = 1;
nodes = (
(534,-15,o),
(605,34,o),
(605,168,cs),
(605,302,o),
(537,352,o),
(330,352,cs),
(123,352,o),
(55,302,o),
(55,168,cs),
(55,34,o),
(126,-15,o),
(330,-15,cs)
);
},
{
closed = 1;
nodes = (
(186,78,o),
(153,100,o),
(153,184,cs),
(153,268,o),
(186,288,o),
(330,288,cs),
(474,288,o),
(507,268,o),
(507,184,cs),
(507,100,o),
(474,78,o),
(330,78,cs)
);
}
);
};
layerId = m003;
shapes = (
{
closed = 1;
nodes = (
(519,317,o),
(580,365,o),
(580,495,cs),
(580,625,o),
(516,665,o),
(330,665,cs),
(144,665,o),
(80,625,o),
(80,495,cs),
(80,365,o),
(141,317,o),
(330,317,cs)
);
},
{
closed = 1;
nodes = (
(204,381,o),
(177,407,o),
(177,477,cs),
(177,547,o),
(204,572,o),
(330,572,cs),
(456,572,o),
(483,547,o),
(483,477,cs),
(483,407,o),
(456,381,o),
(330,381,cs)
);
},
{
closed = 1;
nodes = (
(534,-15,o),
(605,34,o),
(605,168,cs),
(605,302,o),
(537,352,o),
(330,352,cs),
(123,352,o),
(55,302,o),
(55,168,cs),
(55,34,o),
(126,-15,o),
(330,-15,cs)
);
},
{
closed = 1;
nodes = (
(186,78,o),
(153,100,o),
(153,184,cs),
(153,268,o),
(186,288,o),
(330,288,cs),
(474,288,o),
(507,268,o),
(507,184,cs),
(507,100,o),
(474,78,o),
(330,78,cs)
);
}
);
width = 660;
},
{
background = {
shapes = (
{
closed = 1;
nodes = (
(519,317,o),
(580,365,o),
(580,495,cs),
(580,625,o),
(516,665,o),
(330,665,cs),
(144,665,o),
(80,625,o),
(80,495,cs),
(80,365,o),
(141,317,o),
(330,317,cs)
);
},
{
closed = 1;
nodes = (
(204,381,o),
(177,407,o),
(177,477,cs),
(177,547,o),
(204,572,o),
(330,572,cs),
(456,572,o),
(483,547,o),
(483,477,cs),
(483,407,o),
(456,381,o),
(330,381,cs)
);
},
{
closed = 1;
nodes = (
(534,-15,o),
(605,34,o),
(605,168,cs),
(605,302,o),
(537,352,o),
(330,352,cs),
(123,352,o),
(55,302,o),
(55,168,cs),
(55,34,o),
(126,-15,o),
(330,-15,cs)
);
},
{
closed = 1;
nodes = (
(186,78,o),
(153,100,o),
(153,184,cs),
(153,268,o),
(186,288,o),
(330,288,cs),
(474,288,o),
(507,268,o),
(507,184,cs),
(507,100,o),
(474,78,o),
(330,78,cs)
);
}
);
};
layerId = m004;
shapes = (
{
closed = 1;
nodes = (
(519,317,o),
(580,365,o),
(580,495,cs),
(580,625,o),
(516,665,o),
(330,665,cs),
(144,665,o),
(80,625,o),
(80,495,cs),
(80,365,o),
(141,317,o),
(330,317,cs)
);
},
{
closed = 1;
nodes = (
(204,381,o),
(177,407,o),
(177,477,cs),
(177,547,o),
(204,572,o),
(330,572,cs),
(456,572,o),
(483,547,o),
(483,477,cs),
(483,407,o),
(456,381,o),
(330,381,cs)
);
},
{
closed = 1;
nodes = (
(534,-15,o),
(605,34,o),
(605,168,cs),
(605,302,o),
(537,352,o),
(330,352,cs),
(123,352,o),
(55,302,o),
(55,168,cs),
(55,34,o),
(126,-15,o),
(330,-15,cs)
);
},
{
closed = 1;
nodes = (
(186,78,o),
(153,100,o),
(153,184,cs),
(153,268,o),
(186,288,o),
(330,288,cs),
(474,288,o),
(507,268,o),
(507,184,cs),
(507,100,o),
(474,78,o),
(330,78,cs)
);
}
);
width = 660;
}
);
unicode = 56;
},
{
glyphname = at;
lastChange = "2023-12-02 23:46:24 +0000";
layers = (
{
background = {
shapes = (
{
closed = 1;
nodes = (
(336,353,o),
(308,314,o),
(308,223,cs),
(308,123,o),
(336,93,o),
(397,93,cs),
(458,93,o),
(486,123,o),
(486,223,cs),
(486,314,o),
(458,353,o),
(397,353,cs)
);
},
{
closed = 1;
nodes = (
(539,-126,l),
(392,-126,ls),
(169,-126,o),
(54,-53,o),
(54,224,cs),
(54,501,o),
(169,584,o),
(392,584,cs),
(625,584,o),
(735,501,o),
(735,254,cs),
(735,52,o),
(644,25,o),
(561,25,c),
(401,25,l),
(401,93,l),
(518,88,l),
(613,88,o),
(653,106,o),
(653,254,cs),
(653,449,o),
(572,507,o),
(392,507,cs),
(222,507,o),
(136,449,o),
(136,224,cs),
(136,-1,o),
(222,-49,o),
(392,-49,cs),
(539,-49,l)
);
},
{
closed = 1;
nodes = (
(288,25,o),
(235,82,o),
(235,223,cs),
(235,365,o),
(280,422,o),
(393,422,cs),
(514,422,o),
(554,365,o),
(554,223,cs),
(554,164,o),
(542,107,o),
(521,88,c),
(401,25,l)
);
}
);
};
layerId = master01;
shapes = (
{
closed = 1;
nodes = (
(729,209,o),
(688,142,o),
(603,142,cs),
(538,142,o),
(493,170,o),
(493,259,c),
(509,259,l),
(509,179,o),
(473,142,o),
(371,142,cs),
(253,142,o),
(208,174,o),
(208,253,cs),
(208,332,o),
(254,362,o),
(376,362,cs),
(502,362,l),
(502,299,l),
(375,299,ls),
(305,299,o),
(287,287,o),
(287,258,cs),
(287,229,o),
(304,216,o),
(373,216,cs),
(455,216,o),
(479,237,o),
(479,308,cs),
(479,377,ls),
(479,429,o),
(453,453,o),
(383,453,cs),
(337,453,o),
(306,440,o),
(302,409,c),
(223,409,l),
(233,492,o),
(288,527,o),
(389,527,cs),
(508,527,o),
(553,480,o),
(554,381,cs),
(555,285,ls),
(555,242,o),
(571,211,o),
(603,211,cs),
(639,211,o),
(652,248,o),
(652,346,cs),
(652,548,o),
(612,586,o),
(399,586,cs),
(375,586,ls),
(163,586,o),
(124,548,o),
(124,343,cs),
(124,308,ls),
(124,102,o),
(164,64,o),
(377,64,cs),
(440,64,ls),
(503,64,o),
(586,68,o),
(617,69,c),
(617,-5,l),
(591,-6,o),
(503,-10,o),
(440,-10,cs),
(377,-10,ls),
(116,-10,o),
(45,58,o),
(45,308,cs),
(45,343,ls),
(45,592,o),
(116,660,o),
(375,660,cs),
(399,660,ls),
(658,660,o),
(729,593,o),
(729,346,cs)
);
}
);
width = 769;
},
{
background = {
shapes = (
{
closed = 1;
nodes = (
(336,353,o),
(308,314,o),
(308,223,cs),
(308,123,o),
(336,93,o),
(397,93,cs),
(458,93,o),
(486,123,o),
(486,223,cs),
(486,314,o),
(458,353,o),
(397,353,cs)
);
},
{
closed = 1;
nodes = (
(539,-126,l),
(392,-126,ls),
(169,-126,o),
(54,-53,o),
(54,224,cs),
(54,501,o),
(169,584,o),
(392,584,cs),
(625,584,o),
(735,501,o),
(735,254,cs),
(735,52,o),
(644,25,o),
(561,25,c),
(401,25,l),
(401,93,l),
(518,88,l),
(613,88,o),
(653,106,o),
(653,254,cs),
(653,449,o),
(572,507,o),
(392,507,cs),
(222,507,o),
(136,449,o),
(136,224,cs),
(136,-1,o),
(222,-49,o),
(392,-49,cs),
(539,-49,l)
);
},
{
closed = 1;
nodes = (
(288,25,o),
(235,82,o),
(235,223,cs),
(235,365,o),
(280,422,o),
(393,422,cs),
(514,422,o),
(554,365,o),
(554,223,cs),
(554,164,o),
(542,107,o),
(521,88,c),
(401,25,l)
);
}
);
};
layerId = m002;
shapes = (
{
closed = 1;
nodes = (
(729,209,o),
(688,142,o),
(603,142,cs),
(538,142,o),
(493,170,o),
(493,259,c),
(509,259,l),
(509,179,o),
(473,142,o),
(371,142,cs),
(253,142,o),
(208,174,o),
(208,253,cs),
(208,332,o),
(254,362,o),
(376,362,cs),
(502,362,l),
(502,299,l),
(375,299,ls),
(305,299,o),
(287,287,o),
(287,258,cs),
(287,229,o),
(304,216,o),
(373,216,cs),
(455,216,o),
(479,237,o),
(479,308,cs),
(479,377,ls),
(479,429,o),
(453,453,o),
(383,453,cs),
(337,453,o),
(306,440,o),
(302,409,c),
(223,409,l),
(233,492,o),
(288,527,o),
(389,527,cs),
(508,527,o),
(553,480,o),
(554,381,cs),
(555,285,ls),
(555,242,o),
(571,211,o),
(603,211,cs),
(639,211,o),
(652,248,o),
(652,346,cs),
(652,548,o),
(612,586,o),
(399,586,cs),
(375,586,ls),
(163,586,o),
(124,548,o),
(124,343,cs),
(124,308,ls),
(124,102,o),
(164,64,o),
(377,64,cs),
(440,64,ls),
(503,64,o),
(586,68,o),
(617,69,c),
(617,-5,l),
(591,-6,o),
(503,-10,o),
(440,-10,cs),
(377,-10,ls),
(116,-10,o),
(45,58,o),
(45,308,cs),
(45,343,ls),
(45,592,o),
(116,660,o),
(375,660,cs),
(399,660,ls),
(658,660,o),
(729,593,o),
(729,346,cs)
);
}
);
width = 769;
},
{
background = {
shapes = (
{
closed = 1;
nodes = (
(336,353,o),
(308,314,o),
(308,223,cs),
(308,123,o),
(336,93,o),
(397,93,cs),
(458,93,o),
(486,123,o),
(486,223,cs),
(486,314,o),
(458,353,o),
(397,353,cs)
);
},
{
closed = 1;
nodes = (
(539,-126,l),
(392,-126,ls),
(169,-126,o),
(54,-53,o),
(54,224,cs),
(54,501,o),
(169,584,o),
(392,584,cs),
(625,584,o),
(735,501,o),
(735,254,cs),
(735,52,o),
(644,25,o),
(561,25,c),
(401,25,l),
(401,93,l),
(518,88,l),
(613,88,o),
(653,106,o),
(653,254,cs),
(653,449,o),
(572,507,o),
(392,507,cs),
(222,507,o),
(136,449,o),
(136,224,cs),
(136,-1,o),
(222,-49,o),
(392,-49,cs),
(539,-49,l)
);
},
{
closed = 1;
nodes = (
(288,25,o),
(235,82,o),
(235,223,cs),
(235,365,o),
(280,422,o),
(393,422,cs),
(514,422,o),
(554,365,o),
(554,223,cs),
(554,164,o),
(542,107,o),
(521,88,c),
(401,25,l)
);
}
);
};
layerId = m003;
shapes = (
{
closed = 1;
nodes = (
(729,209,o),
(688,142,o),
(603,142,cs),
(538,142,o),
(493,170,o),
(493,259,c),
(509,259,l),
(509,179,o),
(473,142,o),
(371,142,cs),
(253,142,o),
(208,174,o),
(208,253,cs),
(208,332,o),
(254,362,o),
(376,362,cs),
(502,362,l),
(502,299,l),
(375,299,ls),
(305,299,o),
(287,287,o),
(287,258,cs),
(287,229,o),
(304,216,o),
(373,216,cs),
(455,216,o),
(479,237,o),
(479,308,cs),
(479,377,ls),
(479,429,o),
(453,453,o),
(383,453,cs),
(337,453,o),
(306,440,o),
(302,409,c),
(223,409,l),
(233,492,o),
(288,527,o),
(389,527,cs),
(508,527,o),
(553,480,o),
(554,381,cs),
(555,285,ls),
(555,242,o),
(571,211,o),
(603,211,cs),
(639,211,o),
(652,248,o),
(652,346,cs),
(652,548,o),
(612,586,o),
(399,586,cs),
(375,586,ls),
(163,586,o),
(124,548,o),
(124,343,cs),
(124,308,ls),
(124,102,o),
(164,64,o),
(377,64,cs),
(440,64,ls),
(503,64,o),
(586,68,o),
(617,69,c),
(617,-5,l),
(591,-6,o),
(503,-10,o),
(440,-10,cs),
(377,-10,ls),
(116,-10,o),
(45,58,o),
(45,308,cs),
(45,343,ls),
(45,592,o),
(116,660,o),
(375,660,cs),
(399,660,ls),
(658,660,o),
(729,593,o),
(729,346,cs)
);
}
);
width = 769;
},
{
background = {
shapes = (
{
closed = 1;
nodes = (
(336,353,o),
(308,314,o),
(308,223,cs),
(308,123,o),
(336,93,o),
(397,93,cs),
(458,93,o),
(486,123,o),
(486,223,cs),
(486,314,o),
(458,353,o),
(397,353,cs)
);
},
{
closed = 1;
nodes = (
(539,-126,l),
(392,-126,ls),
(169,-126,o),
(54,-53,o),
(54,224,cs),
(54,501,o),
(169,584,o),
(392,584,cs),
(625,584,o),
(735,501,o),
(735,254,cs),
(735,52,o),
(644,25,o),
(561,25,c),
(401,25,l),
(401,93,l),
(518,88,l),
(613,88,o),
(653,106,o),
(653,254,cs),
(653,449,o),
(572,507,o),
(392,507,cs),
(222,507,o),
(136,449,o),
(136,224,cs),
(136,-1,o),
(222,-49,o),
(392,-49,cs),
(539,-49,l)
);
},
{
closed = 1;
nodes = (
(288,25,o),
(235,82,o),
(235,223,cs),
(235,365,o),
(280,422,o),
(393,422,cs),
(514,422,o),
(554,365,o),
(554,223,cs),
(554,164,o),
(542,107,o),
(521,88,c),
(401,25,l)
);
}
);
};
layerId = m004;
shapes = (
{
closed = 1;
nodes = (
(729,209,o),
(688,142,o),
(603,142,cs),
(538,142,o),
(493,170,o),
(493,259,c),
(509,259,l),
(509,179,o),
(473,142,o),
(371,142,cs),
(253,142,o),
(208,174,o),
(208,253,cs),
(208,332,o),
(254,362,o),
(376,362,cs),
(502,362,l),
(502,299,l),
(375,299,ls),
(305,299,o),
(287,287,o),
(287,258,cs),
(287,229,o),
(304,216,o),
(373,216,cs),
(455,216,o),
(479,237,o),
(479,308,cs),
(479,377,ls),
(479,429,o),
(453,453,o),
(383,453,cs),
(337,453,o),
(306,440,o),
(302,409,c),
(223,409,l),
(233,492,o),
(288,527,o),
(389,527,cs),
(508,527,o),
(553,480,o),
(554,381,cs),
(555,285,ls),
(555,242,o),
(571,211,o),
(603,211,cs),
(639,211,o),
(652,248,o),
(652,346,cs),
(652,548,o),
(612,586,o),
(399,586,cs),
(375,586,ls),
(163,586,o),
(124,548,o),
(124,343,cs),
(124,308,ls),
(124,102,o),
(164,64,o),
(377,64,cs),
(440,64,ls),
(503,64,o),
(586,68,o),
(617,69,c),
(617,-5,l),
(591,-6,o),
(503,-10,o),
(440,-10,cs),
(377,-10,ls),
(116,-10,o),
(45,58,o),
(45,308,cs),
(45,343,ls),
(45,592,o),
(116,660,o),
(375,660,cs),
(399,660,ls),
(658,660,o),
(729,593,o),
(729,346,cs)
);
}
);
width = 769;
}
);
unicode = 64;
},
{
glyphname = ampersand;
lastChange = "2023-12-02 23:46:24 +0000";
layers = (
{
layerId = master01;
shapes = (
{
closed = 1;
nodes = (
(110,396,o),
(166,347,o),
(517,83,c),
(550,73,l),
(565,49,o),
(584,29,o),
(646,-15,c),
(705,74,l),
(340,348,o),
(212,437,o),
(212,502,cs),
(212,552,o),
(243,570,o),
(327,570,cs),
(415,570,o),
(447,552,o),
(447,501,cs),
(447,459,l),
(547,459,l),
(547,501,ls),
(547,606,o),
(494,665,o),
(327,665,cs),
(165,665,o),
(110,606,o),
(110,502,cs)
);
},
{
closed = 1;
nodes = (
(294,362,l),
(103,362,o),
(50,275,o),
(50,185,cs),
(50,39,o),
(134,-15,o),
(342,-15,cs),
(481,-15,o),
(558,16,o),
(596,96,c),
(611,123,o),
(628,163,o),
(628,234,cs),
(628,362,l),
(528,362,l),
(528,213,ls),
(528,114,o),
(478,80,o),
(342,80,cs),
(208,80,o),
(150,111,o),
(150,185,cs),
(150,250,o),
(196,280,o),
(294,280,c)
);
}
);
width = 710;
},
{
layerId = m002;
shapes = (
{
closed = 1;
nodes = (
(110,396,o),
(166,347,o),
(517,83,c),
(550,73,l),
(565,49,o),
(584,29,o),
(646,-15,c),
(705,74,l),
(340,348,o),
(212,437,o),
(212,502,cs),
(212,552,o),
(243,570,o),
(327,570,cs),
(415,570,o),
(447,552,o),
(447,501,cs),
(447,459,l),
(547,459,l),
(547,501,ls),
(547,606,o),
(494,665,o),
(327,665,cs),
(165,665,o),
(110,606,o),
(110,502,cs)
);
},
{
closed = 1;
nodes = (
(294,362,l),
(103,362,o),
(50,275,o),
(50,185,cs),
(50,39,o),
(134,-15,o),
(342,-15,cs),
(481,-15,o),
(558,16,o),
(596,96,c),
(611,123,o),
(628,163,o),
(628,234,cs),
(628,362,l),
(528,362,l),
(528,213,ls),
(528,114,o),
(478,80,o),
(342,80,cs),
(208,80,o),
(150,111,o),
(150,185,cs),
(150,250,o),
(196,280,o),
(294,280,c)
);
}
);
width = 710;
},
{
layerId = m003;
shapes = (
{
closed = 1;
nodes = (
(110,396,o),
(166,347,o),
(517,83,c),
(550,73,l),
(565,49,o),
(584,29,o),
(646,-15,c),
(705,74,l),
(340,348,o),
(212,437,o),
(212,502,cs),
(212,552,o),
(243,570,o),
(327,570,cs),
(415,570,o),
(447,552,o),
(447,501,cs),
(447,459,l),
(547,459,l),
(547,501,ls),
(547,606,o),
(494,665,o),
(327,665,cs),
(165,665,o),
(110,606,o),
(110,502,cs)
);
},
{
closed = 1;
nodes = (
(294,362,l),
(103,362,o),
(50,275,o),
(50,185,cs),
(50,39,o),
(134,-15,o),
(342,-15,cs),
(481,-15,o),
(558,16,o),
(596,96,c),
(611,123,o),
(628,163,o),
(628,234,cs),
(628,362,l),
(528,362,l),
(528,213,ls),
(528,114,o),
(478,80,o),
(342,80,cs),
(208,80,o),
(150,111,o),
(150,185,cs),
(150,250,o),
(196,280,o),
(294,280,c)
);
}
);
width = 710;
},
{
layerId = m004;
shapes = (
{
closed = 1;
nodes = (
(110,396,o),
(166,347,o),
(517,83,c),
(550,73,l),
(565,49,o),
(584,29,o),
(646,-15,c),
(705,74,l),
(340,348,o),
(212,437,o),
(212,502,cs),
(212,552,o),
(243,570,o),
(327,570,cs),
(415,570,o),
(447,552,o),
(447,501,cs),
(447,459,l),
(547,459,l),
(547,501,ls),
(547,606,o),
(494,665,o),
(327,665,cs),
(165,665,o),
(110,606,o),
(110,502,cs)
);
},
{
closed = 1;
nodes = (
(294,362,l),
(103,362,o),
(50,275,o),
(50,185,cs),
(50,39,o),
(134,-15,o),
(342,-15,cs),
(481,-15,o),
(558,16,o),
(596,96,c),
(611,123,o),
(628,163,o),
(628,234,cs),
(628,362,l),
(528,362,l),
(528,213,ls),
(528,114,o),
(478,80,o),
(342,80,cs),
(208,80,o),
(150,111,o),
(150,185,cs),
(150,250,o),
(196,280,o),
(294,280,c)
);
}
);
width = 710;
}
);
unicode = 38;
},
{
glyphname = numbersign;
lastChange = "2023-12-02 23:46:24 +0000";
layers = (
{
anchors = (
{
name = _top;
pos = (218,500);
},
{
name = top;
pos = (218,500);
}
);
layerId = master01;
shapes = (
{
closed = 1;
nodes = (
(751,436,l),
(751,517,l),
(90,517,l),
(90,436,l)
);
},
{
closed = 1;
nodes = (
(170,0,l),
(251,0,l),
(371,700,l),
(290,700,l)
);
},
{
closed = 1;
nodes = (
(440,0,l),
(521,0,l),
(641,700,l),
(560,700,l)
);
},
{
closed = 1;
nodes = (
(721,185,l),
(721,266,l),
(60,266,l),
(60,185,l)
);
}
);
width = 811;
},
{
anchors = (
{
name = _top;
pos = (218,500);
},
{
name = top;
pos = (218,500);
}
);
layerId = m002;
shapes = (
{
closed = 1;
nodes = (
(751,436,l),
(751,517,l),
(90,517,l),
(90,436,l)
);
},
{
closed = 1;
nodes = (
(170,0,l),
(251,0,l),
(371,700,l),
(290,700,l)
);
},
{
closed = 1;
nodes = (
(440,0,l),
(521,0,l),
(641,700,l),
(560,700,l)
);
},
{
closed = 1;
nodes = (
(721,185,l),
(721,266,l),
(60,266,l),
(60,185,l)
);
}
);
width = 811;
},
{
anchors = (
{
name = _top;
pos = (218,500);
},
{
name = top;
pos = (218,500);
}
);
layerId = m003;
shapes = (
{
closed = 1;
nodes = (
(751,436,l),
(751,517,l),
(90,517,l),
(90,436,l)
);
},
{
closed = 1;
nodes = (
(170,0,l),
(251,0,l),
(371,700,l),
(290,700,l)
);
},
{
closed = 1;
nodes = (
(440,0,l),
(521,0,l),
(641,700,l),
(560,700,l)
);
},
{
closed = 1;
nodes = (
(721,185,l),
(721,266,l),
(60,266,l),
(60,185,l)
);
}
);
width = 811;
},
{
anchors = (
{
name = _top;
pos = (218,500);
},
{
name = top;
pos = (218,500);
}
);
layerId = m004;
shapes = (
{
closed = 1;
nodes = (
(751,436,l),
(751,517,l),
(90,517,l),
(90,436,l)
);
},
{
closed = 1;
nodes = (
(170,0,l),
(251,0,l),
(371,700,l),
(290,700,l)
);
},
{
closed = 1;
nodes = (
(440,0,l),
(521,0,l),
(641,700,l),
(560,700,l)
);
},
{
closed = 1;
nodes = (
(721,185,l),
(721,266,l),
(60,266,l),
(60,185,l)
);
}
);
width = 811;
}
);
unicode = 35;
},
{
glyphname = period;
lastChange = "2023-12-02 23:46:24 +0000";
layers = (
{
layerId = master01;
shapes = (
{
closed = 1;
nodes = (
(208,-15,o),
(230,5,o),
(230,57,cs),
(230,109,o),
(208,129,o),
(150,129,cs),
(92,129,o),
(70,109,o),
(70,57,cs),
(70,5,o),
(92,-15,o),
(150,-15,cs)
);
}
);
width = 300;
},
{
layerId = m002;
shapes = (
{
closed = 1;
nodes = (
(208,-15,o),
(230,5,o),
(230,57,cs),
(230,109,o),
(208,129,o),
(150,129,cs),
(92,129,o),
(70,109,o),
(70,57,cs),
(70,5,o),
(92,-15,o),
(150,-15,cs)
);
}
);
width = 300;
},
{
layerId = m003;
shapes = (
{
closed = 1;
nodes = (
(208,-15,o),
(230,5,o),
(230,57,cs),
(230,109,o),
(208,129,o),
(150,129,cs),
(92,129,o),
(70,109,o),
(70,57,cs),
(70,5,o),
(92,-15,o),
(150,-15,cs)
);
}
);
width = 300;
},
{
layerId = m004;
shapes = (
{
closed = 1;
nodes = (
(208,-15,o),
(230,5,o),
(230,57,cs),
(230,109,o),
(208,129,o),
(150,129,cs),
(92,129,o),
(70,109,o),
(70,57,cs),
(70,5,o),
(92,-15,o),
(150,-15,cs)
);
}
);
width = 300;
}
);
unicode = 46;
},
{
glyphname = comma;
lastChange = "2023-12-02 23:46:24 +0000";
layers = (
{
layerId = master01;
shapes = (
{
closed = 1;
nodes = (
(89,-15,o),
(70,5,o),
(70,57,cs),
(70,109,o),
(92,129,o),
(150,129,cs),
(208,129,o),
(230,104,o),
(230,43,cs),
(230,-9,o),
(217,-43,o),
(159,-154,c),
(82,-154,l),
(130,-15,l),
(130,0,l),
(158,-15,l)
);
}
);
width = 300;
},
{
layerId = m002;
shapes = (
{
closed = 1;
nodes = (
(89,-15,o),
(70,5,o),
(70,57,cs),
(70,109,o),
(92,129,o),
(150,129,cs),
(208,129,o),
(230,104,o),
(230,43,cs),
(230,-9,o),
(217,-43,o),
(159,-154,c),
(82,-154,l),
(130,-15,l),
(130,0,l),
(158,-15,l)
);
}
);
width = 300;
},
{
layerId = m003;
shapes = (
{
closed = 1;
nodes = (
(89,-15,o),
(70,5,o),
(70,57,cs),
(70,109,o),
(92,129,o),
(150,129,cs),
(208,129,o),
(230,104,o),
(230,43,cs),
(230,-9,o),
(217,-43,o),
(159,-154,c),
(82,-154,l),
(130,-15,l),
(130,0,l),
(158,-15,l)
);
}
);
width = 300;
},
{
layerId = m004;
shapes = (
{
closed = 1;
nodes = (
(89,-15,o),
(70,5,o),
(70,57,cs),
(70,109,o),
(92,129,o),
(150,129,cs),
(208,129,o),
(230,104,o),
(230,43,cs),
(230,-9,o),
(217,-43,o),
(159,-154,c),
(82,-154,l),
(130,-15,l),
(130,0,l),
(158,-15,l)
);
}
);
width = 300;
}
);
metricLeft = period;
metricRight = period;
unicode = 44;
},
{
glyphname = hyphen;
lastChange = "2023-12-02 23:46:24 +0000";
layers = (
{
layerId = master01;
shapes = (
{
closed = 1;
nodes = (
(315,306,l),
(25,306,l),
(25,225,l),
(315,225,l)
);
}
);
width = 340;
},
{
layerId = m002;
shapes = (
{
closed = 1;
nodes = (
(315,306,l),
(25,306,l),
(25,225,l),
(315,225,l)
);
}
);
width = 340;
},
{
layerId = m003;
shapes = (
{
closed = 1;
nodes = (
(315,306,l),
(25,306,l),
(25,225,l),
(315,225,l)
);
}
);
width = 340;
},
{
layerId = m004;
shapes = (
{
closed = 1;
nodes = (
(315,306,l),
(25,306,l),
(25,225,l),
(315,225,l)
);
}
);
width = 340;
}
);
unicode = 45;
},
{
glyphname = underscore;
lastChange = "2023-12-02 23:46:24 +0000";
layers = (
{
layerId = master01;
shapes = (
{
closed = 1;
nodes = (
(5,-41,l),
(5,-111,l),
(655,-111,l),
(655,-41,l)
);
}
);
width = 660;
},
{
layerId = m002;
shapes = (
{
closed = 1;
nodes = (
(5,-41,l),
(5,-111,l),
(655,-111,l),
(655,-41,l)
);
}
);
width = 660;
},
{
layerId = m003;
shapes = (
{
closed = 1;
nodes = (
(5,-41,l),
(5,-111,l),
(655,-111,l),
(655,-41,l)
);
}
);
width = 660;
},
{
layerId = m004;
shapes = (
{
closed = 1;
nodes = (
(5,-41,l),
(5,-111,l),
(655,-111,l),
(655,-41,l)
);
}
);
width = 660;
}
);
unicode = 95;
},
{
glyphname = slash;
lastChange = "2023-12-02 23:46:24 +0000";
layers = (
{
layerId = master01;
shapes = (
{
closed = 1;
nodes = (
(5,-75,l),
(76,-75,l),
(388,665,l),
(317,665,l)
);
}
);
width = 393;
},
{
layerId = m002;
shapes = (
{
closed = 1;
nodes = (
(5,-75,l),
(76,-75,l),
(388,665,l),
(317,665,l)
);
}
);
width = 393;
},
{
layerId = m003;
shapes = (
{
closed = 1;
nodes = (
(5,-75,l),
(76,-75,l),
(388,665,l),
(317,665,l)
);
}
);
width = 393;
},
{
layerId = m004;
shapes = (
{
closed = 1;
nodes = (
(5,-75,l),
(76,-75,l),
(388,665,l),
(317,665,l)
);
}
);
width = 393;
}
);
unicode = 47;
},
{
glyphname = question;
lastChange = "2023-12-02 23:46:24 +0000";
layers = (
{
layerId = master01;
shapes = (
{
closed = 1;
nodes = (
(277,-15,o),
(290,3,o),
(290,43,cs),
(290,81,o),
(277,99,o),
(229,99,cs),
(181,99,o),
(168,81,o),
(168,43,cs),
(168,3,o),
(181,-15,o),
(229,-15,cs)
);
},
{
closed = 1;
nodes = (
(40,439,l),
(133,439,l),
(133,481,ls),
(133,559,o),
(164,577,o),
(259,577,cs),
(354,577,o),
(385,557,o),
(385,471,cs),
(385,389,o),
(363,366,o),
(307,366,cs),
(218,366,o),
(184,331,o),
(184,237,cs),
(184,185,l),
(276,185,l),
(276,237,ls),
(276,268,o),
(284,278,o),
(307,278,cs),
(422,278,o),
(478,337,o),
(478,471,cs),
(478,614,o),
(419,665,o),
(259,665,cs),
(99,665,o),
(40,614,o),
(40,481,cs)
);
}
);
width = 513;
},
{
layerId = m002;
shapes = (
{
closed = 1;
nodes = (
(277,-15,o),
(290,3,o),
(290,43,cs),
(290,81,o),
(277,99,o),
(229,99,cs),
(181,99,o),
(168,81,o),
(168,43,cs),
(168,3,o),
(181,-15,o),
(229,-15,cs)
);
},
{
closed = 1;
nodes = (
(40,439,l),
(133,439,l),
(133,481,ls),
(133,559,o),
(164,577,o),
(259,577,cs),
(354,577,o),
(385,557,o),
(385,471,cs),
(385,389,o),
(363,366,o),
(307,366,cs),
(218,366,o),
(184,331,o),
(184,237,cs),
(184,185,l),
(276,185,l),
(276,237,ls),
(276,268,o),
(284,278,o),
(307,278,cs),
(422,278,o),
(478,337,o),
(478,471,cs),
(478,614,o),
(419,665,o),
(259,665,cs),
(99,665,o),
(40,614,o),
(40,481,cs)
);
}
);
width = 513;
},
{
layerId = m003;
shapes = (
{
closed = 1;
nodes = (
(277,-15,o),
(290,3,o),
(290,43,cs),
(290,81,o),
(277,99,o),
(229,99,cs),
(181,99,o),
(168,81,o),
(168,43,cs),
(168,3,o),
(181,-15,o),
(229,-15,cs)
);
},
{
closed = 1;
nodes = (
(40,439,l),
(133,439,l),
(133,481,ls),
(133,559,o),
(164,577,o),
(259,577,cs),
(354,577,o),
(385,557,o),
(385,471,cs),
(385,389,o),
(363,366,o),
(307,366,cs),
(218,366,o),
(184,331,o),
(184,237,cs),
(184,185,l),
(276,185,l),
(276,237,ls),
(276,268,o),
(284,278,o),
(307,278,cs),
(422,278,o),
(478,337,o),
(478,471,cs),
(478,614,o),
(419,665,o),
(259,665,cs),
(99,665,o),
(40,614,o),
(40,481,cs)
);
}
);
width = 513;
},
{
layerId = m004;
shapes = (
{
closed = 1;
nodes = (
(277,-15,o),
(290,3,o),
(290,43,cs),
(290,81,o),
(277,99,o),
(229,99,cs),
(181,99,o),
(168,81,o),
(168,43,cs),
(168,3,o),
(181,-15,o),
(229,-15,cs)
);
},
{
closed = 1;
nodes = (
(40,439,l),
(133,439,l),
(133,481,ls),
(133,559,o),
(164,577,o),
(259,577,cs),
(354,577,o),
(385,557,o),
(385,471,cs),
(385,389,o),
(363,366,o),
(307,366,cs),
(218,366,o),
(184,331,o),
(184,237,cs),
(184,185,l),
(276,185,l),
(276,237,ls),
(276,268,o),
(284,278,o),
(307,278,cs),
(422,278,o),
(478,337,o),
(478,471,cs),
(478,614,o),
(419,665,o),
(259,665,cs),
(99,665,o),
(40,614,o),
(40,481,cs)
);
}
);
width = 513;
}
);
unicode = 63;
},
{
glyphname = exclam;
lastChange = "2023-12-02 23:46:24 +0000";
layers = (
{
layerId = master01;
shapes = (
{
closed = 1;
nodes = (
(179,650,l),
(83,650,l),
(83,185,l),
(179,185,l)
);
},
{
closed = 1;
nodes = (
(179,-15,o),
(192,3,o),
(192,43,cs),
(192,81,o),
(179,99,o),
(131,99,cs),
(83,99,o),
(70,81,o),
(70,43,cs),
(70,3,o),
(83,-15,o),
(131,-15,cs)
);
}
);
width = 262;
},
{
layerId = m002;
shapes = (
{
closed = 1;
nodes = (
(179,650,l),
(83,650,l),
(83,185,l),
(179,185,l)
);
},
{
closed = 1;
nodes = (
(179,-15,o),
(192,3,o),
(192,43,cs),
(192,81,o),
(179,99,o),
(131,99,cs),
(83,99,o),
(70,81,o),
(70,43,cs),
(70,3,o),
(83,-15,o),
(131,-15,cs)
);
}
);
width = 262;
},
{
layerId = m003;
shapes = (
{
closed = 1;
nodes = (
(179,650,l),
(83,650,l),
(83,185,l),
(179,185,l)
);
},
{
closed = 1;
nodes = (
(179,-15,o),
(192,3,o),
(192,43,cs),
(192,81,o),
(179,99,o),
(131,99,cs),
(83,99,o),
(70,81,o),
(70,43,cs),
(70,3,o),
(83,-15,o),
(131,-15,cs)
);
}
);
width = 262;
},
{
layerId = m004;
shapes = (
{
closed = 1;
nodes = (
(179,650,l),
(83,650,l),
(83,185,l),
(179,185,l)
);
},
{
closed = 1;
nodes = (
(179,-15,o),
(192,3,o),
(192,43,cs),
(192,81,o),
(179,99,o),
(131,99,cs),
(83,99,o),
(70,81,o),
(70,43,cs),
(70,3,o),
(83,-15,o),
(131,-15,cs)
);
}
);
width = 262;
}
);
unicode = 33;
},
{
glyphname = parenleft;
lastChange = "2023-12-02 23:46:24 +0000";
layers = (
{
layerId = master01;
shapes = (
{
closed = 1;
nodes = (
(355,-100,l),
(253,-100,o),
(185,-57,o),
(185,57,cs),
(185,463,ls),
(185,577,o),
(253,620,o),
(355,620,c),
(355,715,l),
(180,715,o),
(85,647,o),
(85,463,cs),
(85,57,ls),
(85,-127,o),
(180,-195,o),
(355,-195,c)
);
}
);
width = 370;
},
{
layerId = m002;
shapes = (
{
closed = 1;
nodes = (
(355,-100,l),
(253,-100,o),
(185,-57,o),
(185,57,cs),
(185,463,ls),
(185,577,o),
(253,620,o),
(355,620,c),
(355,715,l),
(180,715,o),
(85,647,o),
(85,463,cs),
(85,57,ls),
(85,-127,o),
(180,-195,o),
(355,-195,c)
);
}
);
width = 370;
},
{
layerId = m003;
shapes = (
{
closed = 1;
nodes = (
(355,-100,l),
(253,-100,o),
(185,-57,o),
(185,57,cs),
(185,463,ls),
(185,577,o),
(253,620,o),
(355,620,c),
(355,715,l),
(180,715,o),
(85,647,o),
(85,463,cs),
(85,57,ls),
(85,-127,o),
(180,-195,o),
(355,-195,c)
);
}
);
width = 370;
},
{
layerId = m004;
shapes = (
{
closed = 1;
nodes = (
(355,-100,l),
(253,-100,o),
(185,-57,o),
(185,57,cs),
(185,463,ls),
(185,577,o),
(253,620,o),
(355,620,c),
(355,715,l),
(180,715,o),
(85,647,o),
(85,463,cs),
(85,57,ls),
(85,-127,o),
(180,-195,o),
(355,-195,c)
);
}
);
width = 370;
}
);
unicode = 40;
},
{
glyphname = quoteleft;
lastChange = "2023-12-02 23:46:24 +0000";
layers = (
{
layerId = master01;
shapes = (
{
closed = 1;
nodes = (
(62,440,o),
(40,465,o),
(40,560,cs),
(40,685,o),
(92,710,o),
(177,710,c),
(177,640,l),
(139,640,o),
(123,628,o),
(123,577,cs),
(123,545,l),
(111,569,l),
(167,569,o),
(182,551,o),
(182,505,cs),
(182,459,o),
(167,440,o),
(113,440,cs)
);
}
);
width = 222;
},
{
layerId = m002;
shapes = (
{
closed = 1;
nodes = (
(62,440,o),
(40,465,o),
(40,560,cs),
(40,685,o),
(92,710,o),
(177,710,c),
(177,640,l),
(139,640,o),
(123,628,o),
(123,577,cs),
(123,545,l),
(111,569,l),
(167,569,o),
(182,551,o),
(182,505,cs),
(182,459,o),
(167,440,o),
(113,440,cs)
);
}
);
width = 222;
},
{
layerId = m003;
shapes = (
{
closed = 1;
nodes = (
(62,440,o),
(40,465,o),
(40,560,cs),
(40,685,o),
(92,710,o),
(177,710,c),
(177,640,l),
(139,640,o),
(123,628,o),
(123,577,cs),
(123,545,l),
(111,569,l),
(167,569,o),
(182,551,o),
(182,505,cs),
(182,459,o),
(167,440,o),
(113,440,cs)
);
}
);
width = 222;
},
{
layerId = m004;
shapes = (
{
closed = 1;
nodes = (
(62,440,o),
(40,465,o),
(40,560,cs),
(40,685,o),
(92,710,o),
(177,710,c),
(177,640,l),
(139,640,o),
(123,628,o),
(123,577,cs),
(123,545,l),
(111,569,l),
(167,569,o),
(182,551,o),
(182,505,cs),
(182,459,o),
(167,440,o),
(113,440,cs)
);
}
);
width = 222;
}
);
unicode = 8216;
},
{
glyphname = acutecomb;
lastChange = "2023-12-02 23:46:24 +0000";
layers = (
{
anchors = (
{
name = _top;
pos = (0,500);
}
);
layerId = master01;
shapes = (
{
closed = 1;
nodes = (
(-106,567,l),
(96,678,l),
(20,758,l),
(-171,620,l)
);
},
{
pos = (-321,226);
ref = tilde;
}
);
width = 0;
},
{
anchors = (
{
name = _top;
pos = (0,500);
}
);
layerId = m002;
shapes = (
{
closed = 1;
nodes = (
(-106,567,l),
(96,678,l),
(20,758,l),
(-171,620,l)
);
},
{
pos = (-321,226);
ref = tilde;
}
);
width = 0;
},
{
anchors = (
{
name = _top;
pos = (0,500);
}
);
layerId = m003;
shapes = (
{
closed = 1;
nodes = (
(-106,567,l),
(96,678,l),
(20,758,l),
(-171,620,l)
);
},
{
pos = (-321,226);
ref = tilde;
}
);
width = 0;
},
{
anchors = (
{
name = _top;
pos = (0,500);
}
);
layerId = m004;
shapes = (
{
closed = 1;
nodes = (
(-106,567,l),
(96,678,l),
(20,758,l),
(-171,620,l)
);
},
{
pos = (-321,226);
ref = tilde;
}
);
width = 0;
}
);
unicode = 769;
},
{
glyphname = dieresiscomb;
lastChange = "2023-12-02 23:46:24 +0000";
layers = (
{
anchors = (
{
name = _top;
pos = (0,500);
}
);
layerId = master01;
shapes = (
{
closed = 1;
nodes = (
(-52,586,o),
(-40,601,o),
(-40,641,cs),
(-40,679,o),
(-52,694,o),
(-100,694,cs),
(-148,694,o),
(-160,679,o),
(-160,641,cs),
(-160,601,o),
(-148,586,o),
(-100,586,cs)
);
},
{
closed = 1;
nodes = (
(148,586,o),
(160,601,o),
(160,641,cs),
(160,679,o),
(148,694,o),
(100,694,cs),
(52,694,o),
(40,679,o),
(40,641,cs),
(40,601,o),
(52,586,o),
(100,586,cs)
);
}
);
width = 0;
},
{
anchors = (
{
name = _top;
pos = (0,500);
}
);
layerId = m002;
shapes = (
{
closed = 1;
nodes = (
(-52,586,o),
(-40,601,o),
(-40,641,cs),
(-40,679,o),
(-52,694,o),
(-100,694,cs),
(-148,694,o),
(-160,679,o),
(-160,641,cs),
(-160,601,o),
(-148,586,o),
(-100,586,cs)
);
},
{
closed = 1;
nodes = (
(148,586,o),
(160,601,o),
(160,641,cs),
(160,679,o),
(148,694,o),
(100,694,cs),
(52,694,o),
(40,679,o),
(40,641,cs),
(40,601,o),
(52,586,o),
(100,586,cs)
);
}
);
width = 0;
},
{
anchors = (
{
name = _top;
pos = (0,500);
}
);
layerId = m003;
shapes = (
{
closed = 1;
nodes = (
(-52,586,o),
(-40,601,o),
(-40,641,cs),
(-40,679,o),
(-52,694,o),
(-100,694,cs),
(-148,694,o),
(-160,679,o),
(-160,641,cs),
(-160,601,o),
(-148,586,o),
(-100,586,cs)
);
},
{
closed = 1;
nodes = (
(148,586,o),
(160,601,o),
(160,641,cs),
(160,679,o),
(148,694,o),
(100,694,cs),
(52,694,o),
(40,679,o),
(40,641,cs),
(40,601,o),
(52,586,o),
(100,586,cs)
);
}
);
width = 0;
},
{
anchors = (
{
name = _top;
pos = (0,500);
}
);
layerId = m004;
shapes = (
{
closed = 1;
nodes = (
(-52,586,o),
(-40,601,o),
(-40,641,cs),
(-40,679,o),
(-52,694,o),
(-100,694,cs),
(-148,694,o),
(-160,679,o),
(-160,641,cs),
(-160,601,o),
(-148,586,o),
(-100,586,cs)
);
},
{
closed = 1;
nodes = (
(148,586,o),
(160,601,o),
(160,641,cs),
(160,679,o),
(148,694,o),
(100,694,cs),
(52,694,o),
(40,679,o),
(40,641,cs),
(40,601,o),
(52,586,o),
(100,586,cs)
);
}
);
width = 0;
}
);
unicode = 776;
},
{
glyphname = tildecomb;
lastChange = "2023-12-02 23:46:24 +0000";
layers = (
{
anchors = (
{
name = _top;
pos = (5,500);
}
);
layerId = master01;
shapes = (
{
closed = 1;
nodes = (
(-186,583,l),
(-111,583,l),
(-111,604,ls),
(-111,633,o),
(-100,646,o),
(-80,646,cs),
(-59,646,o),
(-49,636,o),
(-26,613,cs),
(-7,593,o),
(23,575,o),
(82,575,cs),
(154,575,o),
(186,612,o),
(186,688,cs),
(186,709,l),
(111,709,l),
(111,688,ls),
(111,659,o),
(100,646,o),
(80,646,cs),
(59,646,o),
(47,658,o),
(29,676,cs),
(7,699,o),
(-17,717,o),
(-82,717,cs),
(-154,717,o),
(-186,680,o),
(-186,604,cs)
);
}
);
width = 0;
},
{
anchors = (
{
name = _top;
pos = (5,500);
}
);
layerId = m002;
shapes = (
{
closed = 1;
nodes = (
(-186,583,l),
(-111,583,l),
(-111,604,ls),
(-111,633,o),
(-100,646,o),
(-80,646,cs),
(-59,646,o),
(-49,636,o),
(-26,613,cs),
(-7,593,o),
(23,575,o),
(82,575,cs),
(154,575,o),
(186,612,o),
(186,688,cs),
(186,709,l),
(111,709,l),
(111,688,ls),
(111,659,o),
(100,646,o),
(80,646,cs),
(59,646,o),
(47,658,o),
(29,676,cs),
(7,699,o),
(-17,717,o),
(-82,717,cs),
(-154,717,o),
(-186,680,o),
(-186,604,cs)
);
}
);
width = 0;
},
{
anchors = (
{
name = _top;
pos = (5,500);
}
);
layerId = m003;
shapes = (
{
closed = 1;
nodes = (
(-186,583,l),
(-111,583,l),
(-111,604,ls),
(-111,633,o),
(-100,646,o),
(-80,646,cs),
(-59,646,o),
(-49,636,o),
(-26,613,cs),
(-7,593,o),
(23,575,o),
(82,575,cs),
(154,575,o),
(186,612,o),
(186,688,cs),
(186,709,l),
(111,709,l),
(111,688,ls),
(111,659,o),
(100,646,o),
(80,646,cs),
(59,646,o),
(47,658,o),
(29,676,cs),
(7,699,o),
(-17,717,o),
(-82,717,cs),
(-154,717,o),
(-186,680,o),
(-186,604,cs)
);
}
);
width = 0;
},
{
anchors = (
{
name = _top;
pos = (5,500);
}
);
layerId = m004;
shapes = (
{
closed = 1;
nodes = (
(-186,583,l),
(-111,583,l),
(-111,604,ls),
(-111,633,o),
(-100,646,o),
(-80,646,cs),
(-59,646,o),
(-49,636,o),
(-26,613,cs),
(-7,593,o),
(23,575,o),
(82,575,cs),
(154,575,o),
(186,612,o),
(186,688,cs),
(186,709,l),
(111,709,l),
(111,688,ls),
(111,659,o),
(100,646,o),
(80,646,cs),
(59,646,o),
(47,658,o),
(29,676,cs),
(7,699,o),
(-17,717,o),
(-82,717,cs),
(-154,717,o),
(-186,680,o),
(-186,604,cs)
);
}
);
width = 0;
}
);
unicode = 771;
},
{
glyphname = dotaccentcomb;
lastChange = "2023-12-02 23:46:24 +0000";
layers = (
{
anchors = (
{
name = _top;
pos = (0,500);
}
);
layerId = master01;
shapes = (
{
closed = 1;
nodes = (
(49,586,o),
(63,603,o),
(63,644,cs),
(63,683,o),
(49,700,o),
(0,700,cs),
(-49,700,o),
(-63,683,o),
(-63,644,cs),
(-63,603,o),
(-49,586,o),
(0,586,cs)
);
}
);
width = 0;
},
{
anchors = (
{
name = _top;
pos = (0,500);
}
);
layerId = m002;
shapes = (
{
closed = 1;
nodes = (
(49,586,o),
(63,603,o),
(63,644,cs),
(63,683,o),
(49,700,o),
(0,700,cs),
(-49,700,o),
(-63,683,o),
(-63,644,cs),
(-63,603,o),
(-49,586,o),
(0,586,cs)
);
}
);
width = 0;
},
{
anchors = (
{
name = _top;
pos = (0,500);
}
);
layerId = m003;
shapes = (
{
closed = 1;
nodes = (
(49,586,o),
(63,603,o),
(63,644,cs),
(63,683,o),
(49,700,o),
(0,700,cs),
(-49,700,o),
(-63,683,o),
(-63,644,cs),
(-63,603,o),
(-49,586,o),
(0,586,cs)
);
}
);
width = 0;
},
{
anchors = (
{
name = _top;
pos = (0,500);
}
);
layerId = m004;
shapes = (
{
closed = 1;
nodes = (
(49,586,o),
(63,603,o),
(63,644,cs),
(63,683,o),
(49,700,o),
(0,700,cs),
(-49,700,o),
(-63,683,o),
(-63,644,cs),
(-63,603,o),
(-49,586,o),
(0,586,cs)
);
}
);
width = 0;
}
);
unicode = 775;
},
{
glyphname = acutecomb.case;
lastChange = "2023-12-02 23:46:24 +0000";
layers = (
{
anchors = (
{
name = _top;
pos = (0,650);
}
);
layerId = master01;
shapes = (
{
closed = 1;
nodes = (
(-49,693,l),
(162,788,l),
(112,876,l),
(-86,755,l)
);
}
);
width = 0;
},
{
anchors = (
{
name = _top;
pos = (0,650);
}
);
layerId = m002;
shapes = (
{
closed = 1;
nodes = (
(-49,693,l),
(162,788,l),
(112,876,l),
(-86,755,l)
);
}
);
width = 0;
},
{
anchors = (
{
name = _top;
pos = (0,650);
}
);
layerId = m003;
shapes = (
{
closed = 1;
nodes = (
(-49,693,l),
(162,788,l),
(112,876,l),
(-86,755,l)
);
}
);
width = 0;
},
{
anchors = (
{
name = _top;
pos = (0,650);
}
);
layerId = m004;
shapes = (
{
closed = 1;
nodes = (
(-49,693,l),
(162,788,l),
(112,876,l),
(-86,755,l)
);
}
);
width = 0;
}
);
},
{
glyphname = dieresiscomb.case;
lastChange = "2023-12-02 23:46:24 +0000";
layers = (
{
anchors = (
{
name = _top;
pos = (0,650);
}
);
layerId = master01;
shapes = (
{
closed = 1;
nodes = (
(-52,706,o),
(-40,722,o),
(-40,764,cs),
(-40,806,o),
(-52,822,o),
(-100,822,cs),
(-148,822,o),
(-160,806,o),
(-160,764,cs),
(-160,722,o),
(-148,706,o),
(-100,706,cs)
);
},
{
closed = 1;
nodes = (
(148,706,o),
(160,722,o),
(160,764,cs),
(160,806,o),
(148,822,o),
(100,822,cs),
(52,822,o),
(40,806,o),
(40,764,cs),
(40,722,o),
(52,706,o),
(100,706,cs)
);
}
);
width = 0;
},
{
anchors = (
{
name = _top;
pos = (0,650);
}
);
layerId = m002;
shapes = (
{
closed = 1;
nodes = (
(-52,706,o),
(-40,722,o),
(-40,764,cs),
(-40,806,o),
(-52,822,o),
(-100,822,cs),
(-148,822,o),
(-160,806,o),
(-160,764,cs),
(-160,722,o),
(-148,706,o),
(-100,706,cs)
);
},
{
closed = 1;
nodes = (
(148,706,o),
(160,722,o),
(160,764,cs),
(160,806,o),
(148,822,o),
(100,822,cs),
(52,822,o),
(40,806,o),
(40,764,cs),
(40,722,o),
(52,706,o),
(100,706,cs)
);
}
);
width = 0;
},
{
anchors = (
{
name = _top;
pos = (0,650);
}
);
layerId = m003;
shapes = (
{
closed = 1;
nodes = (
(-52,706,o),
(-40,722,o),
(-40,764,cs),
(-40,806,o),
(-52,822,o),
(-100,822,cs),
(-148,822,o),
(-160,806,o),
(-160,764,cs),
(-160,722,o),
(-148,706,o),
(-100,706,cs)
);
},
{
closed = 1;
nodes = (
(148,706,o),
(160,722,o),
(160,764,cs),
(160,806,o),
(148,822,o),
(100,822,cs),
(52,822,o),
(40,806,o),
(40,764,cs),
(40,722,o),
(52,706,o),
(100,706,cs)
);
}
);
width = 0;
},
{
anchors = (
{
name = _top;
pos = (0,650);
}
);
layerId = m004;
shapes = (
{
closed = 1;
nodes = (
(-52,706,o),
(-40,722,o),
(-40,764,cs),
(-40,806,o),
(-52,822,o),
(-100,822,cs),
(-148,822,o),
(-160,806,o),
(-160,764,cs),
(-160,722,o),
(-148,706,o),
(-100,706,cs)
);
},
{
closed = 1;
nodes = (
(148,706,o),
(160,722,o),
(160,764,cs),
(160,806,o),
(148,822,o),
(100,822,cs),
(52,822,o),
(40,806,o),
(40,764,cs),
(40,722,o),
(52,706,o),
(100,706,cs)
);
}
);
width = 0;
}
);
},
{
glyphname = tildecomb.case;
lastChange = "2023-12-02 23:46:24 +0000";
layers = (
{
anchors = (
{
name = _top;
pos = (5,650);
}
);
layerId = master01;
shapes = (
{
closed = 1;
nodes = (
(-186,726,l),
(-111,726,l),
(-111,737,ls),
(-111,759,o),
(-99,769,o),
(-79,769,cs),
(-56,769,o),
(-42,759,o),
(-16,741,cs),
(4,727,o),
(32,714,o),
(79,714,cs),
(153,714,o),
(186,748,o),
(186,817,cs),
(186,828,l),
(111,828,l),
(111,817,ls),
(111,795,o),
(99,785,o),
(79,785,cs),
(56,785,o),
(39,795,o),
(19,810,cs),
(-4,827,o),
(-27,840,o),
(-79,840,cs),
(-153,840,o),
(-186,806,o),
(-186,737,cs)
);
}
);
width = 0;
},
{
anchors = (
{
name = _top;
pos = (5,650);
}
);
layerId = m002;
shapes = (
{
closed = 1;
nodes = (
(-186,726,l),
(-111,726,l),
(-111,737,ls),
(-111,759,o),
(-99,769,o),
(-79,769,cs),
(-56,769,o),
(-42,759,o),
(-16,741,cs),
(4,727,o),
(32,714,o),
(79,714,cs),
(153,714,o),
(186,748,o),
(186,817,cs),
(186,828,l),
(111,828,l),
(111,817,ls),
(111,795,o),
(99,785,o),
(79,785,cs),
(56,785,o),
(39,795,o),
(19,810,cs),
(-4,827,o),
(-27,840,o),
(-79,840,cs),
(-153,840,o),
(-186,806,o),
(-186,737,cs)
);
}
);
width = 0;
},
{
anchors = (
{
name = _top;
pos = (5,650);
}
);
layerId = m003;
shapes = (
{
closed = 1;
nodes = (
(-186,726,l),
(-111,726,l),
(-111,737,ls),
(-111,759,o),
(-99,769,o),
(-79,769,cs),
(-56,769,o),
(-42,759,o),
(-16,741,cs),
(4,727,o),
(32,714,o),
(79,714,cs),
(153,714,o),
(186,748,o),
(186,817,cs),
(186,828,l),
(111,828,l),
(111,817,ls),
(111,795,o),
(99,785,o),
(79,785,cs),
(56,785,o),
(39,795,o),
(19,810,cs),
(-4,827,o),
(-27,840,o),
(-79,840,cs),
(-153,840,o),
(-186,806,o),
(-186,737,cs)
);
}
);
width = 0;
},
{
anchors = (
{
name = _top;
pos = (5,650);
}
);
layerId = m004;
shapes = (
{
closed = 1;
nodes = (
(-186,726,l),
(-111,726,l),
(-111,737,ls),
(-111,759,o),
(-99,769,o),
(-79,769,cs),
(-56,769,o),
(-42,759,o),
(-16,741,cs),
(4,727,o),
(32,714,o),
(79,714,cs),
(153,714,o),
(186,748,o),
(186,817,cs),
(186,828,l),
(111,828,l),
(111,817,ls),
(111,795,o),
(99,785,o),
(79,785,cs),
(56,785,o),
(39,795,o),
(19,810,cs),
(-4,827,o),
(-27,840,o),
(-79,840,cs),
(-153,840,o),
(-186,806,o),
(-186,737,cs)
);
}
);
width = 0;
}
);
},
{
glyphname = upArrow;
lastChange = "2023-12-02 23:46:24 +0000";
layers = (
{
guides = (
{
pos = (324,0);
}
);
layerId = master01;
shapes = (
{
closed = 1;
nodes = (
(282,0,l),
(368,0,l),
(368,568,l),
(282,568,l)
);
},
{
closed = 1;
nodes = (
(335,543,l),
(315,543,l),
(574,273,l),
(638,337,l),
(325,650,l),
(12,337,l),
(76,273,l)
);
}
);
width = 650;
},
{
guides = (
{
pos = (324,0);
}
);
layerId = m002;
shapes = (
{
closed = 1;
nodes = (
(282,0,l),
(368,0,l),
(368,568,l),
(282,568,l)
);
},
{
closed = 1;
nodes = (
(335,543,l),
(315,543,l),
(574,273,l),
(638,337,l),
(325,650,l),
(12,337,l),
(76,273,l)
);
}
);
width = 650;
},
{
guides = (
{
pos = (324,0);
}
);
layerId = m003;
shapes = (
{
closed = 1;
nodes = (
(282,0,l),
(368,0,l),
(368,568,l),
(282,568,l)
);
},
{
closed = 1;
nodes = (
(335,543,l),
(315,543,l),
(574,273,l),
(638,337,l),
(325,650,l),
(12,337,l),
(76,273,l)
);
}
);
width = 650;
},
{
guides = (
{
pos = (324,0);
}
);
layerId = m004;
shapes = (
{
closed = 1;
nodes = (
(282,0,l),
(368,0,l),
(368,568,l),
(282,568,l)
);
},
{
closed = 1;
nodes = (
(335,543,l),
(315,543,l),
(574,273,l),
(638,337,l),
(325,650,l),
(12,337,l),
(76,273,l)
);
}
);
width = 650;
}
);
unicode = 8593;
},
{
glyphname = leftRightArrow;
lastChange = "2023-12-02 23:46:24 +0000";
layers = (
{
guides = (
{
pos = (25,0);
},
{
pos = (0,-175);
},
{
pos = (450,0);
},
{
pos = (0,250);
},
{
pos = (875,0);
},
{
pos = (0,675);
}
);
layerId = master01;
shapes = (
{
closed = 1;
nodes = (
(107,293,l),
(107,207,l),
(793,207,l),
(793,293,l)
);
},
{
closed = 1;
nodes = (
(768,240,l),
(768,260,l),
(498,1,l),
(562,-63,l),
(875,250,l),
(562,563,l),
(498,499,l)
);
},
{
closed = 1;
nodes = (
(132,260,l),
(132,240,l),
(402,499,l),
(338,563,l),
(25,250,l),
(338,-63,l),
(402,1,l)
);
}
);
width = 900;
},
{
guides = (
{
pos = (25,0);
},
{
pos = (0,-175);
},
{
pos = (450,0);
},
{
pos = (0,250);
},
{
pos = (875,0);
},
{
pos = (0,675);
}
);
layerId = m002;
shapes = (
{
closed = 1;
nodes = (
(107,293,l),
(107,207,l),
(793,207,l),
(793,293,l)
);
},
{
closed = 1;
nodes = (
(768,240,l),
(768,260,l),
(498,1,l),
(562,-63,l),
(875,250,l),
(562,563,l),
(498,499,l)
);
},
{
closed = 1;
nodes = (
(132,260,l),
(132,240,l),
(402,499,l),
(338,563,l),
(25,250,l),
(338,-63,l),
(402,1,l)
);
}
);
width = 900;
},
{
guides = (
{
pos = (25,0);
},
{
pos = (0,-175);
},
{
pos = (450,0);
},
{
pos = (0,250);
},
{
pos = (875,0);
},
{
pos = (0,675);
}
);
layerId = m003;
shapes = (
{
closed = 1;
nodes = (
(107,293,l),
(107,207,l),
(793,207,l),
(793,293,l)
);
},
{
closed = 1;
nodes = (
(768,240,l),
(768,260,l),
(498,1,l),
(562,-63,l),
(875,250,l),
(562,563,l),
(498,499,l)
);
},
{
closed = 1;
nodes = (
(132,260,l),
(132,240,l),
(402,499,l),
(338,563,l),
(25,250,l),
(338,-63,l),
(402,1,l)
);
}
);
width = 900;
},
{
guides = (
{
pos = (25,0);
},
{
pos = (0,-175);
},
{
pos = (450,0);
},
{
pos = (0,250);
},
{
pos = (875,0);
},
{
pos = (0,675);
}
);
layerId = m004;
shapes = (
{
closed = 1;
nodes = (
(107,293,l),
(107,207,l),
(793,207,l),
(793,293,l)
);
},
{
closed = 1;
nodes = (
(768,240,l),
(768,260,l),
(498,1,l),
(562,-63,l),
(875,250,l),
(562,563,l),
(498,499,l)
);
},
{
closed = 1;
nodes = (
(132,260,l),
(132,240,l),
(402,499,l),
(338,563,l),
(25,250,l),
(338,-63,l),
(402,1,l)
);
}
);
width = 900;
}
);
unicode = 8596;
},
{
glyphname = faceWithMedicalMask;
lastChange = "2023-12-02 23:46:24 +0000";
layers = (
{
guides = (
{
pos = (35,0);
},
{
pos = (10,-175);
},
{
pos = (460,0);
},
{
pos = (10,250);
},
{
pos = (885,0);
},
{
pos = (10,675);
}
);
layerId = master01;
shapes = (
{
closed = 1;
nodes = (
(293,154,l),
(597,154,l),
(597,188,l),
(293,188,l)
);
},
{
closed = 1;
nodes = (
(297,80,l),
(593,80,l),
(593,114,l),
(297,114,l)
);
},
{
closed = 1;
nodes = (
(290,231,l),
(600,231,l),
(600,265,l),
(290,265,l)
);
},
{
closed = 1;
nodes = (
(606,423,o),
(618,437,o),
(618,480,cs),
(618,526,o),
(606,536,o),
(579,536,cs),
(550,536,o),
(537,526,o),
(537,480,cs),
(537,437,o),
(550,423,o),
(579,423,cs)
);
},
{
closed = 1;
nodes = (
(356,423,o),
(368,437,o),
(368,480,cs),
(368,526,o),
(356,536,o),
(329,536,cs),
(300,536,o),
(287,526,o),
(287,480,cs),
(287,437,o),
(300,423,o),
(329,423,cs)
);
},
{
closed = 1;
nodes = (
(689,560,l),
(689,600,o),
(662,629,o),
(587,629,cs),
(533,629,o),
(483,609,o),
(483,570,c),
(527,570,l),
(527,580,o),
(543,592,o),
(576,592,cs),
(616,592,o),
(646,577,o),
(646,560,c)
);
},
{
closed = 1;
nodes = (
(266,577,o),
(296,592,o),
(336,592,cs),
(369,592,o),
(385,580,o),
(385,570,c),
(429,570,l),
(429,609,o),
(379,629,o),
(325,629,cs),
(250,629,o),
(223,600,o),
(223,560,c),
(266,560,l)
);
},
{
closed = 1;
nodes = (
(179,334,o),
(171,334,o),
(163,334,cs),
(96,334,o),
(55,321,o),
(55,264,cs),
(55,203,o),
(101,194,o),
(188,194,c),
(188,334,l)
);
},
{
closed = 1;
nodes = (
(239,325,l),
(239,171,ls),
(239,36,o),
(302,-29,o),
(450,-29,cs),
(598,-29,o),
(661,36,o),
(661,171,cs),
(661,325,l)
);
},
{
closed = 1;
nodes = (
(822,372,o),
(885,351,o),
(885,266,cs),
(885,180,o),
(821,163,o),
(769,160,cs),
(712,157,l),
(712,149,ls),
(712,-14,o),
(608,-79,o),
(450,-79,cs),
(292,-79,o),
(188,-14,o),
(188,149,cs),
(188,157,l),
(131,160,ls),
(79,163,o),
(15,180,o),
(15,266,cs),
(15,351,o),
(78,372,o),
(131,372,cs),
(769,372,ls)
);
},
{
closed = 1;
nodes = (
(712,194,l),
(799,194,o),
(845,203,o),
(845,264,cs),
(845,321,o),
(804,334,o),
(737,334,cs),
(729,334,o),
(721,334,o),
(712,334,c)
);
}
);
width = 900;
},
{
guides = (
{
pos = (35,0);
},
{
pos = (10,-175);
},
{
pos = (460,0);
},
{
pos = (10,250);
},
{
pos = (885,0);
},
{
pos = (10,675);
}
);
layerId = m002;
shapes = (
{
closed = 1;
nodes = (
(293,154,l),
(597,154,l),
(597,188,l),
(293,188,l)
);
},
{
closed = 1;
nodes = (
(297,80,l),
(593,80,l),
(593,114,l),
(297,114,l)
);
},
{
closed = 1;
nodes = (
(290,231,l),
(600,231,l),
(600,265,l),
(290,265,l)
);
},
{
closed = 1;
nodes = (
(606,423,o),
(618,437,o),
(618,480,cs),
(618,526,o),
(606,536,o),
(579,536,cs),
(550,536,o),
(537,526,o),
(537,480,cs),
(537,437,o),
(550,423,o),
(579,423,cs)
);
},
{
closed = 1;
nodes = (
(356,423,o),
(368,437,o),
(368,480,cs),
(368,526,o),
(356,536,o),
(329,536,cs),
(300,536,o),
(287,526,o),
(287,480,cs),
(287,437,o),
(300,423,o),
(329,423,cs)
);
},
{
closed = 1;
nodes = (
(689,560,l),
(689,600,o),
(662,629,o),
(587,629,cs),
(533,629,o),
(483,609,o),
(483,570,c),
(527,570,l),
(527,580,o),
(543,592,o),
(576,592,cs),
(616,592,o),
(646,577,o),
(646,560,c)
);
},
{
closed = 1;
nodes = (
(266,577,o),
(296,592,o),
(336,592,cs),
(369,592,o),
(385,580,o),
(385,570,c),
(429,570,l),
(429,609,o),
(379,629,o),
(325,629,cs),
(250,629,o),
(223,600,o),
(223,560,c),
(266,560,l)
);
},
{
closed = 1;
nodes = (
(179,334,o),
(171,334,o),
(163,334,cs),
(96,334,o),
(55,321,o),
(55,264,cs),
(55,203,o),
(101,194,o),
(188,194,c),
(188,334,l)
);
},
{
closed = 1;
nodes = (
(239,325,l),
(239,171,ls),
(239,36,o),
(302,-29,o),
(450,-29,cs),
(598,-29,o),
(661,36,o),
(661,171,cs),
(661,325,l)
);
},
{
closed = 1;
nodes = (
(822,372,o),
(885,351,o),
(885,266,cs),
(885,180,o),
(821,163,o),
(769,160,cs),
(712,157,l),
(712,149,ls),
(712,-14,o),
(608,-79,o),
(450,-79,cs),
(292,-79,o),
(188,-14,o),
(188,149,cs),
(188,157,l),
(131,160,ls),
(79,163,o),
(15,180,o),
(15,266,cs),
(15,351,o),
(78,372,o),
(131,372,cs),
(769,372,ls)
);
},
{
closed = 1;
nodes = (
(712,194,l),
(799,194,o),
(845,203,o),
(845,264,cs),
(845,321,o),
(804,334,o),
(737,334,cs),
(729,334,o),
(721,334,o),
(712,334,c)
);
}
);
width = 900;
},
{
guides = (
{
pos = (35,0);
},
{
pos = (10,-175);
},
{
pos = (460,0);
},
{
pos = (10,250);
},
{
pos = (885,0);
},
{
pos = (10,675);
}
);
layerId = m003;
shapes = (
{
closed = 1;
nodes = (
(293,154,l),
(597,154,l),
(597,188,l),
(293,188,l)
);
},
{
closed = 1;
nodes = (
(297,80,l),
(593,80,l),
(593,114,l),
(297,114,l)
);
},
{
closed = 1;
nodes = (
(290,231,l),
(600,231,l),
(600,265,l),
(290,265,l)
);
},
{
closed = 1;
nodes = (
(606,423,o),
(618,437,o),
(618,480,cs),
(618,526,o),
(606,536,o),
(579,536,cs),
(550,536,o),
(537,526,o),
(537,480,cs),
(537,437,o),
(550,423,o),
(579,423,cs)
);
},
{
closed = 1;
nodes = (
(356,423,o),
(368,437,o),
(368,480,cs),
(368,526,o),
(356,536,o),
(329,536,cs),
(300,536,o),
(287,526,o),
(287,480,cs),
(287,437,o),
(300,423,o),
(329,423,cs)
);
},
{
closed = 1;
nodes = (
(689,560,l),
(689,600,o),
(662,629,o),
(587,629,cs),
(533,629,o),
(483,609,o),
(483,570,c),
(527,570,l),
(527,580,o),
(543,592,o),
(576,592,cs),
(616,592,o),
(646,577,o),
(646,560,c)
);
},
{
closed = 1;
nodes = (
(266,577,o),
(296,592,o),
(336,592,cs),
(369,592,o),
(385,580,o),
(385,570,c),
(429,570,l),
(429,609,o),
(379,629,o),
(325,629,cs),
(250,629,o),
(223,600,o),
(223,560,c),
(266,560,l)
);
},
{
closed = 1;
nodes = (
(179,334,o),
(171,334,o),
(163,334,cs),
(96,334,o),
(55,321,o),
(55,264,cs),
(55,203,o),
(101,194,o),
(188,194,c),
(188,334,l)
);
},
{
closed = 1;
nodes = (
(239,325,l),
(239,171,ls),
(239,36,o),
(302,-29,o),
(450,-29,cs),
(598,-29,o),
(661,36,o),
(661,171,cs),
(661,325,l)
);
},
{
closed = 1;
nodes = (
(822,372,o),
(885,351,o),
(885,266,cs),
(885,180,o),
(821,163,o),
(769,160,cs),
(712,157,l),
(712,149,ls),
(712,-14,o),
(608,-79,o),
(450,-79,cs),
(292,-79,o),
(188,-14,o),
(188,149,cs),
(188,157,l),
(131,160,ls),
(79,163,o),
(15,180,o),
(15,266,cs),
(15,351,o),
(78,372,o),
(131,372,cs),
(769,372,ls)
);
},
{
closed = 1;
nodes = (
(712,194,l),
(799,194,o),
(845,203,o),
(845,264,cs),
(845,321,o),
(804,334,o),
(737,334,cs),
(729,334,o),
(721,334,o),
(712,334,c)
);
}
);
width = 900;
},
{
guides = (
{
pos = (35,0);
},
{
pos = (10,-175);
},
{
pos = (460,0);
},
{
pos = (10,250);
},
{
pos = (885,0);
},
{
pos = (10,675);
}
);
layerId = m004;
shapes = (
{
closed = 1;
nodes = (
(293,154,l),
(597,154,l),
(597,188,l),
(293,188,l)
);
},
{
closed = 1;
nodes = (
(297,80,l),
(593,80,l),
(593,114,l),
(297,114,l)
);
},
{
closed = 1;
nodes = (
(290,231,l),
(600,231,l),
(600,265,l),
(290,265,l)
);
},
{
closed = 1;
nodes = (
(606,423,o),
(618,437,o),
(618,480,cs),
(618,526,o),
(606,536,o),
(579,536,cs),
(550,536,o),
(537,526,o),
(537,480,cs),
(537,437,o),
(550,423,o),
(579,423,cs)
);
},
{
closed = 1;
nodes = (
(356,423,o),
(368,437,o),
(368,480,cs),
(368,526,o),
(356,536,o),
(329,536,cs),
(300,536,o),
(287,526,o),
(287,480,cs),
(287,437,o),
(300,423,o),
(329,423,cs)
);
},
{
closed = 1;
nodes = (
(689,560,l),
(689,600,o),
(662,629,o),
(587,629,cs),
(533,629,o),
(483,609,o),
(483,570,c),
(527,570,l),
(527,580,o),
(543,592,o),
(576,592,cs),
(616,592,o),
(646,577,o),
(646,560,c)
);
},
{
closed = 1;
nodes = (
(266,577,o),
(296,592,o),
(336,592,cs),
(369,592,o),
(385,580,o),
(385,570,c),
(429,570,l),
(429,609,o),
(379,629,o),
(325,629,cs),
(250,629,o),
(223,600,o),
(223,560,c),
(266,560,l)
);
},
{
closed = 1;
nodes = (
(179,334,o),
(171,334,o),
(163,334,cs),
(96,334,o),
(55,321,o),
(55,264,cs),
(55,203,o),
(101,194,o),
(188,194,c),
(188,334,l)
);
},
{
closed = 1;
nodes = (
(239,325,l),
(239,171,ls),
(239,36,o),
(302,-29,o),
(450,-29,cs),
(598,-29,o),
(661,36,o),
(661,171,cs),
(661,325,l)
);
},
{
closed = 1;
nodes = (
(822,372,o),
(885,351,o),
(885,266,cs),
(885,180,o),
(821,163,o),
(769,160,cs),
(712,157,l),
(712,149,ls),
(712,-14,o),
(608,-79,o),
(450,-79,cs),
(292,-79,o),
(188,-14,o),
(188,149,cs),
(188,157,l),
(131,160,ls),
(79,163,o),
(15,180,o),
(15,266,cs),
(15,351,o),
(78,372,o),
(131,372,cs),
(769,372,ls)
);
},
{
closed = 1;
nodes = (
(712,194,l),
(799,194,o),
(845,203,o),
(845,264,cs),
(845,321,o),
(804,334,o),
(737,334,cs),
(729,334,o),
(721,334,o),
(712,334,c)
);
}
);
width = 900;
}
);
unicode = 128567;
},
{
glyphname = putLitterInItsPlaceSymbol;
lastChange = "2023-12-02 23:46:24 +0000";
layers = (
{
guides = (
{
pos = (-22,0);
},
{
pos = (-47,-175);
},
{
pos = (403,0);
},
{
pos = (-47,250);
},
{
pos = (828,0);
},
{
pos = (-47,675);
}
);
layerId = master01;
shapes = (
{
closed = 1;
nodes = (
(181,15,l),
(181,298,ls),
(181,346,o),
(200,364,o),
(253,364,cs),
(301,364,o),
(319,350,o),
(319,311,cs),
(319,268,o),
(332,230,o),
(397,230,cs),
(493,230,l),
(493,283,l),
(403,283,ls),
(380,283,o),
(372,292,o),
(372,315,cs),
(372,369,o),
(353,417,o),
(253,417,cs),
(149,417,o),
(128,363,o),
(128,302,cs),
(128,15,l)
);
},
{
closed = 1;
nodes = (
(739,-175,l),
(771,193,l),
(719,193,l),
(694,-129,l),
(522,-129,l),
(497,193,l),
(445,193,l),
(477,-175,l)
);
},
{
closed = 1;
nodes = (
(626,97,o),
(632,131,o),
(654,146,c),
(654,182,o),
(629,204,o),
(593,204,c),
(547,204,o),
(566,167,o),
(535,146,c),
(593,146,o),
(593,116,o),
(593,88,c)
);
},
{
closed = 1;
nodes = (
(549,-79,l),
(604,-110,l),
(672,-8,l),
(603,31,l)
);
},
{
closed = 1;
nodes = (
(188,616,o),
(205,635,o),
(252,635,cs),
(302,635,o),
(317,616,o),
(317,562,cs),
(317,508,o),
(302,489,o),
(252,489,cs),
(205,489,o),
(188,508,o),
(188,562,cs)
);
},
{
closed = 1;
nodes = (
(333,448,o),
(361,466,o),
(361,562,cs),
(361,645,o),
(333,675,o),
(252,675,cs),
(173,675,o),
(145,645,o),
(145,562,cs),
(145,480,o),
(173,448,o),
(252,448,cs)
);
}
);
width = 900;
},
{
guides = (
{
pos = (-22,0);
},
{
pos = (-47,-175);
},
{
pos = (403,0);
},
{
pos = (-47,250);
},
{
pos = (828,0);
},
{
pos = (-47,675);
}
);
layerId = m002;
shapes = (
{
closed = 1;
nodes = (
(181,15,l),
(181,298,ls),
(181,346,o),
(200,364,o),
(253,364,cs),
(301,364,o),
(319,350,o),
(319,311,cs),
(319,268,o),
(332,230,o),
(397,230,cs),
(493,230,l),
(493,283,l),
(403,283,ls),
(380,283,o),
(372,292,o),
(372,315,cs),
(372,369,o),
(353,417,o),
(253,417,cs),
(149,417,o),
(128,363,o),
(128,302,cs),
(128,15,l)
);
},
{
closed = 1;
nodes = (
(739,-175,l),
(771,193,l),
(719,193,l),
(694,-129,l),
(522,-129,l),
(497,193,l),
(445,193,l),
(477,-175,l)
);
},
{
closed = 1;
nodes = (
(626,97,o),
(632,131,o),
(654,146,c),
(654,182,o),
(629,204,o),
(593,204,c),
(547,204,o),
(566,167,o),
(535,146,c),
(593,146,o),
(593,116,o),
(593,88,c)
);
},
{
closed = 1;
nodes = (
(549,-79,l),
(604,-110,l),
(672,-8,l),
(603,31,l)
);
},
{
closed = 1;
nodes = (
(188,616,o),
(205,635,o),
(252,635,cs),
(302,635,o),
(317,616,o),
(317,562,cs),
(317,508,o),
(302,489,o),
(252,489,cs),
(205,489,o),
(188,508,o),
(188,562,cs)
);
},
{
closed = 1;
nodes = (
(333,448,o),
(361,466,o),
(361,562,cs),
(361,645,o),
(333,675,o),
(252,675,cs),
(173,675,o),
(145,645,o),
(145,562,cs),
(145,480,o),
(173,448,o),
(252,448,cs)
);
}
);
width = 900;
},
{
guides = (
{
pos = (-22,0);
},
{
pos = (-47,-175);
},
{
pos = (403,0);
},
{
pos = (-47,250);
},
{
pos = (828,0);
},
{
pos = (-47,675);
}
);
layerId = m003;
shapes = (
{
closed = 1;
nodes = (
(181,15,l),
(181,298,ls),
(181,346,o),
(200,364,o),
(253,364,cs),
(301,364,o),
(319,350,o),
(319,311,cs),
(319,268,o),
(332,230,o),
(397,230,cs),
(493,230,l),
(493,283,l),
(403,283,ls),
(380,283,o),
(372,292,o),
(372,315,cs),
(372,369,o),
(353,417,o),
(253,417,cs),
(149,417,o),
(128,363,o),
(128,302,cs),
(128,15,l)
);
},
{
closed = 1;
nodes = (
(739,-175,l),
(771,193,l),
(719,193,l),
(694,-129,l),
(522,-129,l),
(497,193,l),
(445,193,l),
(477,-175,l)
);
},
{
closed = 1;
nodes = (
(626,97,o),
(632,131,o),
(654,146,c),
(654,182,o),
(629,204,o),
(593,204,c),
(547,204,o),
(566,167,o),
(535,146,c),
(593,146,o),
(593,116,o),
(593,88,c)
);
},
{
closed = 1;
nodes = (
(549,-79,l),
(604,-110,l),
(672,-8,l),
(603,31,l)
);
},
{
closed = 1;
nodes = (
(188,616,o),
(205,635,o),
(252,635,cs),
(302,635,o),
(317,616,o),
(317,562,cs),
(317,508,o),
(302,489,o),
(252,489,cs),
(205,489,o),
(188,508,o),
(188,562,cs)
);
},
{
closed = 1;
nodes = (
(333,448,o),
(361,466,o),
(361,562,cs),
(361,645,o),
(333,675,o),
(252,675,cs),
(173,675,o),
(145,645,o),
(145,562,cs),
(145,480,o),
(173,448,o),
(252,448,cs)
);
}
);
width = 900;
},
{
guides = (
{
pos = (-22,0);
},
{
pos = (-47,-175);
},
{
pos = (403,0);
},
{
pos = (-47,250);
},
{
pos = (828,0);
},
{
pos = (-47,675);
}
);
layerId = m004;
shapes = (
{
closed = 1;
nodes = (
(181,15,l),
(181,298,ls),
(181,346,o),
(200,364,o),
(253,364,cs),
(301,364,o),
(319,350,o),
(319,311,cs),
(319,268,o),
(332,230,o),
(397,230,cs),
(493,230,l),
(493,283,l),
(403,283,ls),
(380,283,o),
(372,292,o),
(372,315,cs),
(372,369,o),
(353,417,o),
(253,417,cs),
(149,417,o),
(128,363,o),
(128,302,cs),
(128,15,l)
);
},
{
closed = 1;
nodes = (
(739,-175,l),
(771,193,l),
(719,193,l),
(694,-129,l),
(522,-129,l),
(497,193,l),
(445,193,l),
(477,-175,l)
);
},
{
closed = 1;
nodes = (
(626,97,o),
(632,131,o),
(654,146,c),
(654,182,o),
(629,204,o),
(593,204,c),
(547,204,o),
(566,167,o),
(535,146,c),
(593,146,o),
(593,116,o),
(593,88,c)
);
},
{
closed = 1;
nodes = (
(549,-79,l),
(604,-110,l),
(672,-8,l),
(603,31,l)
);
},
{
closed = 1;
nodes = (
(188,616,o),
(205,635,o),
(252,635,cs),
(302,635,o),
(317,616,o),
(317,562,cs),
(317,508,o),
(302,489,o),
(252,489,cs),
(205,489,o),
(188,508,o),
(188,562,cs)
);
},
{
closed = 1;
nodes = (
(333,448,o),
(361,466,o),
(361,562,cs),
(361,645,o),
(333,675,o),
(252,675,cs),
(173,675,o),
(145,645,o),
(145,562,cs),
(145,480,o),
(173,448,o),
(252,448,cs)
);
}
);
width = 900;
}
);
unicode = 128686;
},
{
glyphname = wheelchairSymbol;
lastChange = "2023-12-02 23:46:24 +0000";
layers = (
{
guides = (
{
pos = (-46,0);
},
{
pos = (-71,-175);
},
{
pos = (379,0);
},
{
pos = (-71,250);
},
{
pos = (804,0);
},
{
pos = (-71,675);
}
);
layerId = master01;
shapes = (
{
closed = 1;
nodes = (
(633,128,ls),
(614,164,o),
(596,180,o),
(571,180,cs),
(554,180,o),
(535,172,o),
(496,154,c),
(473,161,l),
(473,238,ls),
(473,310,o),
(462,389,o),
(335,389,cs),
(218,389,o),
(194,320,o),
(194,265,cs),
(194,229,o),
(212,196,o),
(290,55,c),
(345,55,l),
(264,196,o),
(245,230,o),
(245,264,cs),
(245,313,o),
(275,341,o),
(333,341,cs),
(399,341,o),
(422,313,o),
(422,233,cs),
(422,177,l),
(401,181,o),
(371,181,o),
(346,181,c),
(346,134,l),
(461,134,o),
(500,99,o),
(500,8,cs),
(500,-82,o),
(461,-129,o),
(356,-129,cs),
(251,-129,o),
(211,-83,o),
(211,8,cs),
(211,48,o),
(212,70,o),
(231,93,c),
(207,126,l),
(184,114,o),
(165,77,o),
(165,8,cs),
(165,-121,o),
(214,-175,o),
(356,-175,cs),
(498,-175,o),
(546,-121,o),
(546,8,cs),
(546,52,o),
(539,85,o),
(528,111,c),
(550,122,o),
(558,125,o),
(563,125,cs),
(572,125,o),
(580,114,o),
(584,106,cs),
(688,-93,l),
(735,-71,l)
);
},
{
closed = 1;
nodes = (
(383,28,o),
(377,32,o),
(356,32,cs),
(333,32,o),
(328,29,o),
(328,8,cs),
(328,-12,o),
(333,-16,o),
(356,-16,cs),
(378,-16,o),
(383,-12,o),
(383,8,cs)
);
},
{
closed = 1;
nodes = (
(274,616,o),
(291,635,o),
(338,635,cs),
(388,635,o),
(403,616,o),
(403,557,cs),
(403,498,o),
(388,479,o),
(338,479,cs),
(291,479,o),
(274,498,o),
(274,557,cs)
);
},
{
closed = 1;
nodes = (
(419,438,o),
(447,470,o),
(447,557,cs),
(447,645,o),
(419,675,o),
(338,675,cs),
(259,675,o),
(231,645,o),
(231,557,cs),
(231,470,o),
(259,438,o),
(338,438,cs)
);
}
);
width = 900;
},
{
guides = (
{
pos = (-46,0);
},
{
pos = (-71,-175);
},
{
pos = (379,0);
},
{
pos = (-71,250);
},
{
pos = (804,0);
},
{
pos = (-71,675);
}
);
layerId = m002;
shapes = (
{
closed = 1;
nodes = (
(633,128,ls),
(614,164,o),
(596,180,o),
(571,180,cs),
(554,180,o),
(535,172,o),
(496,154,c),
(473,161,l),
(473,238,ls),
(473,310,o),
(462,389,o),
(335,389,cs),
(218,389,o),
(194,320,o),
(194,265,cs),
(194,229,o),
(212,196,o),
(290,55,c),
(345,55,l),
(264,196,o),
(245,230,o),
(245,264,cs),
(245,313,o),
(275,341,o),
(333,341,cs),
(399,341,o),
(422,313,o),
(422,233,cs),
(422,177,l),
(401,181,o),
(371,181,o),
(346,181,c),
(346,134,l),
(461,134,o),
(500,99,o),
(500,8,cs),
(500,-82,o),
(461,-129,o),
(356,-129,cs),
(251,-129,o),
(211,-83,o),
(211,8,cs),
(211,48,o),
(212,70,o),
(231,93,c),
(207,126,l),
(184,114,o),
(165,77,o),
(165,8,cs),
(165,-121,o),
(214,-175,o),
(356,-175,cs),
(498,-175,o),
(546,-121,o),
(546,8,cs),
(546,52,o),
(539,85,o),
(528,111,c),
(550,122,o),
(558,125,o),
(563,125,cs),
(572,125,o),
(580,114,o),
(584,106,cs),
(688,-93,l),
(735,-71,l)
);
},
{
closed = 1;
nodes = (
(383,28,o),
(377,32,o),
(356,32,cs),
(333,32,o),
(328,29,o),
(328,8,cs),
(328,-12,o),
(333,-16,o),
(356,-16,cs),
(378,-16,o),
(383,-12,o),
(383,8,cs)
);
},
{
closed = 1;
nodes = (
(274,616,o),
(291,635,o),
(338,635,cs),
(388,635,o),
(403,616,o),
(403,557,cs),
(403,498,o),
(388,479,o),
(338,479,cs),
(291,479,o),
(274,498,o),
(274,557,cs)
);
},
{
closed = 1;
nodes = (
(419,438,o),
(447,470,o),
(447,557,cs),
(447,645,o),
(419,675,o),
(338,675,cs),
(259,675,o),
(231,645,o),
(231,557,cs),
(231,470,o),
(259,438,o),
(338,438,cs)
);
}
);
width = 900;
},
{
guides = (
{
pos = (-46,0);
},
{
pos = (-71,-175);
},
{
pos = (379,0);
},
{
pos = (-71,250);
},
{
pos = (804,0);
},
{
pos = (-71,675);
}
);
layerId = m003;
shapes = (
{
closed = 1;
nodes = (
(633,128,ls),
(614,164,o),
(596,180,o),
(571,180,cs),
(554,180,o),
(535,172,o),
(496,154,c),
(473,161,l),
(473,238,ls),
(473,310,o),
(462,389,o),
(335,389,cs),
(218,389,o),
(194,320,o),
(194,265,cs),
(194,229,o),
(212,196,o),
(290,55,c),
(345,55,l),
(264,196,o),
(245,230,o),
(245,264,cs),
(245,313,o),
(275,341,o),
(333,341,cs),
(399,341,o),
(422,313,o),
(422,233,cs),
(422,177,l),
(401,181,o),
(371,181,o),
(346,181,c),
(346,134,l),
(461,134,o),
(500,99,o),
(500,8,cs),
(500,-82,o),
(461,-129,o),
(356,-129,cs),
(251,-129,o),
(211,-83,o),
(211,8,cs),
(211,48,o),
(212,70,o),
(231,93,c),
(207,126,l),
(184,114,o),
(165,77,o),
(165,8,cs),
(165,-121,o),
(214,-175,o),
(356,-175,cs),
(498,-175,o),
(546,-121,o),
(546,8,cs),
(546,52,o),
(539,85,o),
(528,111,c),
(550,122,o),
(558,125,o),
(563,125,cs),
(572,125,o),
(580,114,o),
(584,106,cs),
(688,-93,l),
(735,-71,l)
);
},
{
closed = 1;
nodes = (
(383,28,o),
(377,32,o),
(356,32,cs),
(333,32,o),
(328,29,o),
(328,8,cs),
(328,-12,o),
(333,-16,o),
(356,-16,cs),
(378,-16,o),
(383,-12,o),
(383,8,cs)
);
},
{
closed = 1;
nodes = (
(274,616,o),
(291,635,o),
(338,635,cs),
(388,635,o),
(403,616,o),
(403,557,cs),
(403,498,o),
(388,479,o),
(338,479,cs),
(291,479,o),
(274,498,o),
(274,557,cs)
);
},
{
closed = 1;
nodes = (
(419,438,o),
(447,470,o),
(447,557,cs),
(447,645,o),
(419,675,o),
(338,675,cs),
(259,675,o),
(231,645,o),
(231,557,cs),
(231,470,o),
(259,438,o),
(338,438,cs)
);
}
);
width = 900;
},
{
guides = (
{
pos = (-46,0);
},
{
pos = (-71,-175);
},
{
pos = (379,0);
},
{
pos = (-71,250);
},
{
pos = (804,0);
},
{
pos = (-71,675);
}
);
layerId = m004;
shapes = (
{
closed = 1;
nodes = (
(633,128,ls),
(614,164,o),
(596,180,o),
(571,180,cs),
(554,180,o),
(535,172,o),
(496,154,c),
(473,161,l),
(473,238,ls),
(473,310,o),
(462,389,o),
(335,389,cs),
(218,389,o),
(194,320,o),
(194,265,cs),
(194,229,o),
(212,196,o),
(290,55,c),
(345,55,l),
(264,196,o),
(245,230,o),
(245,264,cs),
(245,313,o),
(275,341,o),
(333,341,cs),
(399,341,o),
(422,313,o),
(422,233,cs),
(422,177,l),
(401,181,o),
(371,181,o),
(346,181,c),
(346,134,l),
(461,134,o),
(500,99,o),
(500,8,cs),
(500,-82,o),
(461,-129,o),
(356,-129,cs),
(251,-129,o),
(211,-83,o),
(211,8,cs),
(211,48,o),
(212,70,o),
(231,93,c),
(207,126,l),
(184,114,o),
(165,77,o),
(165,8,cs),
(165,-121,o),
(214,-175,o),
(356,-175,cs),
(498,-175,o),
(546,-121,o),
(546,8,cs),
(546,52,o),
(539,85,o),
(528,111,c),
(550,122,o),
(558,125,o),
(563,125,cs),
(572,125,o),
(580,114,o),
(584,106,cs),
(688,-93,l),
(735,-71,l)
);
},
{
closed = 1;
nodes = (
(383,28,o),
(377,32,o),
(356,32,cs),
(333,32,o),
(328,29,o),
(328,8,cs),
(328,-12,o),
(333,-16,o),
(356,-16,cs),
(378,-16,o),
(383,-12,o),
(383,8,cs)
);
},
{
closed = 1;
nodes = (
(274,616,o),
(291,635,o),
(338,635,cs),
(388,635,o),
(403,616,o),
(403,557,cs),
(403,498,o),
(388,479,o),
(338,479,cs),
(291,479,o),
(274,498,o),
(274,557,cs)
);
},
{
closed = 1;
nodes = (
(419,438,o),
(447,470,o),
(447,557,cs),
(447,645,o),
(419,675,o),
(338,675,cs),
(259,675,o),
(231,645,o),
(231,557,cs),
(231,470,o),
(259,438,o),
(338,438,cs)
);
}
);
width = 900;
}
);
unicode = 9855;
},
{
glyphname = mensSymbol;
lastChange = "2023-12-02 23:46:24 +0000";
layers = (
{
guides = (
{
pos = (239,0);
},
{
pos = (214,-175);
},
{
pos = (664,0);
},
{
pos = (214,250);
},
{
pos = (1089,0);
},
{
pos = (214,675);
}
);
layerId = master01;
shapes = (
{
closed = 1;
nodes = (
(317,277,o),
(264,210,o),
(264,84,c),
(264,-175,l),
(320,-175,l),
(320,78,l),
(320,164,o),
(354,222,o),
(450,222,c),
(546,222,o),
(580,164,o),
(580,78,c),
(580,-175,l),
(636,-175,l),
(636,84,l),
(636,214,o),
(578,277,o),
(450,277,c)
);
},
{
closed = 1;
nodes = (
(372,622,o),
(343,581,o),
(343,495,c),
(343,410,o),
(370,370,o),
(450,370,cs),
(530,370,o),
(557,410,o),
(557,495,c),
(557,581,o),
(528,622,o),
(450,622,cs)
);
},
{
closed = 1;
nodes = (
(325,317,o),
(288,372,o),
(288,495,c),
(288,619,o),
(326,675,o),
(450,675,cs),
(574,675,o),
(612,619,o),
(612,495,c),
(612,372,o),
(575,317,o),
(450,317,cs)
);
}
);
width = 900;
},
{
guides = (
{
pos = (239,0);
},
{
pos = (214,-175);
},
{
pos = (664,0);
},
{
pos = (214,250);
},
{
pos = (1089,0);
},
{
pos = (214,675);
}
);
layerId = m002;
shapes = (
{
closed = 1;
nodes = (
(317,277,o),
(264,210,o),
(264,84,c),
(264,-175,l),
(320,-175,l),
(320,78,l),
(320,164,o),
(354,222,o),
(450,222,c),
(546,222,o),
(580,164,o),
(580,78,c),
(580,-175,l),
(636,-175,l),
(636,84,l),
(636,214,o),
(578,277,o),
(450,277,c)
);
},
{
closed = 1;
nodes = (
(372,622,o),
(343,581,o),
(343,495,c),
(343,410,o),
(370,370,o),
(450,370,cs),
(530,370,o),
(557,410,o),
(557,495,c),
(557,581,o),
(528,622,o),
(450,622,cs)
);
},
{
closed = 1;
nodes = (
(325,317,o),
(288,372,o),
(288,495,c),
(288,619,o),
(326,675,o),
(450,675,cs),
(574,675,o),
(612,619,o),
(612,495,c),
(612,372,o),
(575,317,o),
(450,317,cs)
);
}
);
width = 900;
},
{
guides = (
{
pos = (239,0);
},
{
pos = (214,-175);
},
{
pos = (664,0);
},
{
pos = (214,250);
},
{
pos = (1089,0);
},
{
pos = (214,675);
}
);
layerId = m003;
shapes = (
{
closed = 1;
nodes = (
(317,277,o),
(264,210,o),
(264,84,c),
(264,-175,l),
(320,-175,l),
(320,78,l),
(320,164,o),
(354,222,o),
(450,222,c),
(546,222,o),
(580,164,o),
(580,78,c),
(580,-175,l),
(636,-175,l),
(636,84,l),
(636,214,o),
(578,277,o),
(450,277,c)
);
},
{
closed = 1;
nodes = (
(372,622,o),
(343,581,o),
(343,495,c),
(343,410,o),
(370,370,o),
(450,370,cs),
(530,370,o),
(557,410,o),
(557,495,c),
(557,581,o),
(528,622,o),
(450,622,cs)
);
},
{
closed = 1;
nodes = (
(325,317,o),
(288,372,o),
(288,495,c),
(288,619,o),
(326,675,o),
(450,675,cs),
(574,675,o),
(612,619,o),
(612,495,c),
(612,372,o),
(575,317,o),
(450,317,cs)
);
}
);
width = 900;
},
{
guides = (
{
pos = (239,0);
},
{
pos = (214,-175);
},
{
pos = (664,0);
},
{
pos = (214,250);
},
{
pos = (1089,0);
},
{
pos = (214,675);
}
);
layerId = m004;
shapes = (
{
closed = 1;
nodes = (
(317,277,o),
(264,210,o),
(264,84,c),
(264,-175,l),
(320,-175,l),
(320,78,l),
(320,164,o),
(354,222,o),
(450,222,c),
(546,222,o),
(580,164,o),
(580,78,c),
(580,-175,l),
(636,-175,l),
(636,84,l),
(636,214,o),
(578,277,o),
(450,277,c)
);
},
{
closed = 1;
nodes = (
(372,622,o),
(343,581,o),
(343,495,c),
(343,410,o),
(370,370,o),
(450,370,cs),
(530,370,o),
(557,410,o),
(557,495,c),
(557,581,o),
(528,622,o),
(450,622,cs)
);
},
{
closed = 1;
nodes = (
(325,317,o),
(288,372,o),
(288,495,c),
(288,619,o),
(326,675,o),
(450,675,cs),
(574,675,o),
(612,619,o),
(612,495,c),
(612,372,o),
(575,317,o),
(450,317,cs)
);
}
);
width = 900;
}
);
unicode = 128697;
},
{
glyphname = womensSymbol;
lastChange = "2023-12-02 23:46:24 +0000";
layers = (
{
guides = (
{
pos = (239,0);
},
{
pos = (214,-175);
},
{
pos = (664,0);
},
{
pos = (214,250);
},
{
pos = (1089,0);
},
{
pos = (214,675);
}
);
layerId = master01;
shapes = (
{
closed = 1;
nodes = (
(365,370,o),
(344,409,o),
(344,495,c),
(344,582,o),
(370,622,o),
(450,622,cs),
(530,622,o),
(556,582,o),
(556,495,c),
(556,409,o),
(535,370,o),
(450,370,cs)
);
},
{
closed = 1;
nodes = (
(317,277,o),
(264,210,o),
(264,84,c),
(264,-175,l),
(320,-175,l),
(320,78,l),
(320,164,o),
(354,222,o),
(450,222,c),
(546,222,o),
(580,164,o),
(580,78,c),
(580,-175,l),
(636,-175,l),
(636,84,l),
(636,214,o),
(578,277,o),
(450,277,c)
);
},
{
closed = 1;
nodes = (
(347,675,o),
(303,638,o),
(293,536,c),
(292,528,o),
(292,524,o),
(291,519,c),
(288,506,o),
(270,500,o),
(244,500,c),
(198,500,l),
(198,450,l),
(244,450,l),
(261,450,o),
(282,452,o),
(294,455,c),
(294,420,l),
(294,385,o),
(276,369,o),
(241,369,c),
(195,369,l),
(195,319,l),
(241,319,l),
(288,319,o),
(320,334,o),
(335,357,c),
(351,330,o),
(395,317,o),
(450,317,cs),
(505,317,o),
(549,330,o),
(565,357,c),
(580,334,o),
(612,319,o),
(659,319,c),
(705,319,l),
(705,369,l),
(659,369,l),
(624,369,o),
(606,385,o),
(606,420,c),
(606,455,l),
(618,452,o),
(639,450,o),
(656,450,c),
(702,450,l),
(702,500,l),
(656,500,l),
(630,500,o),
(612,506,o),
(609,519,c),
(608,524,o),
(608,528,o),
(607,536,c),
(597,638,o),
(553,675,o),
(450,675,cs)
);
}
);
width = 900;
},
{
guides = (
{
pos = (239,0);
},
{
pos = (214,-175);
},
{
pos = (664,0);
},
{
pos = (214,250);
},
{
pos = (1089,0);
},
{
pos = (214,675);
}
);
layerId = m002;
shapes = (
{
closed = 1;
nodes = (
(365,370,o),
(344,409,o),
(344,495,c),
(344,582,o),
(370,622,o),
(450,622,cs),
(530,622,o),
(556,582,o),
(556,495,c),
(556,409,o),
(535,370,o),
(450,370,cs)
);
},
{
closed = 1;
nodes = (
(317,277,o),
(264,210,o),
(264,84,c),
(264,-175,l),
(320,-175,l),
(320,78,l),
(320,164,o),
(354,222,o),
(450,222,c),
(546,222,o),
(580,164,o),
(580,78,c),
(580,-175,l),
(636,-175,l),
(636,84,l),
(636,214,o),
(578,277,o),
(450,277,c)
);
},
{
closed = 1;
nodes = (
(347,675,o),
(303,638,o),
(293,536,c),
(292,528,o),
(292,524,o),
(291,519,c),
(288,506,o),
(270,500,o),
(244,500,c),
(198,500,l),
(198,450,l),
(244,450,l),
(261,450,o),
(282,452,o),
(294,455,c),
(294,420,l),
(294,385,o),
(276,369,o),
(241,369,c),
(195,369,l),
(195,319,l),
(241,319,l),
(288,319,o),
(320,334,o),
(335,357,c),
(351,330,o),
(395,317,o),
(450,317,cs),
(505,317,o),
(549,330,o),
(565,357,c),
(580,334,o),
(612,319,o),
(659,319,c),
(705,319,l),
(705,369,l),
(659,369,l),
(624,369,o),
(606,385,o),
(606,420,c),
(606,455,l),
(618,452,o),
(639,450,o),
(656,450,c),
(702,450,l),
(702,500,l),
(656,500,l),
(630,500,o),
(612,506,o),
(609,519,c),
(608,524,o),
(608,528,o),
(607,536,c),
(597,638,o),
(553,675,o),
(450,675,cs)
);
}
);
width = 900;
},
{
guides = (
{
pos = (239,0);
},
{
pos = (214,-175);
},
{
pos = (664,0);
},
{
pos = (214,250);
},
{
pos = (1089,0);
},
{
pos = (214,675);
}
);
layerId = m003;
shapes = (
{
closed = 1;
nodes = (
(365,370,o),
(344,409,o),
(344,495,c),
(344,582,o),
(370,622,o),
(450,622,cs),
(530,622,o),
(556,582,o),
(556,495,c),
(556,409,o),
(535,370,o),
(450,370,cs)
);
},
{
closed = 1;
nodes = (
(317,277,o),
(264,210,o),
(264,84,c),
(264,-175,l),
(320,-175,l),
(320,78,l),
(320,164,o),
(354,222,o),
(450,222,c),
(546,222,o),
(580,164,o),
(580,78,c),
(580,-175,l),
(636,-175,l),
(636,84,l),
(636,214,o),
(578,277,o),
(450,277,c)
);
},
{
closed = 1;
nodes = (
(347,675,o),
(303,638,o),
(293,536,c),
(292,528,o),
(292,524,o),
(291,519,c),
(288,506,o),
(270,500,o),
(244,500,c),
(198,500,l),
(198,450,l),
(244,450,l),
(261,450,o),
(282,452,o),
(294,455,c),
(294,420,l),
(294,385,o),
(276,369,o),
(241,369,c),
(195,369,l),
(195,319,l),
(241,319,l),
(288,319,o),
(320,334,o),
(335,357,c),
(351,330,o),
(395,317,o),
(450,317,cs),
(505,317,o),
(549,330,o),
(565,357,c),
(580,334,o),
(612,319,o),
(659,319,c),
(705,319,l),
(705,369,l),
(659,369,l),
(624,369,o),
(606,385,o),
(606,420,c),
(606,455,l),
(618,452,o),
(639,450,o),
(656,450,c),
(702,450,l),
(702,500,l),
(656,500,l),
(630,500,o),
(612,506,o),
(609,519,c),
(608,524,o),
(608,528,o),
(607,536,c),
(597,638,o),
(553,675,o),
(450,675,cs)
);
}
);
width = 900;
},
{
guides = (
{
pos = (239,0);
},
{
pos = (214,-175);
},
{
pos = (664,0);
},
{
pos = (214,250);
},
{
pos = (1089,0);
},
{
pos = (214,675);
}
);
layerId = m004;
shapes = (
{
closed = 1;
nodes = (
(365,370,o),
(344,409,o),
(344,495,c),
(344,582,o),
(370,622,o),
(450,622,cs),
(530,622,o),
(556,582,o),
(556,495,c),
(556,409,o),
(535,370,o),
(450,370,cs)
);
},
{
closed = 1;
nodes = (
(317,277,o),
(264,210,o),
(264,84,c),
(264,-175,l),
(320,-175,l),
(320,78,l),
(320,164,o),
(354,222,o),
(450,222,c),
(546,222,o),
(580,164,o),
(580,78,c),
(580,-175,l),
(636,-175,l),
(636,84,l),
(636,214,o),
(578,277,o),
(450,277,c)
);
},
{
closed = 1;
nodes = (
(347,675,o),
(303,638,o),
(293,536,c),
(292,528,o),
(292,524,o),
(291,519,c),
(288,506,o),
(270,500,o),
(244,500,c),
(198,500,l),
(198,450,l),
(244,450,l),
(261,450,o),
(282,452,o),
(294,455,c),
(294,420,l),
(294,385,o),
(276,369,o),
(241,369,c),
(195,369,l),
(195,319,l),
(241,319,l),
(288,319,o),
(320,334,o),
(335,357,c),
(351,330,o),
(395,317,o),
(450,317,cs),
(505,317,o),
(549,330,o),
(565,357,c),
(580,334,o),
(612,319,o),
(659,319,c),
(705,319,l),
(705,369,l),
(659,369,l),
(624,369,o),
(606,385,o),
(606,420,c),
(606,455,l),
(618,452,o),
(639,450,o),
(656,450,c),
(702,450,l),
(702,500,l),
(656,500,l),
(630,500,o),
(612,506,o),
(609,519,c),
(608,524,o),
(608,528,o),
(607,536,c),
(597,638,o),
(553,675,o),
(450,675,cs)
);
}
);
width = 900;
}
);
unicode = 128698;
},
{
glyphname = restroom;
lastChange = "2023-12-02 23:46:24 +0000";
layers = (
{
guides = (
{
pos = (-11,0);
},
{
pos = (-36,-175);
},
{
pos = (414,0);
},
{
pos = (-36,250);
},
{
pos = (839,0);
},
{
pos = (-36,675);
}
);
layerId = master01;
shapes = (
{
closed = 1;
nodes = (
(337,622,o),
(415,622,c),
(495,622,o),
(521,582,o),
(521,495,c),
(521,409,o),
(500,370,o),
(415,370,c),
(335,370,o),
(308,410,o),
(308,495,c),
(308,581,o)
);
},
{
closed = 1;
nodes = (
(624,369,l),
(589,369,o),
(571,385,o),
(571,420,c),
(571,455,l),
(583,452,o),
(604,450,o),
(621,450,c),
(667,450,l),
(667,500,l),
(621,500,l),
(595,500,o),
(577,506,o),
(574,519,c),
(573,524,o),
(573,528,o),
(572,536,c),
(562,638,o),
(518,675,o),
(415,675,c),
(291,675,o),
(253,619,o),
(253,495,c),
(253,372,o),
(290,317,o),
(415,317,c),
(470,317,o),
(514,330,o),
(530,357,c),
(545,334,o),
(577,319,o),
(624,319,c),
(670,319,l),
(670,369,l)
);
},
{
closed = 1;
nodes = (
(282,277,o),
(229,210,o),
(229,84,c),
(229,-175,l),
(285,-175,l),
(285,78,l),
(285,164,o),
(319,222,o),
(415,222,c),
(511,222,o),
(545,164,o),
(545,78,c),
(545,-175,l),
(601,-175,l),
(601,84,l),
(601,214,o),
(543,277,o),
(415,277,c)
);
}
);
width = 900;
},
{
guides = (
{
pos = (-11,0);
},
{
pos = (-36,-175);
},
{
pos = (414,0);
},
{
pos = (-36,250);
},
{
pos = (839,0);
},
{
pos = (-36,675);
}
);
layerId = m002;
shapes = (
{
closed = 1;
nodes = (
(337,622,o),
(415,622,c),
(495,622,o),
(521,582,o),
(521,495,c),
(521,409,o),
(500,370,o),
(415,370,c),
(335,370,o),
(308,410,o),
(308,495,c),
(308,581,o)
);
},
{
closed = 1;
nodes = (
(624,369,l),
(589,369,o),
(571,385,o),
(571,420,c),
(571,455,l),
(583,452,o),
(604,450,o),
(621,450,c),
(667,450,l),
(667,500,l),
(621,500,l),
(595,500,o),
(577,506,o),
(574,519,c),
(573,524,o),
(573,528,o),
(572,536,c),
(562,638,o),
(518,675,o),
(415,675,c),
(291,675,o),
(253,619,o),
(253,495,c),
(253,372,o),
(290,317,o),
(415,317,c),
(470,317,o),
(514,330,o),
(530,357,c),
(545,334,o),
(577,319,o),
(624,319,c),
(670,319,l),
(670,369,l)
);
},
{
closed = 1;
nodes = (
(282,277,o),
(229,210,o),
(229,84,c),
(229,-175,l),
(285,-175,l),
(285,78,l),
(285,164,o),
(319,222,o),
(415,222,c),
(511,222,o),
(545,164,o),
(545,78,c),
(545,-175,l),
(601,-175,l),
(601,84,l),
(601,214,o),
(543,277,o),
(415,277,c)
);
}
);
width = 900;
},
{
guides = (
{
pos = (-11,0);
},
{
pos = (-36,-175);
},
{
pos = (414,0);
},
{
pos = (-36,250);
},
{
pos = (839,0);
},
{
pos = (-36,675);
}
);
layerId = m003;
shapes = (
{
closed = 1;
nodes = (
(337,622,o),
(415,622,c),
(495,622,o),
(521,582,o),
(521,495,c),
(521,409,o),
(500,370,o),
(415,370,c),
(335,370,o),
(308,410,o),
(308,495,c),
(308,581,o)
);
},
{
closed = 1;
nodes = (
(624,369,l),
(589,369,o),
(571,385,o),
(571,420,c),
(571,455,l),
(583,452,o),
(604,450,o),
(621,450,c),
(667,450,l),
(667,500,l),
(621,500,l),
(595,500,o),
(577,506,o),
(574,519,c),
(573,524,o),
(573,528,o),
(572,536,c),
(562,638,o),
(518,675,o),
(415,675,c),
(291,675,o),
(253,619,o),
(253,495,c),
(253,372,o),
(290,317,o),
(415,317,c),
(470,317,o),
(514,330,o),
(530,357,c),
(545,334,o),
(577,319,o),
(624,319,c),
(670,319,l),
(670,369,l)
);
},
{
closed = 1;
nodes = (
(282,277,o),
(229,210,o),
(229,84,c),
(229,-175,l),
(285,-175,l),
(285,78,l),
(285,164,o),
(319,222,o),
(415,222,c),
(511,222,o),
(545,164,o),
(545,78,c),
(545,-175,l),
(601,-175,l),
(601,84,l),
(601,214,o),
(543,277,o),
(415,277,c)
);
}
);
width = 900;
},
{
guides = (
{
pos = (-11,0);
},
{
pos = (-36,-175);
},
{
pos = (414,0);
},
{
pos = (-36,250);
},
{
pos = (839,0);
},
{
pos = (-36,675);
}
);
layerId = m004;
shapes = (
{
closed = 1;
nodes = (
(337,622,o),
(415,622,c),
(495,622,o),
(521,582,o),
(521,495,c),
(521,409,o),
(500,370,o),
(415,370,c),
(335,370,o),
(308,410,o),
(308,495,c),
(308,581,o)
);
},
{
closed = 1;
nodes = (
(624,369,l),
(589,369,o),
(571,385,o),
(571,420,c),
(571,455,l),
(583,452,o),
(604,450,o),
(621,450,c),
(667,450,l),
(667,500,l),
(621,500,l),
(595,500,o),
(577,506,o),
(574,519,c),
(573,524,o),
(573,528,o),
(572,536,c),
(562,638,o),
(518,675,o),
(415,675,c),
(291,675,o),
(253,619,o),
(253,495,c),
(253,372,o),
(290,317,o),
(415,317,c),
(470,317,o),
(514,330,o),
(530,357,c),
(545,334,o),
(577,319,o),
(624,319,c),
(670,319,l),
(670,369,l)
);
},
{
closed = 1;
nodes = (
(282,277,o),
(229,210,o),
(229,84,c),
(229,-175,l),
(285,-175,l),
(285,78,l),
(285,164,o),
(319,222,o),
(415,222,c),
(511,222,o),
(545,164,o),
(545,78,c),
(545,-175,l),
(601,-175,l),
(601,84,l),
(601,214,o),
(543,277,o),
(415,277,c)
);
}
);
width = 900;
}
);
unicode = 128699;
},
{
glyphname = forkAndKnife;
lastChange = "2023-12-02 23:46:24 +0000";
layers = (
{
guides = (
{
pos = (28,0);
},
{
pos = (3,-175);
},
{
pos = (453,0);
},
{
pos = (3,250);
},
{
pos = (878,0);
},
{
pos = (3,675);
}
);
layerId = master01;
shapes = (
{
closed = 1;
nodes = (
(371,439,l),
(371,350,o),
(329,313,o),
(264,313,c),
(200,313,o),
(158,351,o),
(158,439,c),
(158,658,l),
(103,658,l),
(103,433,l),
(103,367,o),
(121,279,o),
(237,262,c),
(237,-175,l),
(292,-175,l),
(292,262,l),
(408,279,o),
(426,367,o),
(426,433,c),
(426,658,l),
(371,658,l)
);
},
{
closed = 1;
nodes = (
(740,340,o),
(713,312,o),
(638,312,c),
(564,312,o),
(537,340,o),
(537,459,c),
(537,583,o),
(564,620,o),
(638,620,c),
(713,620,o),
(740,583,o),
(740,459,c)
);
},
{
closed = 1;
nodes = (
(525,675,o),
(481,620,o),
(481,459,c),
(481,321,o),
(515,271,o),
(612,258,c),
(612,-175,l),
(668,-175,l),
(668,259,l),
(763,273,o),
(796,322,o),
(796,459,c),
(796,620,o),
(751,675,o),
(638,675,c)
);
},
{
closed = 1;
nodes = (
(196,366,l),
(246,366,l),
(246,658,l),
(196,658,l)
);
},
{
closed = 1;
nodes = (
(282,366,l),
(332,366,l),
(332,658,l),
(282,658,l)
);
}
);
width = 900;
},
{
guides = (
{
pos = (28,0);
},
{
pos = (3,-175);
},
{
pos = (453,0);
},
{
pos = (3,250);
},
{
pos = (878,0);
},
{
pos = (3,675);
}
);
layerId = m002;
shapes = (
{
closed = 1;
nodes = (
(371,439,l),
(371,350,o),
(329,313,o),
(264,313,c),
(200,313,o),
(158,351,o),
(158,439,c),
(158,658,l),
(103,658,l),
(103,433,l),
(103,367,o),
(121,279,o),
(237,262,c),
(237,-175,l),
(292,-175,l),
(292,262,l),
(408,279,o),
(426,367,o),
(426,433,c),
(426,658,l),
(371,658,l)
);
},
{
closed = 1;
nodes = (
(740,340,o),
(713,312,o),
(638,312,c),
(564,312,o),
(537,340,o),
(537,459,c),
(537,583,o),
(564,620,o),
(638,620,c),
(713,620,o),
(740,583,o),
(740,459,c)
);
},
{
closed = 1;
nodes = (
(525,675,o),
(481,620,o),
(481,459,c),
(481,321,o),
(515,271,o),
(612,258,c),
(612,-175,l),
(668,-175,l),
(668,259,l),
(763,273,o),
(796,322,o),
(796,459,c),
(796,620,o),
(751,675,o),
(638,675,c)
);
},
{
closed = 1;
nodes = (
(196,366,l),
(246,366,l),
(246,658,l),
(196,658,l)
);
},
{
closed = 1;
nodes = (
(282,366,l),
(332,366,l),
(332,658,l),
(282,658,l)
);
}
);
width = 900;
},
{
guides = (
{
pos = (28,0);
},
{
pos = (3,-175);
},
{
pos = (453,0);
},
{
pos = (3,250);
},
{
pos = (878,0);
},
{
pos = (3,675);
}
);
layerId = m003;
shapes = (
{
closed = 1;
nodes = (
(371,439,l),
(371,350,o),
(329,313,o),
(264,313,c),
(200,313,o),
(158,351,o),
(158,439,c),
(158,658,l),
(103,658,l),
(103,433,l),
(103,367,o),
(121,279,o),
(237,262,c),
(237,-175,l),
(292,-175,l),
(292,262,l),
(408,279,o),
(426,367,o),
(426,433,c),
(426,658,l),
(371,658,l)
);
},
{
closed = 1;
nodes = (
(740,340,o),
(713,312,o),
(638,312,c),
(564,312,o),
(537,340,o),
(537,459,c),
(537,583,o),
(564,620,o),
(638,620,c),
(713,620,o),
(740,583,o),
(740,459,c)
);
},
{
closed = 1;
nodes = (
(525,675,o),
(481,620,o),
(481,459,c),
(481,321,o),
(515,271,o),
(612,258,c),
(612,-175,l),
(668,-175,l),
(668,259,l),
(763,273,o),
(796,322,o),
(796,459,c),
(796,620,o),
(751,675,o),
(638,675,c)
);
},
{
closed = 1;
nodes = (
(196,366,l),
(246,366,l),
(246,658,l),
(196,658,l)
);
},
{
closed = 1;
nodes = (
(282,366,l),
(332,366,l),
(332,658,l),
(282,658,l)
);
}
);
width = 900;
},
{
guides = (
{
pos = (28,0);
},
{
pos = (3,-175);
},
{
pos = (453,0);
},
{
pos = (3,250);
},
{
pos = (878,0);
},
{
pos = (3,675);
}
);
layerId = m004;
shapes = (
{
closed = 1;
nodes = (
(371,439,l),
(371,350,o),
(329,313,o),
(264,313,c),
(200,313,o),
(158,351,o),
(158,439,c),
(158,658,l),
(103,658,l),
(103,433,l),
(103,367,o),
(121,279,o),
(237,262,c),
(237,-175,l),
(292,-175,l),
(292,262,l),
(408,279,o),
(426,367,o),
(426,433,c),
(426,658,l),
(371,658,l)
);
},
{
closed = 1;
nodes = (
(740,340,o),
(713,312,o),
(638,312,c),
(564,312,o),
(537,340,o),
(537,459,c),
(537,583,o),
(564,620,o),
(638,620,c),
(713,620,o),
(740,583,o),
(740,459,c)
);
},
{
closed = 1;
nodes = (
(525,675,o),
(481,620,o),
(481,459,c),
(481,321,o),
(515,271,o),
(612,258,c),
(612,-175,l),
(668,-175,l),
(668,259,l),
(763,273,o),
(796,322,o),
(796,459,c),
(796,620,o),
(751,675,o),
(638,675,c)
);
},
{
closed = 1;
nodes = (
(196,366,l),
(246,366,l),
(246,658,l),
(196,658,l)
);
},
{
closed = 1;
nodes = (
(282,366,l),
(332,366,l),
(332,658,l),
(282,658,l)
);
}
);
width = 900;
}
);
unicode = 127860;
},
{
glyphname = microphone;
lastChange = "2023-12-02 23:46:24 +0000";
layers = (
{
guides = (
{
pos = (27,0);
},
{
pos = (2,-175);
},
{
pos = (452,0);
},
{
pos = (2,250);
},
{
pos = (877,0);
},
{
pos = (2,675);
}
);
layerId = master01;
shapes = (
{
closed = 1;
nodes = (
(508,337,l),
(585,-111,l),
(417,313,l)
);
},
{
closed = 1;
nodes = (
(505,379,o),
(455,367,c),
(454,367,l),
(398,352,o),
(365,363,o),
(343,403,c),
(527,449,l),
(523,402,o)
);
},
{
closed = 1;
nodes = (
(327,438,l),
(320,457,o),
(306,502,o),
(306,539,cs),
(306,598,o),
(365,627,o),
(432,627,c),
(495,627,o),
(513,550,o),
(524,487,c)
);
},
{
closed = 1;
nodes = (
(551,372,l),
(567,392,o),
(575,417,o),
(575,450,cs),
(575,524,o),
(536,675,o),
(432,675,cs),
(382,675,o),
(259,653,o),
(259,542,cs),
(259,487,o),
(289,347,o),
(362,323,c),
(560,-175,l),
(641,-154,l)
);
}
);
width = 900;
},
{
guides = (
{
pos = (27,0);
},
{
pos = (2,-175);
},
{
pos = (452,0);
},
{
pos = (2,250);
},
{
pos = (877,0);
},
{
pos = (2,675);
}
);
layerId = m002;
shapes = (
{
closed = 1;
nodes = (
(508,337,l),
(585,-111,l),
(417,313,l)
);
},
{
closed = 1;
nodes = (
(505,379,o),
(455,367,c),
(454,367,l),
(398,352,o),
(365,363,o),
(343,403,c),
(527,449,l),
(523,402,o)
);
},
{
closed = 1;
nodes = (
(327,438,l),
(320,457,o),
(306,502,o),
(306,539,cs),
(306,598,o),
(365,627,o),
(432,627,c),
(495,627,o),
(513,550,o),
(524,487,c)
);
},
{
closed = 1;
nodes = (
(551,372,l),
(567,392,o),
(575,417,o),
(575,450,cs),
(575,524,o),
(536,675,o),
(432,675,cs),
(382,675,o),
(259,653,o),
(259,542,cs),
(259,487,o),
(289,347,o),
(362,323,c),
(560,-175,l),
(641,-154,l)
);
}
);
width = 900;
},
{
guides = (
{
pos = (27,0);
},
{
pos = (2,-175);
},
{
pos = (452,0);
},
{
pos = (2,250);
},
{
pos = (877,0);
},
{
pos = (2,675);
}
);
layerId = m003;
shapes = (
{
closed = 1;
nodes = (
(508,337,l),
(585,-111,l),
(417,313,l)
);
},
{
closed = 1;
nodes = (
(505,379,o),
(455,367,c),
(454,367,l),
(398,352,o),
(365,363,o),
(343,403,c),
(527,449,l),
(523,402,o)
);
},
{
closed = 1;
nodes = (
(327,438,l),
(320,457,o),
(306,502,o),
(306,539,cs),
(306,598,o),
(365,627,o),
(432,627,c),
(495,627,o),
(513,550,o),
(524,487,c)
);
},
{
closed = 1;
nodes = (
(551,372,l),
(567,392,o),
(575,417,o),
(575,450,cs),
(575,524,o),
(536,675,o),
(432,675,cs),
(382,675,o),
(259,653,o),
(259,542,cs),
(259,487,o),
(289,347,o),
(362,323,c),
(560,-175,l),
(641,-154,l)
);
}
);
width = 900;
},
{
guides = (
{
pos = (27,0);
},
{
pos = (2,-175);
},
{
pos = (452,0);
},
{
pos = (2,250);
},
{
pos = (877,0);
},
{
pos = (2,675);
}
);
layerId = m004;
shapes = (
{
closed = 1;
nodes = (
(508,337,l),
(585,-111,l),
(417,313,l)
);
},
{
closed = 1;
nodes = (
(505,379,o),
(455,367,c),
(454,367,l),
(398,352,o),
(365,363,o),
(343,403,c),
(527,449,l),
(523,402,o)
);
},
{
closed = 1;
nodes = (
(327,438,l),
(320,457,o),
(306,502,o),
(306,539,cs),
(306,598,o),
(365,627,o),
(432,627,c),
(495,627,o),
(513,550,o),
(524,487,c)
);
},
{
closed = 1;
nodes = (
(551,372,l),
(567,392,o),
(575,417,o),
(575,450,cs),
(575,524,o),
(536,675,o),
(432,675,cs),
(382,675,o),
(259,653,o),
(259,542,cs),
(259,487,o),
(289,347,o),
(362,323,c),
(560,-175,l),
(641,-154,l)
);
}
);
width = 900;
}
);
unicode = 127908;
},
{
glyphname = hospital;
lastChange = "2023-12-02 23:46:24 +0000";
layers = (
{
guides = (
{
pos = (25,0);
},
{
pos = (0,-175);
},
{
pos = (450,0);
},
{
pos = (0,250);
},
{
pos = (875,0);
},
{
pos = (0,675);
}
);
layerId = master01;
shapes = (
{
closed = 1;
nodes = (
(282,665,l),
(282,418,l),
(35,418,l),
(35,82,l),
(282,82,l),
(282,-165,l),
(618,-165,l),
(618,82,l),
(865,82,l),
(865,418,l),
(618,418,l),
(618,665,l)
);
},
{
closed = 1;
nodes = (
(91,362,l),
(338,362,l),
(338,609,l),
(562,609,l),
(562,362,l),
(809,362,l),
(809,138,l),
(562,138,l),
(562,-109,l),
(338,-109,l),
(338,138,l),
(91,138,l)
);
}
);
width = 900;
},
{
guides = (
{
pos = (25,0);
},
{
pos = (0,-175);
},
{
pos = (450,0);
},
{
pos = (0,250);
},
{
pos = (875,0);
},
{
pos = (0,675);
}
);
layerId = m002;
shapes = (
{
closed = 1;
nodes = (
(282,665,l),
(282,418,l),
(35,418,l),
(35,82,l),
(282,82,l),
(282,-165,l),
(618,-165,l),
(618,82,l),
(865,82,l),
(865,418,l),
(618,418,l),
(618,665,l)
);
},
{
closed = 1;
nodes = (
(91,362,l),
(338,362,l),
(338,609,l),
(562,609,l),
(562,362,l),
(809,362,l),
(809,138,l),
(562,138,l),
(562,-109,l),
(338,-109,l),
(338,138,l),
(91,138,l)
);
}
);
width = 900;
},
{
guides = (
{
pos = (25,0);
},
{
pos = (0,-175);
},
{
pos = (450,0);
},
{
pos = (0,250);
},
{
pos = (875,0);
},
{
pos = (0,675);
}
);
layerId = m003;
shapes = (
{
closed = 1;
nodes = (
(282,665,l),
(282,418,l),
(35,418,l),
(35,82,l),
(282,82,l),
(282,-165,l),
(618,-165,l),
(618,82,l),
(865,82,l),
(865,418,l),
(618,418,l),
(618,665,l)
);
},
{
closed = 1;
nodes = (
(91,362,l),
(338,362,l),
(338,609,l),
(562,609,l),
(562,362,l),
(809,362,l),
(809,138,l),
(562,138,l),
(562,-109,l),
(338,-109,l),
(338,138,l),
(91,138,l)
);
}
);
width = 900;
},
{
guides = (
{
pos = (25,0);
},
{
pos = (0,-175);
},
{
pos = (450,0);
},
{
pos = (0,250);
},
{
pos = (875,0);
},
{
pos = (0,675);
}
);
layerId = m004;
shapes = (
{
closed = 1;
nodes = (
(282,665,l),
(282,418,l),
(35,418,l),
(35,82,l),
(282,82,l),
(282,-165,l),
(618,-165,l),
(618,82,l),
(865,82,l),
(865,418,l),
(618,418,l),
(618,665,l)
);
},
{
closed = 1;
nodes = (
(91,362,l),
(338,362,l),
(338,609,l),
(562,609,l),
(562,362,l),
(809,362,l),
(809,138,l),
(562,138,l),
(562,-109,l),
(338,-109,l),
(338,138,l),
(91,138,l)
);
}
);
width = 900;
}
);
unicode = 127973;
},
